Halant_1.ufo
<glyph name="exclam" format="1">
  <advance width="438"/>
  <unicode hex="0021"/>
  <outline>
    <contour>
      <point x="219" y="-20" type="curve" smooth="yes"/>
      <point x="261" y="-20"/>
      <point x="295" y="14"/>
      <point x="295" y="56" type="curve" smooth="yes"/>
      <point x="295" y="96"/>
      <point x="261" y="131"/>
      <point x="219" y="131" type="curve" smooth="yes"/>
      <point x="179" y="131"/>
      <point x="144" y="96"/>
      <point x="144" y="56" type="curve" smooth="yes"/>
      <point x="144" y="14"/>
      <point x="179" y="-20"/>
    </contour>
    <contour>
      <point x="115" y="715" type="line"/>
      <point x="161" y="194" type="line"/>
      <point x="275" y="194" type="line"/>
      <point x="309" y="715" type="line"/>
    </contour>
  </outline>
</glyph>
<glyph name="quotedbl" format="1">
  <advance width="343"/>
  <unicode hex="0022"/>
  <outline>
    <contour>
      <point x="35" y="790" type="line"/>
      <point x="67" y="540" type="line"/>
      <point x="123" y="540" type="line"/>
      <point x="154" y="790" type="line"/>
    </contour>
    <contour>
      <point x="189" y="790" type="line"/>
      <point x="221" y="540" type="line"/>
      <point x="277" y="540" type="line"/>
      <point x="308" y="790" type="line"/>
    </contour>
  </outline>
</glyph>
<glyph name="numbersign" format="1">
  <advance width="675"/>
  <unicode hex="0023"/>
  <outline>
    <contour>
      <point x="647" y="411" type="line"/>
      <point x="647" y="502" type="line"/>
      <point x="67" y="502" type="line"/>
      <point x="67" y="411" type="line"/>
    </contour>
    <contour>
      <point x="612" y="149" type="line"/>
      <point x="612" y="241" type="line"/>
      <point x="32" y="241" type="line"/>
      <point x="32" y="149" type="line"/>
    </contour>
    <contour>
      <point x="214" y="0" type="line"/>
      <point x="344" y="646" type="line"/>
      <point x="245" y="646" type="line"/>
      <point x="114" y="0" type="line"/>
    </contour>
    <contour>
      <point x="443" y="0" type="line"/>
      <point x="573" y="646" type="line"/>
      <point x="474" y="646" type="line"/>
      <point x="343" y="0" type="line"/>
    </contour>
  </outline>
</glyph>
<glyph name="dollar" format="1">
  <advance width="548"/>
  <unicode hex="0024"/>
  <outline>
    <contour>
      <point x="304" y="739" type="line"/>
      <point x="304" y="-89" type="line"/>
      <point x="251" y="-89" type="line"/>
      <point x="251" y="739" type="line"/>
    </contour>
    <contour>
      <point x="471" y="635" type="curve"/>
      <point x="471" y="580"/>
      <point x="464" y="510"/>
      <point x="457" y="460" type="curve"/>
      <point x="440" y="460"/>
      <point x="422" y="461"/>
      <point x="405" y="463" type="curve"/>
      <point x="391" y="567"/>
      <point x="344" y="594"/>
      <point x="291" y="594" type="curve" smooth="yes"/>
      <point x="241" y="594"/>
      <point x="197" y="569"/>
      <point x="197" y="523" type="curve" smooth="yes"/>
      <point x="197" y="379"/>
      <point x="505" y="406"/>
      <point x="505" y="184" type="curve" smooth="yes"/>
      <point x="505" y="57"/>
      <point x="388" y="-14"/>
      <point x="267" y="-14" type="curve" smooth="yes"/>
      <point x="209" y="-14"/>
      <point x="139" y="0"/>
      <point x="66" y="17" type="curve"/>
      <point x="63" y="81"/>
      <point x="69" y="174"/>
      <point x="74" y="221" type="curve"/>
      <point x="97" y="221"/>
      <point x="116" y="219"/>
      <point x="141" y="215" type="curve"/>
      <point x="138" y="96"/>
      <point x="194" y="60"/>
      <point x="272" y="60" type="curve" smooth="yes"/>
      <point x="329" y="60"/>
      <point x="364" y="86"/>
      <point x="364" y="131" type="curve" smooth="yes"/>
      <point x="364" y="280"/>
      <point x="64" y="252"/>
      <point x="64" y="481" type="curve" smooth="yes"/>
      <point x="64" y="600"/>
      <point x="162" y="664"/>
      <point x="292" y="664" type="curve" smooth="yes"/>
      <point x="361" y="664"/>
      <point x="416" y="651"/>
    </contour>
  </outline>
</glyph>
<glyph name="parenright" format="1">
  <advance width="475"/>
  <unicode hex="0029"/>
  <outline>
    <contour>
      <point x="355" y="321" type="curve" smooth="yes"/>
      <point x="355" y="148"/>
      <point x="276" y="-27"/>
      <point x="84" y="-157" type="curve"/>
      <point x="20" y="-110" type="line"/>
      <point x="148" y="3"/>
      <point x="204" y="175"/>
      <point x="204" y="321" type="curve" smooth="yes"/>
      <point x="204" y="467"/>
      <point x="148" y="640"/>
      <point x="20" y="754" type="curve"/>
      <point x="84" y="800" type="line"/>
      <point x="276" y="671"/>
      <point x="355" y="496"/>
    </contour>
  </outline>
</glyph>
<glyph name="comma" format="1">
  <advance width="233"/>
  <unicode hex="002C"/>
  <outline>
    <contour>
      <point x="183" y="20" type="curve" smooth="yes"/>
      <point x="183" y="-45"/>
      <point x="149" y="-109"/>
      <point x="91" y="-146" type="curve"/>
      <point x="54" y="-122" type="line"/>
      <point x="83" y="-98"/>
      <point x="97" y="-74"/>
      <point x="97" y="-39" type="curve" smooth="yes"/>
      <point x="97" y="10"/>
      <point x="50" y="24"/>
      <point x="50" y="69" type="curve" smooth="yes"/>
      <point x="50" y="99"/>
      <point x="73" y="122"/>
      <point x="105" y="122" type="curve" smooth="yes"/>
      <point x="145" y="122"/>
      <point x="183" y="85"/>
    </contour>
  </outline>
</glyph>
<glyph name="hyphen" format="1">
  <advance width="492"/>
  <unicode hex="002D"/>
  <outline>
    <contour>
      <point x="437" y="260" type="line"/>
      <point x="437" y="355" type="line"/>
      <point x="55" y="355" type="line"/>
      <point x="55" y="260" type="line"/>
    </contour>
  </outline>
</glyph>
<glyph name="period" format="1">
  <advance width="234"/>
  <unicode hex="002E"/>
  <outline>
    <contour>
      <point x="117" y="-18" type="curve" smooth="yes"/>
      <point x="154" y="-18"/>
      <point x="184" y="13"/>
      <point x="184" y="49" type="curve" smooth="yes"/>
      <point x="184" y="86"/>
      <point x="154" y="117"/>
      <point x="117" y="117" type="curve" smooth="yes"/>
      <point x="80" y="117"/>
      <point x="50" y="86"/>
      <point x="50" y="49" type="curve" smooth="yes"/>
      <point x="50" y="13"/>
      <point x="80" y="-18"/>
    </contour>
  </outline>
</glyph>
<glyph name="slash" format="1">
  <advance width="458"/>
  <unicode hex="002F"/>
  <outline>
    <contour>
      <point x="260" y="763" type="line"/>
      <point x="40" y="-107" type="line"/>
      <point x="163" y="-107" type="line"/>
      <point x="383" y="763" type="line"/>
    </contour>
  </outline>
</glyph>
<glyph name="one" format="1">
  <advance width="368"/>
  <unicode hex="0031"/>
  <outline>
    <contour>
      <point x="270" y="42" type="line"/>
      <point x="266" y="79" type="line"/>
      <point x="294" y="66"/>
      <point x="326" y="60"/>
      <point x="357" y="57" type="curve"/>
      <point x="358" y="40"/>
      <point x="356" y="17"/>
      <point x="353" y="0" type="curve"/>
      <point x="11" y="0" type="line"/>
      <point x="10" y="18"/>
      <point x="11" y="40"/>
      <point x="17" y="57" type="curve"/>
      <point x="70" y="63"/>
      <point x="115" y="73"/>
      <point x="115" y="116" type="curve" smooth="yes"/>
      <point x="115" y="560" type="line"/>
      <point x="162" y="528" type="line"/>
      <point x="17" y="504" type="line"/>
      <point x="16" y="523"/>
      <point x="16" y="534"/>
      <point x="21" y="547" type="curve"/>
      <point x="104" y="599"/>
      <point x="177" y="640"/>
      <point x="238" y="670" type="curve"/>
      <point x="270" y="657" type="line"/>
    </contour>
  </outline>
</glyph>
<glyph name="two" format="1">
  <advance width="510"/>
  <unicode hex="0032"/>
  <outline>
    <contour>
      <point x="81" y="603" type="curve"/>
      <point x="75" y="556"/>
      <point x="75" y="484"/>
      <point x="77" y="436" type="curve"/>
      <point x="88" y="435"/>
      <point x="114" y="434"/>
      <point x="126" y="435" type="curve"/>
      <point x="138" y="502"/>
      <point x="171" y="532"/>
      <point x="216" y="532" type="curve" smooth="yes"/>
      <point x="261" y="532"/>
      <point x="294" y="498"/>
      <point x="294" y="441" type="curve" smooth="yes"/>
      <point x="294" y="360"/>
      <point x="233" y="290"/>
      <point x="50" y="103" type="curve"/>
      <point x="50" y="85"/>
      <point x="54" y="41"/>
      <point x="61" y="0" type="curve"/>
      <point x="443" y="0" type="line"/>
      <point x="466" y="67"/>
      <point x="471" y="141"/>
      <point x="471" y="202" type="curve"/>
      <point x="460" y="207"/>
      <point x="448" y="210"/>
      <point x="437" y="210" type="curve"/>
      <point x="423" y="139"/>
      <point x="400" y="121"/>
      <point x="352" y="121" type="curve" smooth="yes"/>
      <point x="115" y="121" type="line"/>
      <point x="120" y="85" type="line"/>
      <point x="356" y="297"/>
      <point x="459" y="361"/>
      <point x="459" y="479" type="curve" smooth="yes"/>
      <point x="459" y="580"/>
      <point x="388" y="663"/>
      <point x="267" y="663" type="curve"/>
      <point x="196" y="663"/>
      <point x="131" y="641"/>
    </contour>
  </outline>
</glyph>
<glyph name="three" format="1">
  <advance width="484"/>
  <unicode hex="0033"/>
  <outline>
    <contour>
      <point x="439" y="510" type="curve" smooth="yes"/>
      <point x="439" y="443"/>
      <point x="385" y="374"/>
      <point x="284" y="332" type="curve"/>
      <point x="284" y="360" type="line"/>
      <point x="392" y="332"/>
      <point x="447" y="269"/>
      <point x="447" y="183" type="curve" smooth="yes"/>
      <point x="447" y="75"/>
      <point x="351" y="-13"/>
      <point x="216" y="-13" type="curve" smooth="yes"/>
      <point x="142" y="-13"/>
      <point x="84" y="21"/>
      <point x="33" y="64" type="curve"/>
      <point x="44" y="93"/>
      <point x="56" y="111"/>
      <point x="73" y="122" type="curve"/>
      <point x="106" y="99"/>
      <point x="147" y="84"/>
      <point x="198" y="84" type="curve" smooth="yes"/>
      <point x="258" y="84"/>
      <point x="296" y="122"/>
      <point x="296" y="170" type="curve" smooth="yes"/>
      <point x="296" y="239"/>
      <point x="248" y="278"/>
      <point x="166" y="278" type="curve"/>
      <point x="166" y="340" type="line"/>
      <point x="241" y="353"/>
      <point x="274" y="401"/>
      <point x="274" y="462" type="curve" smooth="yes"/>
      <point x="274" y="514"/>
      <point x="244" y="552"/>
      <point x="201" y="552" type="curve" smooth="yes"/>
      <point x="159" y="552"/>
      <point x="119" y="523"/>
      <point x="106" y="465" type="curve"/>
      <point x="94" y="464"/>
      <point x="68" y="465"/>
      <point x="57" y="466" type="curve"/>
      <point x="55" y="514"/>
      <point x="55" y="560"/>
      <point x="61" y="607" type="curve"/>
      <point x="114" y="640"/>
      <point x="174" y="663"/>
      <point x="257" y="663" type="curve" smooth="yes"/>
      <point x="358" y="663"/>
      <point x="439" y="595"/>
    </contour>
  </outline>
</glyph>
<glyph name="four" format="1">
  <advance width="528"/>
  <unicode hex="0034"/>
  <outline>
    <contour>
      <point x="303" y="468" type="line"/>
      <point x="99" y="197" type="line"/>
      <point x="81" y="235" type="line"/>
      <point x="277" y="235" type="line"/>
      <point x="277" y="477" type="line"/>
    </contour>
    <contour>
      <point x="411" y="235" type="line"/>
      <point x="500" y="235" type="line"/>
      <point x="508" y="198"/>
      <point x="508" y="179"/>
      <point x="504" y="155" type="curve"/>
      <point x="411" y="155" type="line"/>
      <point x="411" y="42" type="line"/>
      <point x="407" y="69" type="line"/>
      <point x="424" y="59"/>
      <point x="453" y="56"/>
      <point x="472" y="56" type="curve"/>
      <point x="473" y="40"/>
      <point x="471" y="16"/>
      <point x="468" y="0" type="curve"/>
      <point x="209" y="0" type="line"/>
      <point x="208" y="17"/>
      <point x="209" y="40"/>
      <point x="214" y="56" type="curve"/>
      <point x="252" y="62"/>
      <point x="277" y="72"/>
      <point x="277" y="116" type="curve" smooth="yes"/>
      <point x="277" y="155" type="line"/>
      <point x="53" y="155" type="line"/>
      <point x="38" y="177"/>
      <point x="28" y="197"/>
      <point x="23" y="221" type="curve"/>
      <point x="332" y="650" type="line"/>
      <point x="411" y="650" type="line"/>
    </contour>
  </outline>
</glyph>
<glyph name="five" format="1">
  <advance width="485"/>
  <unicode hex="0035"/>
  <outline>
    <contour>
      <point x="272" y="410" type="curve" smooth="yes"/>
      <point x="223" y="410"/>
      <point x="195" y="401"/>
      <point x="157" y="384" type="curve"/>
      <point x="171" y="519" type="line"/>
      <point x="403" y="519" type="line"/>
      <point x="422" y="583"/>
      <point x="430" y="631"/>
      <point x="431" y="682" type="curve"/>
      <point x="420" y="687"/>
      <point x="408" y="690"/>
      <point x="397" y="690" type="curve"/>
      <point x="384" y="659"/>
      <point x="360" y="640"/>
      <point x="312" y="640" type="curve" smooth="yes"/>
      <point x="104" y="640" type="line"/>
      <point x="69" y="290" type="line"/>
      <point x="90" y="280" type="line"/>
      <point x="129" y="303"/>
      <point x="156" y="316"/>
      <point x="196" y="316" type="curve" smooth="yes"/>
      <point x="250" y="316"/>
      <point x="293" y="274"/>
      <point x="293" y="204" type="curve" smooth="yes"/>
      <point x="293" y="127"/>
      <point x="245" y="84"/>
      <point x="185" y="84" type="curve" smooth="yes"/>
      <point x="134" y="84"/>
      <point x="93" y="99"/>
      <point x="60" y="122" type="curve"/>
      <point x="44" y="109"/>
      <point x="32" y="91"/>
      <point x="20" y="64" type="curve"/>
      <point x="66" y="20"/>
      <point x="129" y="-13"/>
      <point x="203" y="-13" type="curve" smooth="yes"/>
      <point x="338" y="-13"/>
      <point x="445" y="82"/>
      <point x="445" y="225" type="curve"/>
      <point x="445" y="344"/>
      <point x="364" y="410"/>
    </contour>
  </outline>
</glyph>
<glyph name="six" format="1">
  <advance width="523"/>
  <unicode hex="0036"/>
  <outline>
    <contour>
      <point x="497" y="240" type="curve" smooth="yes"/>
      <point x="508" y="94"/>
      <point x="392" y="-13"/>
      <point x="266" y="-13" type="curve" smooth="yes"/>
      <point x="155" y="-13"/>
      <point x="57" y="76"/>
      <point x="47" y="218" type="curve" smooth="yes"/>
      <point x="32" y="426"/>
      <point x="193" y="606"/>
      <point x="371" y="675" type="curve"/>
      <point x="410" y="652"/>
      <point x="418" y="633"/>
      <point x="417" y="617" type="curve"/>
      <point x="247" y="542"/>
      <point x="184" y="358"/>
      <point x="195" y="206" type="curve" smooth="yes"/>
      <point x="201" y="116"/>
      <point x="233" y="67"/>
      <point x="273" y="67" type="curve" smooth="yes"/>
      <point x="313" y="67"/>
      <point x="358" y="118"/>
      <point x="352" y="204" type="curve" smooth="yes"/>
      <point x="347" y="274"/>
      <point x="301" y="316"/>
      <point x="247" y="316" type="curve" smooth="yes"/>
      <point x="207" y="316"/>
      <point x="181" y="303"/>
      <point x="144" y="280" type="curve"/>
      <point x="180" y="361" type="line"/>
      <point x="216" y="385"/>
      <point x="268" y="401"/>
      <point x="317" y="401" type="curve" smooth="yes"/>
      <point x="409" y="401"/>
      <point x="490" y="344"/>
    </contour>
  </outline>
</glyph>
<glyph name="nine" format="1">
  <advance width="498"/>
  <unicode hex="0039"/>
  <outline>
    <contour>
      <point x="344" y="291" type="curve"/>
      <point x="378" y="372" type="line"/>
      <point x="341" y="349"/>
      <point x="315" y="336"/>
      <point x="275" y="336" type="curve" smooth="yes"/>
      <point x="221" y="336"/>
      <point x="174" y="378"/>
      <point x="167" y="448" type="curve" smooth="yes"/>
      <point x="158" y="534"/>
      <point x="200" y="585"/>
      <point x="240" y="585" type="curve" smooth="yes"/>
      <point x="280" y="585"/>
      <point x="314" y="536"/>
      <point x="324" y="446" type="curve" smooth="yes"/>
      <point x="340" y="294"/>
      <point x="283" y="110"/>
      <point x="116" y="35" type="curve"/>
      <point x="116" y="19"/>
      <point x="125" y="0"/>
      <point x="164" y="-23" type="curve"/>
      <point x="340" y="46"/>
      <point x="494" y="226"/>
      <point x="472" y="434" type="curve" smooth="yes"/>
      <point x="457" y="576"/>
      <point x="356" y="665"/>
      <point x="245" y="665" type="curve" smooth="yes"/>
      <point x="119" y="665"/>
      <point x="7" y="558"/>
      <point x="22" y="412" type="curve" smooth="yes"/>
      <point x="33" y="308"/>
      <point x="116" y="251"/>
      <point x="208" y="251" type="curve" smooth="yes"/>
      <point x="257" y="251"/>
      <point x="309" y="267"/>
    </contour>
  </outline>
</glyph>
<glyph name="colon" format="1">
  <advance width="338"/>
  <unicode hex="003A"/>
  <outline>
    <contour>
      <point x="256" y="57" type="curve" smooth="yes"/>
      <point x="256" y="11"/>
      <point x="217" y="-28"/>
      <point x="169" y="-28" type="curve" smooth="yes"/>
      <point x="122" y="-28"/>
      <point x="83" y="11"/>
      <point x="83" y="57" type="curve" smooth="yes"/>
      <point x="83" y="105"/>
      <point x="122" y="145"/>
      <point x="169" y="145" type="curve" smooth="yes"/>
      <point x="217" y="145"/>
      <point x="256" y="105"/>
    </contour>
    <contour>
      <point x="256" y="471" type="curve" smooth="yes"/>
      <point x="256" y="424"/>
      <point x="217" y="385"/>
      <point x="169" y="385" type="curve" smooth="yes"/>
      <point x="122" y="385"/>
      <point x="83" y="424"/>
      <point x="83" y="471" type="curve" smooth="yes"/>
      <point x="83" y="519"/>
      <point x="122" y="558"/>
      <point x="169" y="558" type="curve" smooth="yes"/>
      <point x="218" y="558"/>
      <point x="256" y="519"/>
    </contour>
  </outline>
</glyph>
<glyph name="at" format="1">
  <advance width="1072"/>
  <unicode hex="0040"/>
  <outline>
    <contour>
      <point x="1022" y="314" type="curve" smooth="yes"/>
      <point x="1022" y="127"/>
      <point x="866" y="-13"/>
      <point x="699" y="-13" type="curve" smooth="yes"/>
      <point x="616" y="-13"/>
      <point x="560" y="26"/>
      <point x="573" y="117" type="curve" smooth="yes"/>
      <point x="594" y="266" type="line" smooth="yes"/>
      <point x="600" y="309"/>
      <point x="586" y="331"/>
      <point x="557" y="331" type="curve" smooth="yes"/>
      <point x="516" y="331"/>
      <point x="482" y="291"/>
      <point x="469" y="210" type="curve" smooth="yes"/>
      <point x="451" y="100"/>
      <point x="484" y="81"/>
      <point x="516" y="81" type="curve" smooth="yes"/>
      <point x="578" y="81"/>
      <point x="592" y="167"/>
      <point x="630" y="210" type="curve"/>
      <point x="602" y="84" type="line" smooth="yes"/>
      <point x="570" y="44"/>
      <point x="523" y="-14"/>
      <point x="450" y="-14" type="curve" smooth="yes"/>
      <point x="357" y="-14"/>
      <point x="285" y="65"/>
      <point x="307" y="195" type="curve" smooth="yes"/>
      <point x="329" y="327"/>
      <point x="444" y="423"/>
      <point x="573" y="423" type="curve" smooth="yes"/>
      <point x="691" y="423"/>
      <point x="760" y="357"/>
      <point x="743" y="234" type="curve" smooth="yes"/>
      <point x="728" y="130" type="line" smooth="yes"/>
      <point x="722" y="86"/>
      <point x="730" y="64"/>
      <point x="760" y="64" type="curve" smooth="yes"/>
      <point x="818" y="64"/>
      <point x="883" y="142"/>
      <point x="883" y="260" type="curve" smooth="yes"/>
      <point x="883" y="416"/>
      <point x="800" y="527"/>
      <point x="610" y="527" type="curve" smooth="yes"/>
      <point x="368" y="527"/>
      <point x="189" y="339"/>
      <point x="189" y="119" type="curve" smooth="yes"/>
      <point x="189" y="-30"/>
      <point x="306" y="-110"/>
      <point x="438" y="-110" type="curve" smooth="yes"/>
      <point x="518" y="-110"/>
      <point x="580" y="-97"/>
      <point x="634" y="-78" type="curve"/>
      <point x="646" y="-96"/>
      <point x="653" y="-125"/>
      <point x="652" y="-149" type="curve"/>
      <point x="577" y="-182"/>
      <point x="499" y="-200"/>
      <point x="409" y="-200" type="curve" smooth="yes"/>
      <point x="229" y="-200"/>
      <point x="50" y="-95"/>
      <point x="50" y="126" type="curve" smooth="yes"/>
      <point x="50" y="407"/>
      <point x="310" y="617"/>
      <point x="640" y="617" type="curve" smooth="yes"/>
      <point x="873" y="617"/>
      <point x="1022" y="492"/>
    </contour>
  </outline>
</glyph>
<glyph name="A" format="1">
  <advance width="652"/>
  <unicode hex="0041"/>
  <outline>
    <contour>
      <point x="577" y="120" type="line"/>
      <point x="592" y="73"/>
      <point x="606" y="58"/>
      <point x="652" y="57" type="curve"/>
      <point x="652" y="36"/>
      <point x="650" y="20"/>
      <point x="648" y="0" type="curve"/>
      <point x="339" y="0" type="line"/>
      <point x="339" y="20"/>
      <point x="339" y="36"/>
      <point x="342" y="57" type="curve"/>
      <point x="379" y="66"/>
      <point x="420" y="77"/>
      <point x="443" y="99" type="curve"/>
      <point x="422" y="72" type="line"/>
      <point x="259" y="618" type="line"/>
      <point x="294" y="599" type="line"/>
      <point x="276" y="504" type="line"/>
      <point x="139" y="41" type="line"/>
      <point x="119" y="96" type="line"/>
      <point x="147" y="59"/>
      <point x="178" y="57"/>
      <point x="229" y="57" type="curve"/>
      <point x="229" y="36"/>
      <point x="228" y="20"/>
      <point x="225" y="0" type="curve"/>
      <point x="1" y="0" type="line"/>
      <point x="0" y="20"/>
      <point x="1" y="38"/>
      <point x="4" y="57" type="curve"/>
      <point x="45" y="69"/>
      <point x="62" y="88"/>
      <point x="75" y="123" type="curve" smooth="yes"/>
      <point x="246" y="649" type="line"/>
      <point x="287" y="657"/>
      <point x="359" y="662"/>
      <point x="407" y="663" type="curve"/>
    </contour>
    <contour>
      <point x="409" y="224" type="line"/>
      <point x="173" y="224" type="line"/>
      <point x="173" y="293" type="line"/>
      <point x="409" y="293" type="line"/>
    </contour>
    <contour>
      <point x="648" y="0" type="move" name="ogonek"/>
    </contour>
    <contour>
      <point x="325" y="650" type="move" name="top"/>
    </contour>
  </outline>
</glyph>
<glyph name="B" format="1">
  <advance width="661"/>
  <unicode hex="0042"/>
  <outline>
    <contour>
      <point x="585" y="474" type="curve" smooth="yes"/>
      <point x="585" y="399"/>
      <point x="543" y="352"/>
      <point x="455" y="325" type="curve"/>
      <point x="444" y="353" type="line"/>
      <point x="553" y="337"/>
      <point x="610" y="274"/>
      <point x="610" y="180" type="curve" smooth="yes"/>
      <point x="610" y="66"/>
      <point x="514" y="0"/>
      <point x="321" y="0" type="curve" smooth="yes"/>
      <point x="43" y="0" type="line"/>
      <point x="42" y="18"/>
      <point x="43" y="40"/>
      <point x="48" y="57" type="curve"/>
      <point x="83" y="63"/>
      <point x="111" y="73"/>
      <point x="111" y="117" type="curve" smooth="yes"/>
      <point x="111" y="592" type="line"/>
      <point x="115" y="581" type="line"/>
      <point x="97" y="591"/>
      <point x="60" y="594"/>
      <point x="41" y="594" type="curve"/>
      <point x="40" y="610"/>
      <point x="42" y="634"/>
      <point x="45" y="650" type="curve"/>
      <point x="307" y="650" type="line" smooth="yes"/>
      <point x="509" y="650"/>
      <point x="585" y="571"/>
    </contour>
    <contour>
      <point x="256" y="588" type="line"/>
      <point x="271" y="614" type="line"/>
      <point x="271" y="37" type="line"/>
      <point x="256" y="63" type="line"/>
      <point x="314" y="63" type="line" smooth="yes"/>
      <point x="396" y="63"/>
      <point x="447" y="99"/>
      <point x="447" y="180" type="curve" smooth="yes"/>
      <point x="447" y="261"/>
      <point x="396" y="298"/>
      <point x="314" y="298" type="curve" smooth="yes"/>
      <point x="266" y="298" type="line"/>
      <point x="266" y="361" type="line"/>
      <point x="341" y="361" type="line"/>
      <point x="387" y="380"/>
      <point x="421" y="423"/>
      <point x="421" y="474" type="curve" smooth="yes"/>
      <point x="421" y="547"/>
      <point x="376" y="588"/>
      <point x="307" y="588" type="curve" smooth="yes"/>
    </contour>
  </outline>
</glyph>
<glyph name="F" format="1">
  <advance width="570"/>
  <unicode hex="0046"/>
  <outline>
    <contour>
      <point x="447" y="263" type="line"/>
      <point x="403" y="263" type="line"/>
      <point x="250" y="274" type="line"/>
      <point x="250" y="335" type="line"/>
      <point x="403" y="351" type="line"/>
      <point x="447" y="351" type="line"/>
    </contour>
    <contour>
      <point x="111" y="592" type="line"/>
      <point x="114" y="581" type="line"/>
      <point x="97" y="591"/>
      <point x="60" y="594"/>
      <point x="40" y="594" type="curve"/>
      <point x="39" y="610"/>
      <point x="41" y="634"/>
      <point x="45" y="650" type="curve"/>
      <point x="556" y="650" type="line"/>
      <point x="557" y="589"/>
      <point x="556" y="526"/>
      <point x="550" y="464" type="curve"/>
      <point x="538" y="463"/>
      <point x="501" y="462"/>
      <point x="483" y="462" type="curve"/>
      <point x="476" y="533"/>
      <point x="477" y="588"/>
      <point x="405" y="588" type="curve" smooth="yes"/>
      <point x="256" y="588" type="line"/>
      <point x="271" y="603" type="line"/>
      <point x="271" y="42" type="line"/>
      <point x="267" y="77" type="line"/>
      <point x="293" y="69"/>
      <point x="347" y="59"/>
      <point x="378" y="57" type="curve"/>
      <point x="379" y="40"/>
      <point x="377" y="17"/>
      <point x="374" y="0" type="curve"/>
      <point x="43" y="0" type="line"/>
      <point x="42" y="18"/>
      <point x="43" y="40"/>
      <point x="48" y="57" type="curve"/>
      <point x="83" y="63"/>
      <point x="111" y="73"/>
      <point x="111" y="116" type="curve" smooth="yes"/>
    </contour>
  </outline>
</glyph>
<glyph name="G" format="1">
  <advance width="715"/>
  <unicode hex="0047"/>
  <outline>
    <contour>
      <point x="378" y="650" type="move" name="top"/>
    </contour>
    <contour>
      <point x="358" y="0" type="move" name="bottom"/>
    </contour>
    <contour>
      <point x="639" y="629" type="curve"/>
      <point x="636" y="573"/>
      <point x="629" y="516"/>
      <point x="615" y="445" type="curve"/>
      <point x="602" y="444"/>
      <point x="580" y="445"/>
      <point x="564" y="446" type="curve"/>
      <point x="545" y="529"/>
      <point x="490" y="579"/>
      <point x="405" y="579" type="curve" smooth="yes"/>
      <point x="298" y="579"/>
      <point x="221" y="490"/>
      <point x="221" y="335" type="curve" smooth="yes"/>
      <point x="221" y="146"/>
      <point x="294" y="71"/>
      <point x="402" y="71" type="curve" smooth="yes"/>
      <point x="438" y="71"/>
      <point x="472" y="81"/>
      <point x="501" y="97" type="curve"/>
      <point x="490" y="73" type="line"/>
      <point x="490" y="272" type="line"/>
      <point x="500" y="251" type="line"/>
      <point x="471" y="262"/>
      <point x="434" y="265"/>
      <point x="402" y="265" type="curve"/>
      <point x="402" y="283"/>
      <point x="403" y="309"/>
      <point x="406" y="328" type="curve"/>
      <point x="700" y="328" type="line"/>
      <point x="701" y="308"/>
      <point x="699" y="283"/>
      <point x="695" y="265" type="curve"/>
      <point x="663" y="256"/>
      <point x="628" y="250"/>
      <point x="628" y="204" type="curve" smooth="yes"/>
      <point x="628" y="0" type="line"/>
      <point x="542" y="0" type="line"/>
      <point x="505" y="49" type="line"/>
      <point x="545" y="41" type="line"/>
      <point x="494" y="9"/>
      <point x="439" y="-13"/>
      <point x="368" y="-13" type="curve" smooth="yes"/>
      <point x="199" y="-13"/>
      <point x="50" y="109"/>
      <point x="50" y="320" type="curve" smooth="yes"/>
      <point x="50" y="535"/>
      <point x="223" y="664"/>
      <point x="406" y="664" type="curve" smooth="yes"/>
      <point x="501" y="664"/>
      <point x="572" y="650"/>
    </contour>
  </outline>
</glyph>
<glyph name="H" format="1">
  <advance width="773"/>
  <unicode hex="0048"/>
  <outline>
    <contour>
      <point x="198" y="361" type="line"/>
      <point x="587" y="361" type="line"/>
      <point x="587" y="284" type="line"/>
      <point x="198" y="284" type="line"/>
    </contour>
    <contour>
      <point x="271" y="43" type="line"/>
      <point x="268" y="69" type="line"/>
      <point x="285" y="59"/>
      <point x="322" y="57"/>
      <point x="341" y="57" type="curve"/>
      <point x="342" y="40"/>
      <point x="340" y="17"/>
      <point x="337" y="0" type="curve"/>
      <point x="42" y="0" type="line"/>
      <point x="41" y="18"/>
      <point x="42" y="40"/>
      <point x="48" y="57" type="curve"/>
      <point x="83" y="63"/>
      <point x="111" y="73"/>
      <point x="111" y="117" type="curve" smooth="yes"/>
      <point x="111" y="592" type="line"/>
      <point x="113" y="582" type="line"/>
      <point x="96" y="591"/>
      <point x="60" y="594"/>
      <point x="40" y="594" type="curve"/>
      <point x="39" y="610"/>
      <point x="41" y="634"/>
      <point x="45" y="650" type="curve"/>
      <point x="339" y="650" type="line"/>
      <point x="340" y="633"/>
      <point x="339" y="610"/>
      <point x="334" y="594" type="curve"/>
      <point x="299" y="588"/>
      <point x="271" y="578"/>
      <point x="271" y="534" type="curve" smooth="yes"/>
    </contour>
    <contour>
      <point x="663" y="43" type="line"/>
      <point x="660" y="69" type="line"/>
      <point x="677" y="59"/>
      <point x="714" y="57"/>
      <point x="733" y="57" type="curve"/>
      <point x="734" y="40"/>
      <point x="732" y="17"/>
      <point x="729" y="0" type="curve"/>
      <point x="434" y="0" type="line"/>
      <point x="433" y="18"/>
      <point x="434" y="40"/>
      <point x="439" y="57" type="curve"/>
      <point x="474" y="63"/>
      <point x="502" y="73"/>
      <point x="502" y="117" type="curve" smooth="yes"/>
      <point x="502" y="592" type="line"/>
      <point x="505" y="582" type="line"/>
      <point x="488" y="591"/>
      <point x="451" y="594"/>
      <point x="432" y="594" type="curve"/>
      <point x="431" y="610"/>
      <point x="433" y="634"/>
      <point x="436" y="650" type="curve"/>
      <point x="731" y="650" type="line"/>
      <point x="732" y="633"/>
      <point x="731" y="610"/>
      <point x="726" y="594" type="curve"/>
      <point x="690" y="588"/>
      <point x="663" y="578"/>
      <point x="663" y="534" type="curve" smooth="yes"/>
    </contour>
  </outline>
</glyph>
<glyph name="J" format="1">
  <advance width="376"/>
  <unicode hex="004A"/>
  <outline>
    <contour>
      <point x="271" y="80" type="line"/>
      <point x="271" y="-81"/>
      <point x="160" y="-171"/>
      <point x="24" y="-210" type="curve"/>
      <point x="9" y="-199"/>
      <point x="-9" y="-181"/>
      <point x="-21" y="-164" type="curve"/>
      <point x="85" y="-104"/>
      <point x="111" y="-45"/>
      <point x="111" y="80" type="curve" smooth="yes"/>
      <point x="111" y="592" type="line"/>
      <point x="113" y="582" type="line"/>
      <point x="96" y="591"/>
      <point x="60" y="594"/>
      <point x="40" y="594" type="curve"/>
      <point x="39" y="610"/>
      <point x="41" y="634"/>
      <point x="45" y="650" type="curve"/>
      <point x="339" y="650" type="line"/>
      <point x="340" y="633"/>
      <point x="339" y="610"/>
      <point x="334" y="594" type="curve"/>
      <point x="299" y="588"/>
      <point x="271" y="578"/>
      <point x="271" y="534" type="curve" smooth="yes"/>
    </contour>
  </outline>
</glyph>
<glyph name="L" format="1">
  <advance width="573"/>
  <unicode hex="004C"/>
  <outline>
    <contour>
      <point x="334" y="594" type="curve"/>
      <point x="299" y="588"/>
      <point x="271" y="578"/>
      <point x="271" y="534" type="curve" smooth="yes"/>
      <point x="271" y="15" type="line"/>
      <point x="225" y="62" type="line"/>
      <point x="414" y="62" type="line" smooth="yes"/>
      <point x="485" y="62"/>
      <point x="484" y="117"/>
      <point x="491" y="188" type="curve"/>
      <point x="509" y="188"/>
      <point x="536" y="186"/>
      <point x="548" y="185" type="curve"/>
      <point x="553" y="123"/>
      <point x="556" y="60"/>
      <point x="554" y="0" type="curve"/>
      <point x="43" y="0" type="line"/>
      <point x="42" y="18"/>
      <point x="43" y="40"/>
      <point x="48" y="57" type="curve"/>
      <point x="83" y="63"/>
      <point x="111" y="73"/>
      <point x="111" y="117" type="curve" smooth="yes"/>
      <point x="111" y="592" type="line"/>
      <point x="113" y="582" type="line"/>
      <point x="97" y="591"/>
      <point x="60" y="594"/>
      <point x="41" y="594" type="curve"/>
      <point x="40" y="610"/>
      <point x="42" y="634"/>
      <point x="45" y="650" type="curve"/>
      <point x="339" y="650" type="line"/>
      <point x="341" y="633"/>
      <point x="339" y="610"/>
    </contour>
    <contour>
      <point x="200" y="650" type="move" name="top"/>
    </contour>
    <contour>
      <point x="284" y="0" type="move" name="bottom"/>
    </contour>
    <contour>
      <point x="390" y="650" type="move" name="commaaccent"/>
    </contour>
  </outline>
</glyph>
<glyph name="M" format="1">
  <advance width="925"/>
  <unicode hex="004D"/>
  <outline>
    <contour>
      <point x="330" y="650" type="line"/>
      <point x="466" y="241" type="line"/>
      <point x="431" y="218" type="line"/>
      <point x="600" y="650" type="line"/>
      <point x="855" y="650" type="line"/>
      <point x="858" y="631"/>
      <point x="858" y="615"/>
      <point x="856" y="595" type="curve"/>
      <point x="821" y="588"/>
      <point x="794" y="581"/>
      <point x="796" y="536" type="curve" smooth="yes"/>
      <point x="817" y="50" type="line"/>
      <point x="809" y="65" type="line"/>
      <point x="835" y="57"/>
      <point x="866" y="57"/>
      <point x="894" y="57" type="curve"/>
      <point x="896" y="39"/>
      <point x="896" y="19"/>
      <point x="895" y="0" type="curve"/>
      <point x="571" y="0" type="line"/>
      <point x="569" y="20"/>
      <point x="569" y="38"/>
      <point x="570" y="57" type="curve"/>
      <point x="603" y="63"/>
      <point x="654" y="70"/>
      <point x="654" y="117" type="curve" smooth="yes"/>
      <point x="654" y="633" type="line"/>
      <point x="684" y="607" type="line"/>
      <point x="622" y="448" type="line"/>
      <point x="446" y="0" type="line"/>
      <point x="403" y="0" type="line"/>
      <point x="254" y="424" type="line"/>
      <point x="194" y="594" type="line"/>
      <point x="220" y="580" type="line"/>
      <point x="189" y="21" type="line"/>
      <point x="171" y="72" type="line"/>
      <point x="198" y="57"/>
      <point x="234" y="57"/>
      <point x="265" y="57" type="curve"/>
      <point x="264" y="39"/>
      <point x="262" y="19"/>
      <point x="258" y="0" type="curve"/>
      <point x="30" y="0" type="line"/>
      <point x="31" y="20"/>
      <point x="31" y="38"/>
      <point x="36" y="57" type="curve"/>
      <point x="66" y="63"/>
      <point x="100" y="70"/>
      <point x="102" y="116" type="curve" smooth="yes"/>
      <point x="122" y="584" type="line"/>
      <point x="100" y="592"/>
      <point x="84" y="595"/>
      <point x="62" y="595" type="curve"/>
      <point x="61" y="615"/>
      <point x="64" y="633"/>
      <point x="69" y="650" type="curve"/>
    </contour>
  </outline>
</glyph>
<glyph name="N" format="1">
  <advance width="765"/>
  <unicode hex="004E"/>
  <outline>
    <contour>
      <point x="398" y="650" type="move" name="top"/>
    </contour>
    <contour>
      <point x="392" y="0" type="move" name="bottom"/>
    </contour>
    <contour>
      <point x="508" y="350" type="line"/>
      <point x="590" y="230" type="line"/>
      <point x="562" y="125" type="line"/>
      <point x="562" y="592" type="line"/>
      <point x="565" y="582" type="line"/>
      <point x="548" y="591"/>
      <point x="511" y="594"/>
      <point x="492" y="594" type="curve"/>
      <point x="491" y="610"/>
      <point x="493" y="634"/>
      <point x="496" y="650" type="curve"/>
      <point x="717" y="650" type="line"/>
      <point x="718" y="633"/>
      <point x="717" y="610"/>
      <point x="712" y="594" type="curve"/>
      <point x="676" y="588"/>
      <point x="649" y="578"/>
      <point x="649" y="534" type="curve"/>
      <point x="649" y="0" type="line"/>
      <point x="581" y="0" type="line"/>
      <point x="276" y="386" type="line"/>
      <point x="163" y="548" type="line"/>
      <point x="209" y="580" type="line"/>
      <point x="209" y="43" type="line"/>
      <point x="206" y="69" type="line"/>
      <point x="223" y="59"/>
      <point x="260" y="57"/>
      <point x="279" y="57" type="curve"/>
      <point x="280" y="40"/>
      <point x="278" y="17"/>
      <point x="275" y="0" type="curve"/>
      <point x="54" y="0" type="line"/>
      <point x="53" y="18"/>
      <point x="54" y="40"/>
      <point x="59" y="57" type="curve"/>
      <point x="95" y="63"/>
      <point x="122" y="73"/>
      <point x="122" y="117" type="curve"/>
      <point x="122" y="603" type="line"/>
      <point x="145" y="578" type="line"/>
      <point x="123" y="595"/>
      <point x="82" y="595"/>
      <point x="48" y="595" type="curve"/>
      <point x="49" y="615"/>
      <point x="50" y="632"/>
      <point x="55" y="650" type="curve"/>
      <point x="271" y="650" type="line"/>
    </contour>
  </outline>
</glyph>
<glyph name="O" format="1">
  <advance width="712"/>
  <unicode hex="004F"/>
  <outline>
    <contour>
      <point x="355" y="-14" type="curve" smooth="yes"/>
      <point x="176" y="-14"/>
      <point x="50" y="119"/>
      <point x="50" y="323" type="curve" smooth="yes"/>
      <point x="50" y="527"/>
      <point x="176" y="664"/>
      <point x="355" y="664" type="curve" smooth="yes"/>
      <point x="533" y="664"/>
      <point x="663" y="527"/>
      <point x="663" y="323" type="curve" smooth="yes"/>
      <point x="663" y="119"/>
      <point x="533" y="-14"/>
    </contour>
    <contour>
      <point x="471" y="324" type="curve" smooth="yes"/>
      <point x="469" y="528"/>
      <point x="425" y="600"/>
      <point x="350" y="600" type="curve" smooth="yes"/>
      <point x="275" y="600"/>
      <point x="240" y="526"/>
      <point x="242" y="323" type="curve" smooth="yes"/>
      <point x="244" y="120"/>
      <point x="284" y="50"/>
      <point x="359" y="50" type="curve" smooth="yes"/>
      <point x="434" y="50"/>
      <point x="473" y="118"/>
    </contour>
    <contour>
      <point x="357" y="650" type="move" name="top"/>
    </contour>
  </outline>
</glyph>
<glyph name="P" format="1">
  <advance width="611"/>
  <unicode hex="0050"/>
  <outline>
    <contour>
      <point x="604" y="457" type="curve" smooth="yes"/>
      <point x="604" y="341"/>
      <point x="490" y="266"/>
      <point x="335" y="266" type="curve" smooth="yes"/>
      <point x="256" y="266" type="line"/>
      <point x="252" y="281"/>
      <point x="251" y="310"/>
      <point x="251" y="328" type="curve"/>
      <point x="307" y="328" type="line" smooth="yes"/>
      <point x="387" y="328"/>
      <point x="433" y="376"/>
      <point x="433" y="457" type="curve" smooth="yes"/>
      <point x="433" y="541"/>
      <point x="388" y="587"/>
      <point x="307" y="587" type="curve" smooth="yes"/>
      <point x="256" y="587" type="line"/>
      <point x="271" y="602" type="line"/>
      <point x="271" y="63" type="line"/>
      <point x="268" y="77" type="line"/>
      <point x="291" y="67"/>
      <point x="330" y="59"/>
      <point x="358" y="57" type="curve"/>
      <point x="359" y="40"/>
      <point x="357" y="17"/>
      <point x="353" y="0" type="curve"/>
      <point x="43" y="0" type="line"/>
      <point x="42" y="18"/>
      <point x="43" y="40"/>
      <point x="48" y="57" type="curve"/>
      <point x="83" y="63"/>
      <point x="111" y="73"/>
      <point x="111" y="117" type="curve" smooth="yes"/>
      <point x="111" y="592" type="line"/>
      <point x="114" y="582" type="line"/>
      <point x="96" y="591"/>
      <point x="60" y="594"/>
      <point x="41" y="594" type="curve"/>
      <point x="40" y="610"/>
      <point x="42" y="634"/>
      <point x="45" y="650" type="curve"/>
      <point x="334" y="650" type="line" smooth="yes"/>
      <point x="489" y="650"/>
      <point x="604" y="573"/>
    </contour>
  </outline>
</glyph>
<glyph name="Q" format="1">
  <advance width="712"/>
  <unicode hex="0051"/>
  <outline>
    <contour>
      <point x="452" y="10" type="line"/>
      <point x="464" y="-44"/>
      <point x="488" y="-73"/>
      <point x="519" y="-73" type="curve" smooth="yes"/>
      <point x="547" y="-73"/>
      <point x="585" y="-63"/>
      <point x="613" y="-50" type="curve"/>
      <point x="634" y="-94" type="line"/>
      <point x="586" y="-131"/>
      <point x="529" y="-158"/>
      <point x="457" y="-158" type="curve" smooth="yes"/>
      <point x="379" y="-158"/>
      <point x="313" y="-85"/>
      <point x="293" y="-1" type="curve"/>
    </contour>
    <component base="O"/>
  </outline>
</glyph>
<glyph name="R" format="1">
  <advance width="702"/>
  <unicode hex="0052"/>
  <outline>
    <contour>
      <point x="343" y="650" type="move" name="top"/>
    </contour>
    <contour>
      <point x="352" y="0" type="move" name="bottom"/>
    </contour>
    <contour>
      <point x="604" y="473" type="curve" smooth="yes"/>
      <point x="604" y="361"/>
      <point x="509" y="296"/>
      <point x="355" y="296" type="curve" smooth="yes"/>
      <point x="235" y="296" type="line"/>
      <point x="231" y="311"/>
      <point x="230" y="340"/>
      <point x="230" y="358" type="curve"/>
      <point x="328" y="358" type="line" smooth="yes"/>
      <point x="390" y="358"/>
      <point x="434" y="393"/>
      <point x="434" y="473" type="curve" smooth="yes"/>
      <point x="434" y="553"/>
      <point x="390" y="587"/>
      <point x="328" y="587" type="curve" smooth="yes"/>
      <point x="245" y="587" type="line"/>
      <point x="271" y="602" type="line"/>
      <point x="271" y="42" type="line"/>
      <point x="267" y="77" type="line"/>
      <point x="291" y="67"/>
      <point x="330" y="59"/>
      <point x="357" y="57" type="curve"/>
      <point x="359" y="40"/>
      <point x="356" y="17"/>
      <point x="353" y="0" type="curve"/>
      <point x="42" y="0" type="line"/>
      <point x="41" y="18"/>
      <point x="42" y="40"/>
      <point x="48" y="57" type="curve"/>
      <point x="83" y="63"/>
      <point x="111" y="73"/>
      <point x="111" y="117" type="curve" smooth="yes"/>
      <point x="111" y="592" type="line"/>
      <point x="113" y="582" type="line"/>
      <point x="96" y="591"/>
      <point x="60" y="594"/>
      <point x="40" y="594" type="curve"/>
      <point x="39" y="610"/>
      <point x="41" y="634"/>
      <point x="45" y="650" type="curve"/>
      <point x="355" y="650" type="line" smooth="yes"/>
      <point x="509" y="650"/>
      <point x="604" y="586"/>
    </contour>
    <contour>
      <point x="347" y="263" type="line" smooth="yes"/>
      <point x="337" y="285"/>
      <point x="326" y="296"/>
      <point x="303" y="296" type="curve"/>
      <point x="410" y="327" type="line"/>
      <point x="469" y="328"/>
      <point x="502" y="294"/>
      <point x="528" y="243" type="curve" smooth="yes"/>
      <point x="586" y="127" type="line" smooth="yes"/>
      <point x="612" y="75"/>
      <point x="633" y="63"/>
      <point x="672" y="63" type="curve"/>
      <point x="672" y="42"/>
      <point x="670" y="20"/>
      <point x="666" y="0" type="curve"/>
      <point x="471" y="0" type="line"/>
    </contour>
  </outline>
</glyph>
<glyph name="S" format="1">
  <advance width="534"/>
  <unicode hex="0053"/>
  <outline>
    <contour>
      <point x="457" y="635" type="curve"/>
      <point x="457" y="580"/>
      <point x="450" y="510"/>
      <point x="443" y="460" type="curve"/>
      <point x="426" y="460"/>
      <point x="408" y="461"/>
      <point x="391" y="463" type="curve"/>
      <point x="377" y="567"/>
      <point x="330" y="594"/>
      <point x="277" y="594" type="curve" smooth="yes"/>
      <point x="227" y="594"/>
      <point x="183" y="569"/>
      <point x="183" y="523" type="curve" smooth="yes"/>
      <point x="183" y="379"/>
      <point x="491" y="406"/>
      <point x="491" y="184" type="curve" smooth="yes"/>
      <point x="491" y="57"/>
      <point x="374" y="-14"/>
      <point x="253" y="-14" type="curve" smooth="yes"/>
      <point x="195" y="-14"/>
      <point x="125" y="0"/>
      <point x="52" y="17" type="curve"/>
      <point x="49" y="81"/>
      <point x="55" y="174"/>
      <point x="60" y="221" type="curve"/>
      <point x="83" y="221"/>
      <point x="102" y="219"/>
      <point x="127" y="215" type="curve"/>
      <point x="124" y="96"/>
      <point x="180" y="60"/>
      <point x="258" y="60" type="curve" smooth="yes"/>
      <point x="315" y="60"/>
      <point x="350" y="86"/>
      <point x="350" y="131" type="curve" smooth="yes"/>
      <point x="350" y="280"/>
      <point x="50" y="252"/>
      <point x="50" y="481" type="curve" smooth="yes"/>
      <point x="50" y="600"/>
      <point x="148" y="664"/>
      <point x="278" y="664" type="curve" smooth="yes"/>
      <point x="347" y="664"/>
      <point x="402" y="651"/>
    </contour>
    <contour>
      <point x="279" y="650" type="move" name="top"/>
    </contour>
    <contour>
      <point x="260" y="0" type="move" name="bottom"/>
    </contour>
  </outline>
</glyph>
<glyph name="T" format="1">
  <advance width="590"/>
  <unicode hex="0054"/>
  <outline>
    <contour>
      <point x="295" y="650" type="move" name="top"/>
    </contour>
    <contour>
      <point x="295" y="0" type="move" name="bottom"/>
    </contour>
    <contour>
      <point x="375" y="42" type="line"/>
      <point x="371" y="69" type="line"/>
      <point x="389" y="60"/>
      <point x="425" y="57"/>
      <point x="444" y="57" type="curve"/>
      <point x="445" y="40"/>
      <point x="443" y="17"/>
      <point x="440" y="0" type="curve"/>
      <point x="148" y="0" type="line"/>
      <point x="147" y="18"/>
      <point x="148" y="40"/>
      <point x="154" y="57" type="curve"/>
      <point x="187" y="63"/>
      <point x="215" y="73"/>
      <point x="215" y="117" type="curve" smooth="yes"/>
      <point x="215" y="631" type="line"/>
      <point x="375" y="631" type="line"/>
    </contour>
    <contour>
      <point x="574" y="650" type="line"/>
      <point x="581" y="598"/>
      <point x="581" y="524"/>
      <point x="578" y="477" type="curve"/>
      <point x="567" y="473"/>
      <point x="536" y="470"/>
      <point x="524" y="472" type="curve"/>
      <point x="516" y="561"/>
      <point x="490" y="587"/>
      <point x="437" y="587" type="curve" smooth="yes"/>
      <point x="153" y="587" type="line" smooth="yes"/>
      <point x="100" y="587"/>
      <point x="73" y="561"/>
      <point x="66" y="472" type="curve"/>
      <point x="54" y="470"/>
      <point x="23" y="473"/>
      <point x="11" y="477" type="curve"/>
      <point x="8" y="524"/>
      <point x="8" y="598"/>
      <point x="16" y="650" type="curve"/>
    </contour>
  </outline>
</glyph>
<glyph name="U" format="1">
  <advance width="729"/>
  <unicode hex="0055"/>
  <outline>
    <contour>
      <point x="643" y="202" type="line"/>
      <point x="643" y="47"/>
      <point x="529" y="-13"/>
      <point x="366" y="-13" type="curve" smooth="yes"/>
      <point x="203" y="-13"/>
      <point x="91" y="47"/>
      <point x="91" y="202" type="curve" smooth="yes"/>
      <point x="91" y="592" type="line"/>
      <point x="93" y="582" type="line"/>
      <point x="76" y="591"/>
      <point x="40" y="594"/>
      <point x="21" y="594" type="curve"/>
      <point x="19" y="610"/>
      <point x="22" y="634"/>
      <point x="25" y="650" type="curve"/>
      <point x="319" y="650" type="line"/>
      <point x="320" y="633"/>
      <point x="319" y="610"/>
      <point x="314" y="594" type="curve"/>
      <point x="279" y="588"/>
      <point x="251" y="578"/>
      <point x="251" y="534" type="curve"/>
      <point x="251" y="202" type="line" smooth="yes"/>
      <point x="251" y="96"/>
      <point x="297" y="62"/>
      <point x="366" y="62" type="curve" smooth="yes"/>
      <point x="435" y="62"/>
      <point x="482" y="96"/>
      <point x="482" y="202" type="curve" smooth="yes"/>
      <point x="482" y="592" type="line"/>
      <point x="485" y="582" type="line"/>
      <point x="468" y="591"/>
      <point x="431" y="594"/>
      <point x="412" y="594" type="curve"/>
      <point x="411" y="610"/>
      <point x="413" y="634"/>
      <point x="416" y="650" type="curve"/>
      <point x="711" y="650" type="line"/>
      <point x="712" y="633"/>
      <point x="711" y="610"/>
      <point x="706" y="594" type="curve"/>
      <point x="670" y="588"/>
      <point x="643" y="578"/>
      <point x="643" y="534" type="curve"/>
    </contour>
    <contour>
      <point x="481" y="0" type="move" name="ogonek"/>
    </contour>
    <contour>
      <point x="367" y="650" type="move" name="top"/>
    </contour>
  </outline>
</glyph>
<glyph name="X" format="1">
  <advance width="643"/>
  <unicode hex="0058"/>
  <outline>
    <contour>
      <point x="349" y="385" type="line"/>
      <point x="510" y="609" type="line"/>
      <point x="505" y="586" type="line"/>
      <point x="483" y="590"/>
      <point x="463" y="593"/>
      <point x="444" y="594" type="curve"/>
      <point x="440" y="611"/>
      <point x="439" y="633"/>
      <point x="440" y="650" type="curve"/>
      <point x="636" y="650" type="line"/>
      <point x="636" y="629"/>
      <point x="633" y="610"/>
      <point x="626" y="594" type="curve"/>
      <point x="596" y="594"/>
      <point x="569" y="583"/>
      <point x="544" y="549" type="curve" smooth="yes"/>
      <point x="388" y="331" type="line"/>
    </contour>
    <contour>
      <point x="301" y="268" type="line"/>
      <point x="139" y="41" type="line"/>
      <point x="144" y="65" type="line"/>
      <point x="165" y="59"/>
      <point x="185" y="58"/>
      <point x="204" y="57" type="curve"/>
      <point x="208" y="39"/>
      <point x="210" y="18"/>
      <point x="208" y="0" type="curve"/>
      <point x="13" y="0" type="line"/>
      <point x="12" y="21"/>
      <point x="15" y="40"/>
      <point x="22" y="57" type="curve"/>
      <point x="52" y="56"/>
      <point x="79" y="69"/>
      <point x="104" y="102" type="curve"/>
      <point x="262" y="320" type="line"/>
    </contour>
    <contour>
      <point x="287" y="595" type="curve"/>
      <point x="246" y="589"/>
      <point x="243" y="572"/>
      <point x="253" y="558" type="curve" smooth="yes"/>
      <point x="600" y="54" type="line"/>
      <point x="583" y="69" type="line"/>
      <point x="602" y="60"/>
      <point x="617" y="58"/>
      <point x="635" y="57" type="curve"/>
      <point x="638" y="44"/>
      <point x="640" y="18"/>
      <point x="638" y="0" type="curve"/>
      <point x="360" y="0" type="line"/>
      <point x="355" y="17"/>
      <point x="356" y="39"/>
      <point x="356" y="57" type="curve"/>
      <point x="397" y="64"/>
      <point x="399" y="78"/>
      <point x="390" y="92" type="curve" smooth="yes"/>
      <point x="40" y="598" type="line"/>
      <point x="58" y="583" type="line"/>
      <point x="39" y="591"/>
      <point x="24" y="594"/>
      <point x="7" y="595" type="curve"/>
      <point x="4" y="613"/>
      <point x="2" y="633"/>
      <point x="5" y="650" type="curve"/>
      <point x="283" y="650" type="line"/>
      <point x="287" y="634"/>
      <point x="287" y="612"/>
    </contour>
  </outline>
</glyph>
<glyph name="Z" format="1">
  <advance width="569"/>
  <unicode hex="005A"/>
  <outline>
    <contour>
      <point x="513" y="650" type="line"/>
      <point x="520" y="632"/>
      <point x="524" y="608"/>
      <point x="523" y="579" type="curve"/>
      <point x="214" y="51" type="line"/>
      <point x="213" y="80" type="line"/>
      <point x="408" y="80" type="line" smooth="yes"/>
      <point x="455" y="80"/>
      <point x="479" y="97"/>
      <point x="492" y="169" type="curve"/>
      <point x="505" y="169"/>
      <point x="519" y="166"/>
      <point x="530" y="160" type="curve"/>
      <point x="530" y="113"/>
      <point x="529" y="53"/>
      <point x="522" y="0" type="curve"/>
      <point x="55" y="0" type="line"/>
      <point x="48" y="19"/>
      <point x="44" y="42"/>
      <point x="45" y="71" type="curve"/>
      <point x="355" y="602" type="line"/>
      <point x="383" y="571" type="line"/>
      <point x="169" y="571" type="line" smooth="yes"/>
      <point x="122" y="571"/>
      <point x="99" y="552"/>
      <point x="84" y="481" type="curve"/>
      <point x="72" y="481"/>
      <point x="58" y="484"/>
      <point x="46" y="489" type="curve"/>
      <point x="46" y="538"/>
      <point x="48" y="598"/>
      <point x="55" y="650" type="curve"/>
    </contour>
    <contour>
      <point x="309" y="650" type="move" name="top"/>
    </contour>
  </outline>
</glyph>
<glyph name="backslash" format="1">
  <advance width="445"/>
  <unicode hex="005C"/>
  <outline>
    <contour>
      <point x="164" y="763" type="line"/>
      <point x="383" y="-107" type="line"/>
      <point x="261" y="-107" type="line"/>
      <point x="40" y="763" type="line"/>
    </contour>
  </outline>
</glyph>
<glyph name="bracketright" format="1">
  <advance width="414"/>
  <unicode hex="005D"/>
  <outline>
    <contour>
      <point x="30" y="-64" type="line"/>
      <point x="30" y="-140" type="line"/>
      <point x="314" y="-140" type="line"/>
      <point x="314" y="789" type="line"/>
      <point x="30" y="789" type="line"/>
      <point x="30" y="713" type="line"/>
      <point x="159" y="713" type="line"/>
      <point x="159" y="-64" type="line"/>
    </contour>
  </outline>
</glyph>
<glyph name="asciicircum" format="1">
  <advance width="552"/>
  <unicode hex="005E"/>
  <outline>
    <contour>
      <point x="40" y="230" type="line"/>
      <point x="149" y="230" type="line"/>
      <point x="276" y="506" type="line"/>
      <point x="403" y="230" type="line"/>
      <point x="512" y="230" type="line"/>
      <point x="322" y="613" type="line"/>
      <point x="230" y="613" type="line"/>
    </contour>
  </outline>
</glyph>
<glyph name="grave" format="1">
  <advance width="222"/>
  <unicode hex="0060"/>
  <outline>
    <contour>
      <point x="171" y="461" type="move" name="_top"/>
    </contour>
    <contour>
      <point x="212" y="536" type="line"/>
      <point x="172" y="512" type="line"/>
      <point x="10" y="651" type="line"/>
      <point x="10" y="672" type="line"/>
      <point x="29" y="691"/>
      <point x="79" y="721"/>
      <point x="116" y="721" type="curve"/>
    </contour>
  </outline>
</glyph>
<glyph name="a" format="1">
  <advance width="510"/>
  <unicode hex="0061"/>
  <outline>
    <contour>
      <point x="458" y="0" type="move" name="ogonek"/>
    </contour>
    <contour>
      <point x="264" y="461" type="move" name="top"/>
    </contour>
    <contour>
      <point x="302" y="221" type="line"/>
      <point x="253" y="206" type="line" smooth="yes"/>
      <point x="212" y="193"/>
      <point x="189" y="166"/>
      <point x="189" y="130" type="curve" smooth="yes"/>
      <point x="189" y="100"/>
      <point x="207" y="81"/>
      <point x="230" y="81" type="curve" smooth="yes"/>
      <point x="256" y="81"/>
      <point x="276" y="92"/>
      <point x="295" y="125" type="curve"/>
      <point x="298" y="61" type="line"/>
      <point x="265" y="13"/>
      <point x="229" y="-13"/>
      <point x="166" y="-13" type="curve" smooth="yes"/>
      <point x="78" y="-13"/>
      <point x="24" y="43"/>
      <point x="24" y="117" type="curve" smooth="yes"/>
      <point x="24" y="191"/>
      <point x="73" y="231"/>
      <point x="164" y="249" type="curve" smooth="yes"/>
      <point x="299" y="276" type="line"/>
    </contour>
    <contour>
      <point x="435" y="305" type="curve" smooth="yes"/>
      <point x="435" y="128" type="line" smooth="yes"/>
      <point x="435" y="90"/>
      <point x="451" y="79"/>
      <point x="466" y="79" type="curve" smooth="yes"/>
      <point x="478" y="79"/>
      <point x="487" y="82"/>
      <point x="503" y="85" type="curve"/>
      <point x="517" y="51" type="line"/>
      <point x="487" y="16"/>
      <point x="457" y="-13"/>
      <point x="402" y="-13" type="curve" smooth="yes"/>
      <point x="343" y="-13"/>
      <point x="281" y="16"/>
      <point x="281" y="72" type="curve"/>
      <point x="281" y="302" type="line" smooth="yes"/>
      <point x="281" y="349"/>
      <point x="254" y="367"/>
      <point x="205" y="367" type="curve" smooth="yes"/>
      <point x="163" y="367"/>
      <point x="129" y="360"/>
      <point x="90" y="347" type="curve"/>
      <point x="58" y="394" type="line"/>
      <point x="118" y="448"/>
      <point x="184" y="474"/>
      <point x="269" y="474" type="curve" smooth="yes"/>
      <point x="382" y="474"/>
      <point x="435" y="411"/>
    </contour>
  </outline>
</glyph>
<glyph name="b" format="1">
  <advance width="564"/>
  <unicode hex="0062"/>
  <outline>
    <contour>
      <point x="162" y="71" type="line"/>
      <point x="138" y="32"/>
      <point x="102" y="3"/>
      <point x="66" y="-10" type="curve"/>
      <point x="43" y="13" type="line"/>
      <point x="56" y="49"/>
      <point x="61" y="87"/>
      <point x="61" y="125" type="curve"/>
      <point x="61" y="643" type="line"/>
      <point x="64" y="625" type="line"/>
      <point x="45" y="628"/>
      <point x="19" y="627"/>
      <point x="-6" y="626" type="curve"/>
      <point x="-5" y="642"/>
      <point x="-2" y="667"/>
      <point x="4" y="682" type="curve"/>
      <point x="69" y="705"/>
      <point x="128" y="717"/>
      <point x="216" y="720" type="curve"/>
      <point x="216" y="57" type="line"/>
    </contour>
    <contour>
      <point x="541" y="235" type="curve" smooth="yes"/>
      <point x="541" y="79"/>
      <point x="417" y="-11"/>
      <point x="273" y="-11" type="curve" smooth="yes"/>
      <point x="210" y="-11"/>
      <point x="155" y="13"/>
      <point x="114" y="56" type="curve"/>
      <point x="187" y="91" type="line"/>
      <point x="213" y="67"/>
      <point x="244" y="57"/>
      <point x="278" y="57" type="curve" smooth="yes"/>
      <point x="327" y="57"/>
      <point x="375" y="105"/>
      <point x="375" y="235" type="curve" smooth="yes"/>
      <point x="375" y="364"/>
      <point x="327" y="389"/>
      <point x="291" y="389" type="curve" smooth="yes"/>
      <point x="259" y="389"/>
      <point x="224" y="362"/>
      <point x="216" y="309" type="curve"/>
      <point x="216" y="411" type="line"/>
      <point x="242" y="449"/>
      <point x="286" y="474"/>
      <point x="340" y="474" type="curve" smooth="yes"/>
      <point x="449" y="474"/>
      <point x="541" y="388"/>
    </contour>
  </outline>
</glyph>
<glyph name="d" format="1">
  <advance width="592"/>
  <unicode hex="0064"/>
  <outline>
    <contour>
      <point x="540" y="650" type="move" name="commaaccent"/>
    </contour>
    <contour>
      <point x="392" y="378" type="line"/>
      <point x="364" y="386"/>
      <point x="329" y="395"/>
      <point x="291" y="395" type="curve" smooth="yes"/>
      <point x="221" y="395"/>
      <point x="189" y="362"/>
      <point x="189" y="235" type="curve" smooth="yes"/>
      <point x="189" y="113"/>
      <point x="228" y="81"/>
      <point x="278" y="81" type="curve" smooth="yes"/>
      <point x="318" y="81"/>
      <point x="345" y="97"/>
      <point x="378" y="131" type="curve"/>
      <point x="382" y="66" type="line"/>
      <point x="341" y="23"/>
      <point x="289" y="-11"/>
      <point x="224" y="-11" type="curve" smooth="yes"/>
      <point x="134" y="-11"/>
      <point x="24" y="59"/>
      <point x="24" y="219" type="curve" smooth="yes"/>
      <point x="24" y="379"/>
      <point x="147" y="474"/>
      <point x="320" y="474" type="curve" smooth="yes"/>
      <point x="348" y="474"/>
      <point x="375" y="471"/>
      <point x="402" y="466" type="curve"/>
    </contour>
    <contour>
      <point x="490" y="128" type="line"/>
      <point x="490" y="90"/>
      <point x="505" y="79"/>
      <point x="520" y="79" type="curve" smooth="yes"/>
      <point x="532" y="79"/>
      <point x="541" y="82"/>
      <point x="557" y="84" type="curve"/>
      <point x="572" y="51" type="line"/>
      <point x="541" y="16"/>
      <point x="512" y="-13"/>
      <point x="456" y="-13" type="curve" smooth="yes"/>
      <point x="397" y="-13"/>
      <point x="351" y="15"/>
      <point x="335" y="63" type="curve" smooth="yes"/>
      <point x="335" y="643" type="line"/>
      <point x="338" y="625" type="line"/>
      <point x="319" y="628"/>
      <point x="293" y="627"/>
      <point x="268" y="626" type="curve"/>
      <point x="269" y="642"/>
      <point x="272" y="667"/>
      <point x="277" y="682" type="curve"/>
      <point x="343" y="705"/>
      <point x="402" y="717"/>
      <point x="490" y="720" type="curve"/>
    </contour>
  </outline>
</glyph>
<glyph name="e" format="1">
  <advance width="499"/>
  <unicode hex="0065"/>
  <outline>
    <contour>
      <point x="470" y="278" type="curve"/>
      <point x="465" y="264"/>
      <point x="458" y="249"/>
      <point x="450" y="237" type="curve"/>
      <point x="155" y="237" type="line"/>
      <point x="155" y="288" type="line"/>
      <point x="270" y="297" type="line"/>
      <point x="413" y="302" type="line"/>
      <point x="314" y="284" type="line"/>
      <point x="316" y="371"/>
      <point x="299" y="400"/>
      <point x="270" y="400" type="curve" smooth="yes"/>
      <point x="231" y="400"/>
      <point x="189" y="361"/>
      <point x="189" y="235" type="curve" smooth="yes"/>
      <point x="189" y="112"/>
      <point x="242" y="80"/>
      <point x="305" y="80" type="curve" smooth="yes"/>
      <point x="348" y="80"/>
      <point x="397" y="92"/>
      <point x="444" y="110" type="curve"/>
      <point x="467" y="74" type="line"/>
      <point x="418" y="24"/>
      <point x="348" y="-13"/>
      <point x="261" y="-13" type="curve" smooth="yes"/>
      <point x="160" y="-13"/>
      <point x="24" y="59"/>
      <point x="24" y="219" type="curve" smooth="yes"/>
      <point x="24" y="378"/>
      <point x="143" y="474"/>
      <point x="282" y="474" type="curve" smooth="yes"/>
      <point x="370" y="474"/>
      <point x="470" y="431"/>
    </contour>
    <contour>
      <point x="346" y="0" type="move" name="ogonek"/>
    </contour>
    <contour>
      <point x="255" y="0" type="move" name="bottom"/>
    </contour>
    <contour>
      <point x="278" y="461" type="move" name="top"/>
    </contour>
  </outline>
</glyph>
<glyph name="f" format="1">
  <advance width="367"/>
  <unicode hex="0066"/>
  <outline>
    <contour>
      <point x="248" y="42" type="line"/>
      <point x="244" y="76" type="line"/>
      <point x="268" y="67"/>
      <point x="307" y="59"/>
      <point x="334" y="57" type="curve"/>
      <point x="335" y="40"/>
      <point x="333" y="17"/>
      <point x="330" y="0" type="curve"/>
      <point x="25" y="0" type="line"/>
      <point x="24" y="18"/>
      <point x="25" y="40"/>
      <point x="30" y="57" type="curve"/>
      <point x="65" y="63"/>
      <point x="93" y="73"/>
      <point x="93" y="116" type="curve" smooth="yes"/>
      <point x="93" y="427" type="line"/>
      <point x="114" y="378" type="line"/>
      <point x="89" y="386"/>
      <point x="63" y="387"/>
      <point x="37" y="387" type="curve"/>
      <point x="36" y="401"/>
      <point x="37" y="425"/>
      <point x="39" y="437" type="curve"/>
      <point x="56" y="446"/>
      <point x="74" y="453"/>
      <point x="93" y="456" type="curve"/>
      <point x="93" y="508" type="line"/>
      <point x="93" y="639"/>
      <point x="177" y="715"/>
      <point x="294" y="715" type="curve" smooth="yes"/>
      <point x="338" y="715"/>
      <point x="390" y="694"/>
      <point x="420" y="670" type="curve"/>
      <point x="418" y="628"/>
      <point x="410" y="593"/>
      <point x="398" y="558" type="curve"/>
      <point x="389" y="558"/>
      <point x="358" y="561"/>
      <point x="347" y="564" type="curve"/>
      <point x="352" y="613"/>
      <point x="334" y="643"/>
      <point x="299" y="643" type="curve" smooth="yes"/>
      <point x="265" y="643"/>
      <point x="248" y="614"/>
      <point x="248" y="565" type="curve"/>
    </contour>
    <contour>
      <point x="214" y="459" type="line"/>
      <point x="254" y="459"/>
      <point x="303" y="461"/>
      <point x="367" y="470" type="curve"/>
      <point x="367" y="439"/>
      <point x="364" y="411"/>
      <point x="356" y="389" type="curve"/>
      <point x="214" y="389" type="line"/>
    </contour>
  </outline>
</glyph>
<glyph name="g" format="1">
  <advance width="536"/>
  <unicode hex="0067"/>
  <outline>
    <contour>
      <point x="268" y="461" type="move" name="top"/>
    </contour>
    <contour>
      <point x="267" y="212" type="curve" smooth="yes"/>
      <point x="294" y="212"/>
      <point x="315" y="234"/>
      <point x="314" y="317" type="curve" smooth="yes"/>
      <point x="312" y="399"/>
      <point x="287" y="421"/>
      <point x="259" y="421" type="curve" smooth="yes"/>
      <point x="231" y="421"/>
      <point x="209" y="399"/>
      <point x="212" y="317" type="curve" smooth="yes"/>
      <point x="215" y="233"/>
      <point x="239" y="212"/>
    </contour>
    <contour>
      <point x="477" y="317" type="curve" smooth="yes"/>
      <point x="477" y="217"/>
      <point x="384" y="158"/>
      <point x="263" y="158" type="curve" smooth="yes"/>
      <point x="142" y="158"/>
      <point x="47" y="217"/>
      <point x="47" y="317" type="curve" smooth="yes"/>
      <point x="47" y="417"/>
      <point x="142" y="474"/>
      <point x="263" y="474" type="curve" smooth="yes"/>
      <point x="384" y="474"/>
      <point x="477" y="417"/>
    </contour>
    <contour>
      <point x="395" y="435" type="line"/>
      <point x="438" y="477"/>
      <point x="504" y="489"/>
      <point x="551" y="489" type="curve"/>
      <point x="554" y="475"/>
      <point x="551" y="433"/>
      <point x="548" y="410" type="curve"/>
      <point x="423" y="395" type="line"/>
    </contour>
    <contour>
      <point x="170" y="0" type="line"/>
      <point x="144" y="-15"/>
      <point x="134" y="-49"/>
      <point x="134" y="-67" type="curve" smooth="yes"/>
      <point x="134" y="-109"/>
      <point x="178" y="-133"/>
      <point x="266" y="-133" type="curve" smooth="yes"/>
      <point x="369" y="-133"/>
      <point x="420" y="-94"/>
      <point x="420" y="-57" type="curve" smooth="yes"/>
      <point x="420" y="-35"/>
      <point x="407" y="-19"/>
      <point x="375" y="-19" type="curve" smooth="yes"/>
      <point x="185" y="-19" type="line" smooth="yes"/>
      <point x="83" y="-19"/>
      <point x="51" y="32"/>
      <point x="51" y="87" type="curve" smooth="yes"/>
      <point x="51" y="143"/>
      <point x="93" y="186"/>
      <point x="151" y="199" type="curve"/>
      <point x="184" y="175" type="line"/>
      <point x="160" y="166"/>
      <point x="146" y="150"/>
      <point x="146" y="132" type="curve" smooth="yes"/>
      <point x="146" y="113"/>
      <point x="162" y="100"/>
      <point x="185" y="100" type="curve" smooth="yes"/>
      <point x="383" y="100" type="line" smooth="yes"/>
      <point x="479" y="100"/>
      <point x="515" y="60"/>
      <point x="515" y="-7" type="curve" smooth="yes"/>
      <point x="515" y="-128"/>
      <point x="393" y="-252"/>
      <point x="217" y="-252" type="curve" smooth="yes"/>
      <point x="105" y="-252"/>
      <point x="21" y="-203"/>
      <point x="21" y="-115" type="curve" smooth="yes"/>
      <point x="21" y="-42"/>
      <point x="79" y="0"/>
      <point x="163" y="28" type="curve"/>
    </contour>
  </outline>
</glyph>
<glyph name="i" format="1">
  <advance width="340"/>
  <unicode hex="0069"/>
  <outline>
    <contour>
      <point x="300" y="0" type="move" name="ogonek"/>
    </contour>
    <contour>
      <point x="257" y="596" type="curve" smooth="yes"/>
      <point x="257" y="645"/>
      <point x="219" y="684"/>
      <point x="170" y="684" type="curve" smooth="yes"/>
      <point x="122" y="684"/>
      <point x="82" y="645"/>
      <point x="82" y="596" type="curve" smooth="yes"/>
      <point x="82" y="548"/>
      <point x="122" y="509"/>
      <point x="170" y="509" type="curve" smooth="yes"/>
      <point x="219" y="509"/>
      <point x="257" y="548"/>
    </contour>
    <contour>
      <point x="248" y="42" type="line"/>
      <point x="244" y="69" type="line"/>
      <point x="262" y="60"/>
      <point x="285" y="57"/>
      <point x="304" y="57" type="curve"/>
      <point x="305" y="40"/>
      <point x="303" y="17"/>
      <point x="300" y="0" type="curve"/>
      <point x="25" y="0" type="line"/>
      <point x="24" y="18"/>
      <point x="25" y="40"/>
      <point x="30" y="57" type="curve"/>
      <point x="65" y="63"/>
      <point x="93" y="73"/>
      <point x="93" y="116" type="curve" smooth="yes"/>
      <point x="93" y="392" type="line"/>
      <point x="95" y="375" type="line"/>
      <point x="77" y="377"/>
      <point x="51" y="377"/>
      <point x="26" y="376" type="curve"/>
      <point x="27" y="391"/>
      <point x="30" y="416"/>
      <point x="35" y="432" type="curve"/>
      <point x="100" y="454"/>
      <point x="160" y="466"/>
      <point x="248" y="470" type="curve"/>
    </contour>
  </outline>
</glyph>
<glyph name="j" format="1">
  <advance width="317"/>
  <unicode hex="006A"/>
  <outline>
    <contour>
      <point x="170" y="509" type="curve" smooth="yes"/>
      <point x="122" y="509"/>
      <point x="82" y="548"/>
      <point x="82" y="596" type="curve" smooth="yes"/>
      <point x="82" y="645"/>
      <point x="122" y="684"/>
      <point x="170" y="684" type="curve" smooth="yes"/>
      <point x="219" y="684"/>
      <point x="257" y="645"/>
      <point x="257" y="596" type="curve" smooth="yes"/>
      <point x="257" y="548"/>
      <point x="219" y="509"/>
    </contour>
    <contour>
      <point x="248" y="34" type="line" smooth="yes"/>
      <point x="248" y="-98"/>
      <point x="167" y="-195"/>
      <point x="32" y="-247" type="curve"/>
      <point x="-4" y="-198" type="line"/>
      <point x="55" y="-154"/>
      <point x="93" y="-111"/>
      <point x="93" y="13" type="curve" smooth="yes"/>
      <point x="93" y="392" type="line"/>
      <point x="95" y="375" type="line"/>
      <point x="77" y="377"/>
      <point x="51" y="377"/>
      <point x="26" y="376" type="curve"/>
      <point x="27" y="391"/>
      <point x="30" y="416"/>
      <point x="35" y="432" type="curve"/>
      <point x="100" y="454"/>
      <point x="160" y="466"/>
      <point x="248" y="470" type="curve"/>
    </contour>
  </outline>
</glyph>
<glyph name="k" format="1">
  <advance width="632"/>
  <unicode hex="006B"/>
  <outline>
    <contour>
      <point x="332" y="0" type="move" name="bottom"/>
    </contour>
    <contour>
      <point x="248" y="42" type="line"/>
      <point x="244" y="69" type="line"/>
      <point x="262" y="60"/>
      <point x="285" y="57"/>
      <point x="304" y="57" type="curve"/>
      <point x="305" y="40"/>
      <point x="303" y="17"/>
      <point x="300" y="0" type="curve"/>
      <point x="25" y="0" type="line"/>
      <point x="24" y="18"/>
      <point x="25" y="40"/>
      <point x="30" y="57" type="curve"/>
      <point x="65" y="63"/>
      <point x="93" y="73"/>
      <point x="93" y="116" type="curve" smooth="yes"/>
      <point x="93" y="643" type="line"/>
      <point x="95" y="625" type="line"/>
      <point x="77" y="628"/>
      <point x="51" y="627"/>
      <point x="26" y="626" type="curve"/>
      <point x="27" y="642"/>
      <point x="30" y="667"/>
      <point x="35" y="682" type="curve"/>
      <point x="100" y="705"/>
      <point x="160" y="717"/>
      <point x="248" y="720" type="curve"/>
    </contour>
    <contour>
      <point x="577" y="407" type="curve"/>
      <point x="534" y="407"/>
      <point x="500" y="396"/>
      <point x="462" y="358" type="curve" smooth="yes"/>
      <point x="224" y="120" type="line"/>
      <point x="157" y="144" type="line"/>
      <point x="413" y="400" type="line"/>
      <point x="426" y="392" type="line"/>
      <point x="395" y="395"/>
      <point x="361" y="404"/>
      <point x="335" y="416" type="curve"/>
      <point x="335" y="434"/>
      <point x="337" y="450"/>
      <point x="341" y="462" type="curve"/>
      <point x="580" y="462" type="line"/>
      <point x="580" y="443"/>
      <point x="580" y="424"/>
    </contour>
    <contour>
      <point x="615" y="57" type="curve"/>
      <point x="617" y="40"/>
      <point x="615" y="20"/>
      <point x="610" y="0" type="curve"/>
      <point x="419" y="0" type="line"/>
      <point x="308" y="173" type="line" smooth="yes"/>
      <point x="297" y="190"/>
      <point x="290" y="197"/>
      <point x="267" y="197" type="curve"/>
      <point x="339" y="299" type="line"/>
      <point x="393" y="299"/>
      <point x="424" y="270"/>
      <point x="451" y="227" type="curve" smooth="yes"/>
      <point x="519" y="119" type="line" smooth="yes"/>
      <point x="551" y="69"/>
      <point x="570" y="59"/>
    </contour>
  </outline>
</glyph>
<glyph name="l" format="1">
  <advance width="340"/>
  <unicode hex="006C"/>
  <outline>
    <contour>
      <point x="180" y="706" type="move" name="top"/>
    </contour>
    <contour>
      <point x="298" y="650" type="move" name="commaaccent"/>
    </contour>
    <contour>
      <point x="170" y="0" type="move" name="bottom"/>
    </contour>
    <contour>
      <point x="248" y="42" type="line"/>
      <point x="244" y="69" type="line"/>
      <point x="262" y="60"/>
      <point x="285" y="57"/>
      <point x="304" y="57" type="curve"/>
      <point x="305" y="40"/>
      <point x="303" y="17"/>
      <point x="300" y="0" type="curve"/>
      <point x="25" y="0" type="line"/>
      <point x="24" y="18"/>
      <point x="25" y="40"/>
      <point x="30" y="57" type="curve"/>
      <point x="65" y="63"/>
      <point x="93" y="73"/>
      <point x="93" y="116" type="curve" smooth="yes"/>
      <point x="93" y="643" type="line"/>
      <point x="95" y="625" type="line"/>
      <point x="77" y="628"/>
      <point x="51" y="627"/>
      <point x="26" y="626" type="curve"/>
      <point x="27" y="642"/>
      <point x="30" y="667"/>
      <point x="35" y="682" type="curve"/>
      <point x="100" y="705"/>
      <point x="160" y="717"/>
      <point x="248" y="720" type="curve"/>
    </contour>
  </outline>
</glyph>
<glyph name="m" format="1">
  <advance width="961"/>
  <unicode hex="006D"/>
  <outline>
    <contour>
      <point x="248" y="305" type="curve" smooth="yes"/>
      <point x="248" y="42" type="line"/>
      <point x="244" y="69" type="line"/>
      <point x="262" y="60"/>
      <point x="285" y="57"/>
      <point x="304" y="57" type="curve"/>
      <point x="305" y="40"/>
      <point x="303" y="17"/>
      <point x="300" y="0" type="curve"/>
      <point x="25" y="0" type="line"/>
      <point x="24" y="18"/>
      <point x="25" y="40"/>
      <point x="30" y="57" type="curve"/>
      <point x="65" y="63"/>
      <point x="93" y="73"/>
      <point x="93" y="116" type="curve" smooth="yes"/>
      <point x="93" y="391" type="line"/>
      <point x="95" y="374" type="line"/>
      <point x="77" y="376"/>
      <point x="51" y="376"/>
      <point x="26" y="375" type="curve"/>
      <point x="27" y="390"/>
      <point x="30" y="415"/>
      <point x="35" y="430" type="curve"/>
      <point x="96" y="452"/>
      <point x="164" y="465"/>
      <point x="234" y="468" type="curve"/>
      <point x="245" y="410"/>
      <point x="248" y="361"/>
    </contour>
    <contour>
      <point x="558" y="316" type="curve" smooth="yes"/>
      <point x="558" y="41" type="line"/>
      <point x="554" y="69" type="line"/>
      <point x="572" y="60"/>
      <point x="595" y="57"/>
      <point x="614" y="57" type="curve"/>
      <point x="616" y="40"/>
      <point x="614" y="17"/>
      <point x="610" y="0" type="curve"/>
      <point x="349" y="0" type="line"/>
      <point x="347" y="18"/>
      <point x="349" y="40"/>
      <point x="353" y="57" type="curve"/>
      <point x="384" y="63"/>
      <point x="403" y="73"/>
      <point x="403" y="116" type="curve" smooth="yes"/>
      <point x="403" y="296" type="line" smooth="yes"/>
      <point x="403" y="350"/>
      <point x="375" y="374"/>
      <point x="338" y="374" type="curve" smooth="yes"/>
      <point x="303" y="374"/>
      <point x="270" y="345"/>
      <point x="248" y="284" type="curve"/>
      <point x="228" y="336" type="line"/>
      <point x="258" y="434"/>
      <point x="326" y="474"/>
      <point x="403" y="474" type="curve" smooth="yes"/>
      <point x="494" y="474"/>
      <point x="558" y="417"/>
    </contour>
    <contour>
      <point x="869" y="316" type="curve" smooth="yes"/>
      <point x="869" y="41" type="line"/>
      <point x="865" y="69" type="line"/>
      <point x="897" y="60"/>
      <point x="913" y="57"/>
      <point x="935" y="57" type="curve"/>
      <point x="936" y="40"/>
      <point x="934" y="17"/>
      <point x="930" y="0" type="curve"/>
      <point x="659" y="0" type="line"/>
      <point x="657" y="18"/>
      <point x="659" y="40"/>
      <point x="663" y="57" type="curve"/>
      <point x="694" y="63"/>
      <point x="713" y="73"/>
      <point x="713" y="116" type="curve" smooth="yes"/>
      <point x="713" y="296" type="line" smooth="yes"/>
      <point x="713" y="350"/>
      <point x="686" y="374"/>
      <point x="649" y="374" type="curve" smooth="yes"/>
      <point x="614" y="374"/>
      <point x="581" y="345"/>
      <point x="558" y="284" type="curve"/>
      <point x="538" y="336" type="line"/>
      <point x="568" y="434"/>
      <point x="637" y="474"/>
      <point x="713" y="474" type="curve" smooth="yes"/>
      <point x="804" y="474"/>
      <point x="869" y="417"/>
    </contour>
  </outline>
</glyph>
<glyph name="n" format="1">
  <advance width="640"/>
  <unicode hex="006E"/>
  <outline>
    <contour>
      <point x="330" y="461" type="move" name="top"/>
    </contour>
    <contour>
      <point x="320" y="0" type="move" name="bottom"/>
    </contour>
    <contour>
      <point x="248" y="305" type="curve" smooth="yes"/>
      <point x="248" y="42" type="line"/>
      <point x="244" y="69" type="line"/>
      <point x="262" y="60"/>
      <point x="285" y="57"/>
      <point x="304" y="57" type="curve"/>
      <point x="305" y="40"/>
      <point x="303" y="17"/>
      <point x="300" y="0" type="curve"/>
      <point x="25" y="0" type="line"/>
      <point x="24" y="18"/>
      <point x="25" y="40"/>
      <point x="30" y="57" type="curve"/>
      <point x="65" y="63"/>
      <point x="93" y="73"/>
      <point x="93" y="116" type="curve" smooth="yes"/>
      <point x="93" y="391" type="line"/>
      <point x="95" y="374" type="line"/>
      <point x="77" y="376"/>
      <point x="51" y="376"/>
      <point x="26" y="375" type="curve"/>
      <point x="27" y="390"/>
      <point x="30" y="415"/>
      <point x="35" y="430" type="curve"/>
      <point x="96" y="452"/>
      <point x="164" y="465"/>
      <point x="234" y="469" type="curve"/>
      <point x="245" y="410"/>
      <point x="248" y="361"/>
    </contour>
    <contour>
      <point x="558" y="316" type="curve" smooth="yes"/>
      <point x="558" y="41" type="line"/>
      <point x="554" y="69" type="line"/>
      <point x="587" y="60"/>
      <point x="602" y="57"/>
      <point x="625" y="57" type="curve"/>
      <point x="626" y="40"/>
      <point x="624" y="17"/>
      <point x="620" y="0" type="curve"/>
      <point x="349" y="0" type="line"/>
      <point x="347" y="18"/>
      <point x="349" y="40"/>
      <point x="353" y="57" type="curve"/>
      <point x="384" y="63"/>
      <point x="403" y="73"/>
      <point x="403" y="116" type="curve" smooth="yes"/>
      <point x="403" y="296" type="line" smooth="yes"/>
      <point x="403" y="351"/>
      <point x="375" y="374"/>
      <point x="338" y="374" type="curve" smooth="yes"/>
      <point x="303" y="374"/>
      <point x="270" y="345"/>
      <point x="248" y="284" type="curve"/>
      <point x="228" y="336" type="line"/>
      <point x="258" y="434"/>
      <point x="326" y="474"/>
      <point x="403" y="474" type="curve" smooth="yes"/>
      <point x="494" y="474"/>
      <point x="558" y="417"/>
    </contour>
  </outline>
</glyph>
<glyph name="o" format="1">
  <advance width="551"/>
  <unicode hex="006F"/>
  <outline>
    <contour>
      <point x="527" y="231" type="curve" smooth="yes"/>
      <point x="527" y="65"/>
      <point x="416" y="-11"/>
      <point x="275" y="-11" type="curve" smooth="yes"/>
      <point x="134" y="-11"/>
      <point x="24" y="65"/>
      <point x="24" y="231" type="curve" smooth="yes"/>
      <point x="24" y="398"/>
      <point x="135" y="474"/>
      <point x="276" y="474" type="curve" smooth="yes"/>
      <point x="416" y="474"/>
      <point x="527" y="398"/>
    </contour>
    <contour>
      <point x="189" y="231" type="curve" smooth="yes"/>
      <point x="194" y="111"/>
      <point x="224" y="58"/>
      <point x="282" y="58" type="curve" smooth="yes"/>
      <point x="340" y="58"/>
      <point x="365" y="111"/>
      <point x="361" y="231" type="curve" smooth="yes"/>
      <point x="357" y="351"/>
      <point x="327" y="405"/>
      <point x="270" y="405" type="curve" smooth="yes"/>
      <point x="212" y="405"/>
      <point x="185" y="351"/>
    </contour>
    <contour>
      <point x="276" y="461" type="move" name="top"/>
    </contour>
  </outline>
</glyph>
<glyph name="p" format="1">
  <advance width="592"/>
  <unicode hex="0070"/>
  <outline>
    <contour>
      <point x="244" y="305" type="curve" smooth="yes"/>
      <point x="244" y="-197" type="line"/>
      <point x="240" y="-159" type="line"/>
      <point x="266" y="-173"/>
      <point x="305" y="-181"/>
      <point x="333" y="-182" type="curve"/>
      <point x="334" y="-199"/>
      <point x="332" y="-222"/>
      <point x="329" y="-239" type="curve"/>
      <point x="20" y="-239" type="line"/>
      <point x="19" y="-221"/>
      <point x="20" y="-199"/>
      <point x="26" y="-182" type="curve"/>
      <point x="61" y="-176"/>
      <point x="88" y="-166"/>
      <point x="88" y="-123" type="curve" smooth="yes"/>
      <point x="88" y="391" type="line"/>
      <point x="91" y="374" type="line"/>
      <point x="72" y="376"/>
      <point x="46" y="376"/>
      <point x="22" y="375" type="curve"/>
      <point x="23" y="390"/>
      <point x="26" y="415"/>
      <point x="31" y="430" type="curve"/>
      <point x="92" y="452"/>
      <point x="157" y="465"/>
      <point x="226" y="468" type="curve"/>
      <point x="240" y="410"/>
      <point x="244" y="361"/>
    </contour>
    <contour>
      <point x="568" y="235" type="curve" smooth="yes"/>
      <point x="568" y="82"/>
      <point x="439" y="-11"/>
      <point x="294" y="-11" type="curve" smooth="yes"/>
      <point x="241" y="-11"/>
      <point x="196" y="11"/>
      <point x="141" y="57" type="curve"/>
      <point x="214" y="91" type="line"/>
      <point x="241" y="67"/>
      <point x="272" y="56"/>
      <point x="306" y="56" type="curve" smooth="yes"/>
      <point x="355" y="56"/>
      <point x="403" y="105"/>
      <point x="403" y="235" type="curve" smooth="yes"/>
      <point x="403" y="364"/>
      <point x="355" y="389"/>
      <point x="319" y="389" type="curve" smooth="yes"/>
      <point x="286" y="389"/>
      <point x="252" y="351"/>
      <point x="244" y="298" type="curve"/>
      <point x="235" y="398" type="line"/>
      <point x="269" y="453"/>
      <point x="317" y="474"/>
      <point x="367" y="474" type="curve" smooth="yes"/>
      <point x="475" y="474"/>
      <point x="568" y="388"/>
    </contour>
  </outline>
</glyph>
<glyph name="q" format="1">
  <advance width="563"/>
  <unicode hex="0071"/>
  <outline>
    <contour>
      <point x="366" y="352" type="line"/>
      <point x="346" y="376"/>
      <point x="324" y="395"/>
      <point x="285" y="395" type="curve" smooth="yes"/>
      <point x="238" y="395"/>
      <point x="189" y="362"/>
      <point x="189" y="235" type="curve" smooth="yes"/>
      <point x="189" y="113"/>
      <point x="228" y="81"/>
      <point x="278" y="81" type="curve" smooth="yes"/>
      <point x="318" y="81"/>
      <point x="345" y="97"/>
      <point x="378" y="131" type="curve"/>
      <point x="382" y="66" type="line"/>
      <point x="341" y="23"/>
      <point x="289" y="-11"/>
      <point x="224" y="-11" type="curve" smooth="yes"/>
      <point x="134" y="-11"/>
      <point x="24" y="59"/>
      <point x="24" y="219" type="curve" smooth="yes"/>
      <point x="24" y="379"/>
      <point x="147" y="474"/>
      <point x="303" y="474" type="curve" smooth="yes"/>
      <point x="363" y="474"/>
      <point x="418" y="449"/>
      <point x="463" y="408" type="curve"/>
    </contour>
    <contour>
      <point x="335" y="386" type="line"/>
      <point x="374" y="384" type="line"/>
      <point x="395" y="422"/>
      <point x="435" y="458"/>
      <point x="463" y="478" type="curve"/>
      <point x="490" y="478" type="line"/>
      <point x="490" y="-197" type="line"/>
      <point x="466" y="-162" type="line"/>
      <point x="490" y="-172"/>
      <point x="530" y="-180"/>
      <point x="558" y="-182" type="curve"/>
      <point x="559" y="-199"/>
      <point x="557" y="-222"/>
      <point x="554" y="-239" type="curve"/>
      <point x="246" y="-239" type="line"/>
      <point x="245" y="-221"/>
      <point x="246" y="-199"/>
      <point x="251" y="-182" type="curve"/>
      <point x="315" y="-176"/>
      <point x="335" y="-167"/>
      <point x="335" y="-123" type="curve" smooth="yes"/>
    </contour>
  </outline>
</glyph>
<glyph name="r" format="1">
  <advance width="417"/>
  <unicode hex="0072"/>
  <outline>
    <contour>
      <point x="417" y="331" type="curve"/>
      <point x="332" y="331"/>
      <point x="261" y="311"/>
      <point x="248" y="227" type="curve"/>
      <point x="227" y="227" type="line"/>
      <point x="232" y="352"/>
      <point x="310" y="474"/>
      <point x="423" y="474" type="curve"/>
      <point x="432" y="445"/>
      <point x="429" y="382"/>
    </contour>
    <contour>
      <point x="93" y="391" type="line"/>
      <point x="95" y="374" type="line"/>
      <point x="77" y="376"/>
      <point x="51" y="376"/>
      <point x="26" y="375" type="curve"/>
      <point x="27" y="390"/>
      <point x="30" y="415"/>
      <point x="35" y="430" type="curve"/>
      <point x="96" y="452"/>
      <point x="164" y="465"/>
      <point x="234" y="468" type="curve"/>
      <point x="245" y="410"/>
      <point x="248" y="361"/>
      <point x="248" y="305" type="curve"/>
      <point x="248" y="42" type="line"/>
      <point x="244" y="76" type="line"/>
      <point x="267" y="67"/>
      <point x="306" y="59"/>
      <point x="334" y="57" type="curve"/>
      <point x="335" y="40"/>
      <point x="333" y="17"/>
      <point x="330" y="0" type="curve"/>
      <point x="25" y="0" type="line"/>
      <point x="24" y="18"/>
      <point x="25" y="40"/>
      <point x="30" y="57" type="curve"/>
      <point x="65" y="63"/>
      <point x="93" y="73"/>
      <point x="93" y="116" type="curve"/>
    </contour>
    <contour>
      <point x="232" y="462" type="move" name="top"/>
    </contour>
    <contour>
      <point x="164" y="0" type="move" name="bottom"/>
    </contour>
  </outline>
</glyph>
<glyph name="w" format="1">
  <advance width="767"/>
  <unicode hex="0077"/>
  <outline>
    <contour>
      <point x="273" y="407" type="curve"/>
      <point x="225" y="403"/>
      <point x="223" y="389"/>
      <point x="233" y="357" type="curve" smooth="yes"/>
      <point x="279" y="213" type="line" smooth="yes"/>
      <point x="284" y="199"/>
      <point x="287" y="185"/>
      <point x="289" y="171" type="curve"/>
      <point x="292" y="171" type="line"/>
      <point x="401" y="441" type="line"/>
      <point x="464" y="441" type="line"/>
      <point x="549" y="213" type="line" smooth="yes"/>
      <point x="555" y="198"/>
      <point x="557" y="186"/>
      <point x="559" y="172" type="curve"/>
      <point x="561" y="172" type="line"/>
      <point x="626" y="362" type="line" smooth="yes"/>
      <point x="637" y="394"/>
      <point x="628" y="407"/>
      <point x="587" y="407" type="curve"/>
      <point x="586" y="423"/>
      <point x="588" y="448"/>
      <point x="592" y="461" type="curve"/>
      <point x="761" y="461" type="line"/>
      <point x="764" y="448"/>
      <point x="761" y="424"/>
      <point x="755" y="407" type="curve"/>
      <point x="739" y="406"/>
      <point x="718" y="403"/>
      <point x="696" y="396" type="curve"/>
      <point x="731" y="434" type="line"/>
      <point x="554" y="-6" type="line"/>
      <point x="491" y="-6" type="line"/>
      <point x="371" y="284" type="line"/>
      <point x="413" y="306" type="line"/>
      <point x="271" y="-6" type="line"/>
      <point x="208" y="-6" type="line"/>
      <point x="39" y="445" type="line"/>
      <point x="71" y="392" type="line"/>
      <point x="51" y="403"/>
      <point x="35" y="407"/>
      <point x="17" y="407" type="curve"/>
      <point x="14" y="422"/>
      <point x="12" y="446"/>
      <point x="15" y="461" type="curve"/>
      <point x="268" y="461" type="line"/>
      <point x="272" y="446"/>
      <point x="273" y="421"/>
    </contour>
  </outline>
</glyph>
<glyph name="y" format="1">
  <advance width="542"/>
  <unicode hex="0079"/>
  <outline>
    <contour>
      <point x="311" y="462" type="move" name="top"/>
    </contour>
    <contour>
      <point x="270" y="406" type="curve"/>
      <point x="245" y="406"/>
      <point x="207" y="406"/>
      <point x="188" y="389" type="curve"/>
      <point x="201" y="446" type="line"/>
      <point x="319" y="34" type="line"/>
      <point x="292" y="43" type="line"/>
      <point x="295" y="82"/>
      <point x="306" y="127"/>
      <point x="322" y="168" type="curve" smooth="yes"/>
      <point x="393" y="341" type="line" smooth="yes"/>
      <point x="410" y="384"/>
      <point x="398" y="399"/>
      <point x="357" y="406" type="curve"/>
      <point x="353" y="423"/>
      <point x="351" y="445"/>
      <point x="353" y="461" type="curve"/>
      <point x="556" y="461" type="line"/>
      <point x="557" y="441"/>
      <point x="552" y="422"/>
      <point x="544" y="406" type="curve"/>
      <point x="517" y="404"/>
      <point x="489" y="396"/>
      <point x="459" y="378" type="curve"/>
      <point x="518" y="437" type="line"/>
      <point x="272" y="-94" type="line" smooth="yes"/>
      <point x="234" y="-177"/>
      <point x="187" y="-239"/>
      <point x="116" y="-239" type="curve" smooth="yes"/>
      <point x="94" y="-239" type="line"/>
      <point x="82" y="-197"/>
      <point x="77" y="-148"/>
      <point x="82" y="-99" type="curve"/>
      <point x="115" y="-99" type="line" smooth="yes"/>
      <point x="187" y="-99"/>
      <point x="216" y="-78"/>
      <point x="246" y="-14" type="curve" smooth="yes"/>
      <point x="253" y="3" type="line"/>
      <point x="242" y="-81" type="line"/>
      <point x="64" y="346" type="line" smooth="yes"/>
      <point x="50" y="381"/>
      <point x="38" y="397"/>
      <point x="-5" y="406" type="curve"/>
      <point x="-9" y="423"/>
      <point x="-11" y="445"/>
      <point x="-9" y="461" type="curve"/>
      <point x="266" y="461" type="line"/>
      <point x="270" y="446"/>
      <point x="270" y="423"/>
    </contour>
  </outline>
</glyph>
<glyph name="z" format="1">
  <advance width="481"/>
  <unicode hex="007A"/>
  <outline>
    <contour>
      <point x="194" y="51" type="line"/>
      <point x="161" y="62" type="line"/>
      <point x="303" y="62" type="line" smooth="yes"/>
      <point x="351" y="62"/>
      <point x="374" y="80"/>
      <point x="389" y="151" type="curve"/>
      <point x="400" y="151"/>
      <point x="414" y="148"/>
      <point x="426" y="143" type="curve"/>
      <point x="427" y="95"/>
      <point x="424" y="53"/>
      <point x="417" y="0" type="curve"/>
      <point x="39" y="0" type="line"/>
      <point x="32" y="22"/>
      <point x="29" y="59"/>
      <point x="34" y="87" type="curve"/>
      <point x="272" y="414" type="line"/>
      <point x="299" y="400" type="line"/>
      <point x="164" y="400" type="line" smooth="yes"/>
      <point x="118" y="400"/>
      <point x="94" y="382"/>
      <point x="80" y="311" type="curve"/>
      <point x="68" y="311"/>
      <point x="54" y="313"/>
      <point x="42" y="320" type="curve"/>
      <point x="42" y="367"/>
      <point x="44" y="410"/>
      <point x="51" y="461" type="curve"/>
      <point x="423" y="461" type="line"/>
      <point x="429" y="440"/>
      <point x="432" y="403"/>
      <point x="427" y="375" type="curve" smooth="yes"/>
    </contour>
    <contour>
      <point x="258" y="461" type="move" name="top"/>
    </contour>
  </outline>
</glyph>
<glyph name="braceleft" format="1">
  <advance width="483"/>
  <unicode hex="007B"/>
  <outline>
    <contour>
      <point x="80" y="285" type="line"/>
      <point x="151" y="278"/>
      <point x="180" y="242"/>
      <point x="180" y="183" type="curve" smooth="yes"/>
      <point x="180" y="119"/>
      <point x="153" y="73"/>
      <point x="153" y="11" type="curve" smooth="yes"/>
      <point x="153" y="-77"/>
      <point x="232" y="-165"/>
      <point x="443" y="-152" type="curve"/>
      <point x="443" y="-102" type="line"/>
      <point x="359" y="-95"/>
      <point x="304" y="-59"/>
      <point x="304" y="11" type="curve" smooth="yes"/>
      <point x="304" y="69"/>
      <point x="330" y="122"/>
      <point x="330" y="186" type="curve" smooth="yes"/>
      <point x="330" y="265"/>
      <point x="298" y="305"/>
      <point x="206" y="325" type="curve"/>
      <point x="298" y="345"/>
      <point x="330" y="385"/>
      <point x="330" y="464" type="curve" smooth="yes"/>
      <point x="330" y="528"/>
      <point x="304" y="581"/>
      <point x="304" y="639" type="curve" smooth="yes"/>
      <point x="304" y="709"/>
      <point x="359" y="745"/>
      <point x="443" y="752" type="curve"/>
      <point x="443" y="802" type="line"/>
      <point x="232" y="815"/>
      <point x="153" y="727"/>
      <point x="153" y="639" type="curve" smooth="yes"/>
      <point x="153" y="577"/>
      <point x="180" y="531"/>
      <point x="180" y="467" type="curve" smooth="yes"/>
      <point x="180" y="408"/>
      <point x="151" y="372"/>
      <point x="80" y="365" type="curve"/>
    </contour>
  </outline>
</glyph>
<glyph name="asciitilde" format="1">
  <advance width="698"/>
  <unicode hex="007E"/>
  <outline>
    <contour>
      <point x="499" y="338" type="curve" smooth="yes"/>
      <point x="554" y="338"/>
      <point x="584" y="365"/>
      <point x="596" y="420" type="curve"/>
      <point x="648" y="420" type="line"/>
      <point x="639" y="273"/>
      <point x="565" y="206"/>
      <point x="470" y="206" type="curve" smooth="yes"/>
      <point x="360" y="206"/>
      <point x="288" y="293"/>
      <point x="199" y="293" type="curve" smooth="yes"/>
      <point x="144" y="293"/>
      <point x="114" y="266"/>
      <point x="102" y="211" type="curve"/>
      <point x="50" y="211" type="line"/>
      <point x="59" y="358"/>
      <point x="133" y="425"/>
      <point x="228" y="425" type="curve" smooth="yes"/>
      <point x="338" y="425"/>
      <point x="410" y="338"/>
    </contour>
  </outline>
</glyph>
<glyph name="cent" format="1">
  <advance width="448"/>
  <unicode hex="00A2"/>
  <outline>
    <contour>
      <point x="235" y="554" type="line"/>
      <point x="302" y="554" type="line"/>
      <point x="302" y="437" type="line"/>
      <point x="235" y="437" type="line"/>
    </contour>
    <contour>
      <point x="235" y="39" type="line"/>
      <point x="302" y="39" type="line"/>
      <point x="302" y="-93" type="line"/>
      <point x="235" y="-93" type="line"/>
    </contour>
    <contour>
      <point x="417" y="446" type="curve"/>
      <point x="416" y="397"/>
      <point x="407" y="338"/>
      <point x="401" y="301" type="curve"/>
      <point x="390" y="301"/>
      <point x="375" y="303"/>
      <point x="364" y="306" type="curve"/>
      <point x="357" y="365"/>
      <point x="325" y="400"/>
      <point x="283" y="400" type="curve" smooth="yes"/>
      <point x="232" y="400"/>
      <point x="189" y="362"/>
      <point x="189" y="235" type="curve" smooth="yes"/>
      <point x="189" y="113"/>
      <point x="239" y="81"/>
      <point x="290" y="81" type="curve" smooth="yes"/>
      <point x="327" y="81"/>
      <point x="377" y="94"/>
      <point x="418" y="110" type="curve"/>
      <point x="441" y="74" type="line"/>
      <point x="392" y="23"/>
      <point x="318" y="-13"/>
      <point x="244" y="-13" type="curve" smooth="yes"/>
      <point x="144" y="-13"/>
      <point x="24" y="59"/>
      <point x="24" y="219" type="curve" smooth="yes"/>
      <point x="24" y="379"/>
      <point x="147" y="474"/>
      <point x="286" y="474" type="curve" smooth="yes"/>
      <point x="333" y="474"/>
      <point x="375" y="464"/>
    </contour>
  </outline>
</glyph>
<glyph name="section" format="1">
  <advance width="653"/>
  <unicode hex="00A7"/>
  <outline>
    <contour>
      <point x="296" y="342" type="line"/>
      <point x="233" y="333"/>
      <point x="193" y="297"/>
      <point x="193" y="236" type="curve" smooth="yes"/>
      <point x="193" y="181"/>
      <point x="247" y="152"/>
      <point x="311" y="123" type="curve" smooth="yes"/>
      <point x="398" y="83"/>
      <point x="501" y="43"/>
      <point x="501" y="-62" type="curve" smooth="yes"/>
      <point x="501" y="-178"/>
      <point x="413" y="-242"/>
      <point x="292" y="-242" type="curve" smooth="yes"/>
      <point x="244" y="-242"/>
      <point x="201" y="-235"/>
      <point x="152" y="-219" type="curve"/>
      <point x="150" y="-178"/>
      <point x="152" y="-128"/>
      <point x="160" y="-89" type="curve"/>
      <point x="183" y="-89"/>
      <point x="192" y="-90"/>
      <point x="217" y="-94" type="curve"/>
      <point x="214" y="-149"/>
      <point x="252" y="-175"/>
      <point x="292" y="-175" type="curve" smooth="yes"/>
      <point x="332" y="-175"/>
      <point x="360" y="-151"/>
      <point x="360" y="-110" type="curve" smooth="yes"/>
      <point x="360" y="-52"/>
      <point x="284" y="-27"/>
      <point x="209" y="10" type="curve" smooth="yes"/>
      <point x="134" y="46"/>
      <point x="60" y="94"/>
      <point x="60" y="198" type="curve" smooth="yes"/>
      <point x="60" y="298"/>
      <point x="144" y="354"/>
      <point x="232" y="375" type="curve"/>
    </contour>
    <contour>
      <point x="493" y="640" type="curve"/>
      <point x="495" y="599"/>
      <point x="493" y="549"/>
      <point x="485" y="510" type="curve"/>
      <point x="462" y="510"/>
      <point x="453" y="511"/>
      <point x="428" y="515" type="curve"/>
      <point x="431" y="570"/>
      <point x="395" y="596"/>
      <point x="358" y="596" type="curve" smooth="yes"/>
      <point x="318" y="596"/>
      <point x="293" y="572"/>
      <point x="293" y="531" type="curve" smooth="yes"/>
      <point x="293" y="473"/>
      <point x="371" y="448"/>
      <point x="447" y="410" type="curve" smooth="yes"/>
      <point x="520" y="374"/>
      <point x="593" y="325"/>
      <point x="593" y="223" type="curve" smooth="yes"/>
      <point x="593" y="123"/>
      <point x="509" y="67"/>
      <point x="421" y="46" type="curve"/>
      <point x="357" y="79" type="line"/>
      <point x="420" y="88"/>
      <point x="460" y="124"/>
      <point x="460" y="185" type="curve" smooth="yes"/>
      <point x="460" y="242"/>
      <point x="401" y="272"/>
      <point x="335" y="302" type="curve" smooth="yes"/>
      <point x="249" y="341"/>
      <point x="152" y="381"/>
      <point x="152" y="483" type="curve" smooth="yes"/>
      <point x="152" y="589"/>
      <point x="242" y="663"/>
      <point x="358" y="663" type="curve" smooth="yes"/>
      <point x="407" y="663"/>
      <point x="447" y="656"/>
    </contour>
  </outline>
</glyph>
<glyph name="dieresis" format="1">
  <advance width="327"/>
  <unicode hex="00A8"/>
  <outline>
    <contour>
      <point x="138" y="581" type="curve" smooth="yes"/>
      <point x="138" y="545"/>
      <point x="108" y="514"/>
      <point x="73" y="514" type="curve" smooth="yes"/>
      <point x="40" y="514"/>
      <point x="10" y="545"/>
      <point x="10" y="581" type="curve" smooth="yes"/>
      <point x="10" y="618"/>
      <point x="40" y="649"/>
      <point x="73" y="649" type="curve" smooth="yes"/>
      <point x="108" y="649"/>
      <point x="138" y="618"/>
    </contour>
    <contour>
      <point x="317" y="581" type="curve" smooth="yes"/>
      <point x="317" y="545"/>
      <point x="288" y="514"/>
      <point x="253" y="514" type="curve" smooth="yes"/>
      <point x="219" y="514"/>
      <point x="190" y="545"/>
      <point x="190" y="581" type="curve" smooth="yes"/>
      <point x="190" y="618"/>
      <point x="219" y="649"/>
      <point x="253" y="649" type="curve" smooth="yes"/>
      <point x="288" y="649"/>
      <point x="317" y="618"/>
    </contour>
    <contour>
      <point x="163" y="461" type="move" name="_top"/>
    </contour>
  </outline>
</glyph>
<glyph name="copyright" format="1">
  <advance width="820"/>
  <unicode hex="00A9"/>
  <outline>
    <contour>
      <point x="124" y="323" type="curve" smooth="yes"/>
      <point x="124" y="128"/>
      <point x="252" y="28"/>
      <point x="411" y="28" type="curve" smooth="yes"/>
      <point x="570" y="28"/>
      <point x="696" y="128"/>
      <point x="696" y="323" type="curve" smooth="yes"/>
      <point x="696" y="518"/>
      <point x="570" y="618"/>
      <point x="411" y="618" type="curve" smooth="yes"/>
      <point x="252" y="618"/>
      <point x="124" y="518"/>
    </contour>
    <contour>
      <point x="760" y="323" type="curve" smooth="yes"/>
      <point x="760" y="105"/>
      <point x="606" y="-27"/>
      <point x="411" y="-27" type="curve" smooth="yes"/>
      <point x="215" y="-27"/>
      <point x="60" y="105"/>
      <point x="60" y="323" type="curve" smooth="yes"/>
      <point x="60" y="541"/>
      <point x="215" y="673"/>
      <point x="411" y="673" type="curve" smooth="yes"/>
      <point x="606" y="673"/>
      <point x="760" y="541"/>
    </contour>
    <contour>
      <point x="555" y="505" type="curve"/>
      <point x="551" y="460"/>
      <point x="541" y="417"/>
      <point x="527" y="376" type="curve"/>
      <point x="512" y="373"/>
      <point x="498" y="373"/>
      <point x="483" y="376" type="curve"/>
      <point x="481" y="427"/>
      <point x="477" y="457"/>
      <point x="427" y="457" type="curve" smooth="yes"/>
      <point x="386" y="457"/>
      <point x="342" y="401"/>
      <point x="342" y="329" type="curve" smooth="yes"/>
      <point x="342" y="235"/>
      <point x="389" y="200"/>
      <point x="448" y="200" type="curve" smooth="yes"/>
      <point x="480" y="200"/>
      <point x="503" y="210"/>
      <point x="530" y="229" type="curve"/>
      <point x="567" y="189" type="line"/>
      <point x="533" y="148"/>
      <point x="481" y="114"/>
      <point x="414" y="114" type="curve" smooth="yes"/>
      <point x="314" y="114"/>
      <point x="211" y="185"/>
      <point x="211" y="319" type="curve" smooth="yes"/>
      <point x="211" y="451"/>
      <point x="314" y="532"/>
      <point x="436" y="532" type="curve" smooth="yes"/>
      <point x="481" y="532"/>
      <point x="527" y="518"/>
    </contour>
    <contour>
      <point x="404" y="598" type="move" name="top"/>
    </contour>
    <contour>
      <point x="362" y="0" type="move" name="bottom"/>
    </contour>
  </outline>
</glyph>
<glyph name="ordfeminine" format="1">
  <advance width="357"/>
  <unicode hex="00AA"/>
  <outline>
    <contour>
      <point x="211" y="481" type="line"/>
      <point x="163" y="488"/>
      <point x="132" y="460"/>
      <point x="132" y="426" type="curve" smooth="yes"/>
      <point x="132" y="400"/>
      <point x="145" y="386"/>
      <point x="161" y="386" type="curve" smooth="yes"/>
      <point x="179" y="386"/>
      <point x="193" y="393"/>
      <point x="207" y="417" type="curve"/>
      <point x="209" y="372" type="line"/>
      <point x="186" y="338"/>
      <point x="160" y="320"/>
      <point x="110" y="320" type="curve" smooth="yes"/>
      <point x="55" y="320"/>
      <point x="17" y="355"/>
      <point x="17" y="411" type="curve" smooth="yes"/>
      <point x="17" y="493"/>
      <point x="113" y="533"/>
      <point x="209" y="522" type="curve"/>
    </contour>
    <contour>
      <point x="305" y="543" type="curve" smooth="yes"/>
      <point x="305" y="419" type="line" smooth="yes"/>
      <point x="305" y="392"/>
      <point x="316" y="384"/>
      <point x="326" y="384" type="curve" smooth="yes"/>
      <point x="335" y="384"/>
      <point x="341" y="386"/>
      <point x="352" y="389" type="curve"/>
      <point x="362" y="365" type="line"/>
      <point x="341" y="340"/>
      <point x="320" y="320"/>
      <point x="281" y="320" type="curve" smooth="yes"/>
      <point x="240" y="320"/>
      <point x="197" y="340"/>
      <point x="197" y="379" type="curve"/>
      <point x="197" y="540" type="line" smooth="yes"/>
      <point x="197" y="573"/>
      <point x="178" y="586"/>
      <point x="144" y="586" type="curve" smooth="yes"/>
      <point x="114" y="586"/>
      <point x="90" y="581"/>
      <point x="63" y="572" type="curve"/>
      <point x="41" y="605" type="line"/>
      <point x="83" y="643"/>
      <point x="129" y="661"/>
      <point x="188" y="661" type="curve" smooth="yes"/>
      <point x="267" y="661"/>
      <point x="305" y="617"/>
    </contour>
  </outline>
</glyph>
<glyph name="logicalnot" format="1">
  <advance width="709"/>
  <unicode hex="00AC"/>
  <outline>
    <contour>
      <point x="619" y="200" type="line"/>
      <point x="543" y="200" type="line"/>
      <point x="543" y="329" type="line"/>
      <point x="78" y="329" type="line"/>
      <point x="78" y="443" type="line"/>
      <point x="619" y="443" type="line"/>
    </contour>
  </outline>
</glyph>
<glyph name="degree" format="1">
  <advance width="341"/>
  <unicode hex="00B0"/>
  <outline>
    <contour>
      <point x="170" y="408" type="curve" smooth="yes"/>
      <point x="245" y="408"/>
      <point x="311" y="455"/>
      <point x="311" y="545" type="curve" smooth="yes"/>
      <point x="311" y="635"/>
      <point x="245" y="683"/>
      <point x="170" y="683" type="curve" smooth="yes"/>
      <point x="95" y="683"/>
      <point x="30" y="635"/>
      <point x="30" y="545" type="curve" smooth="yes"/>
      <point x="30" y="455"/>
      <point x="95" y="408"/>
    </contour>
    <contour>
      <point x="170" y="620" type="curve" smooth="yes"/>
      <point x="194" y="620"/>
      <point x="215" y="600"/>
      <point x="215" y="546" type="curve" smooth="yes"/>
      <point x="215" y="492"/>
      <point x="194" y="471"/>
      <point x="170" y="471" type="curve" smooth="yes"/>
      <point x="146" y="471"/>
      <point x="126" y="492"/>
      <point x="126" y="546" type="curve" smooth="yes"/>
      <point x="126" y="600"/>
      <point x="146" y="620"/>
    </contour>
  </outline>
</glyph>
<glyph name="plusminus" format="1">
  <advance width="583"/>
  <unicode hex="00B1"/>
  <outline>
    <contour>
      <point x="528" y="156" type="line"/>
      <point x="528" y="61" type="line"/>
      <point x="55" y="61" type="line"/>
      <point x="55" y="156" type="line"/>
    </contour>
    <contour>
      <point x="528" y="447" type="line"/>
      <point x="339" y="447" type="line"/>
      <point x="339" y="596" type="line"/>
      <point x="244" y="596" type="line"/>
      <point x="244" y="447" type="line"/>
      <point x="55" y="447" type="line"/>
      <point x="55" y="352" type="line"/>
      <point x="244" y="352" type="line"/>
      <point x="244" y="203" type="line"/>
      <point x="339" y="203" type="line"/>
      <point x="339" y="352" type="line"/>
      <point x="528" y="352" type="line"/>
    </contour>
  </outline>
</glyph>
<glyph name="twosuperior" format="1">
  <advance width="304"/>
  <unicode hex="00B2"/>
  <outline>
    <contour>
      <point x="53" y="613" type="curve"/>
      <point x="50" y="588"/>
      <point x="50" y="564"/>
      <point x="50" y="539" type="curve"/>
      <point x="56" y="538"/>
      <point x="74" y="539"/>
      <point x="80" y="539" type="curve"/>
      <point x="86" y="570"/>
      <point x="104" y="585"/>
      <point x="126" y="585" type="curve" smooth="yes"/>
      <point x="150" y="585"/>
      <point x="167" y="566"/>
      <point x="167" y="538" type="curve" smooth="yes"/>
      <point x="167" y="484"/>
      <point x="134" y="450"/>
      <point x="40" y="351" type="curve"/>
      <point x="40" y="342"/>
      <point x="42" y="319"/>
      <point x="46" y="298" type="curve"/>
      <point x="245" y="298" type="line"/>
      <point x="257" y="333"/>
      <point x="259" y="371"/>
      <point x="259" y="402" type="curve"/>
      <point x="254" y="406"/>
      <point x="243" y="406"/>
      <point x="238" y="406" type="curve"/>
      <point x="230" y="370"/>
      <point x="218" y="361"/>
      <point x="194" y="361" type="curve" smooth="yes"/>
      <point x="74" y="361" type="line"/>
      <point x="90" y="342" type="line"/>
      <point x="213" y="452"/>
      <point x="253" y="486"/>
      <point x="253" y="546" type="curve" smooth="yes"/>
      <point x="253" y="599"/>
      <point x="216" y="642"/>
      <point x="148" y="642" type="curve"/>
      <point x="112" y="642"/>
      <point x="79" y="632"/>
    </contour>
  </outline>
</glyph>
<glyph name="threesuperior" format="1">
  <advance width="267"/>
  <unicode hex="00B3"/>
  <outline>
    <contour>
      <point x="237" y="562" type="curve" smooth="yes"/>
      <point x="237" y="528"/>
      <point x="209" y="492"/>
      <point x="157" y="470" type="curve"/>
      <point x="157" y="485" type="line"/>
      <point x="213" y="470"/>
      <point x="242" y="438"/>
      <point x="242" y="393" type="curve" smooth="yes"/>
      <point x="242" y="337"/>
      <point x="191" y="291"/>
      <point x="121" y="291" type="curve" smooth="yes"/>
      <point x="83" y="291"/>
      <point x="52" y="303"/>
      <point x="25" y="326" type="curve"/>
      <point x="31" y="340"/>
      <point x="41" y="358"/>
      <point x="50" y="364" type="curve"/>
      <point x="67" y="352"/>
      <point x="89" y="345"/>
      <point x="115" y="345" type="curve" smooth="yes"/>
      <point x="146" y="345"/>
      <point x="163" y="361"/>
      <point x="163" y="386" type="curve" smooth="yes"/>
      <point x="163" y="422"/>
      <point x="138" y="441"/>
      <point x="95" y="441" type="curve"/>
      <point x="95" y="483" type="line"/>
      <point x="135" y="489"/>
      <point x="151" y="506"/>
      <point x="151" y="538" type="curve" smooth="yes"/>
      <point x="151" y="565"/>
      <point x="137" y="585"/>
      <point x="118" y="585" type="curve" smooth="yes"/>
      <point x="95" y="585"/>
      <point x="78" y="570"/>
      <point x="71" y="539" type="curve"/>
      <point x="65" y="539"/>
      <point x="44" y="539"/>
      <point x="39" y="540" type="curve"/>
      <point x="38" y="565"/>
      <point x="38" y="589"/>
      <point x="41" y="614" type="curve"/>
      <point x="68" y="630"/>
      <point x="99" y="642"/>
      <point x="143" y="642" type="curve" smooth="yes"/>
      <point x="195" y="642"/>
      <point x="237" y="607"/>
    </contour>
  </outline>
</glyph>
<glyph name="acute" format="1">
  <advance width="220"/>
  <unicode hex="00B4"/>
  <outline>
    <contour>
      <point x="39" y="464" type="move" name="_top"/>
    </contour>
    <contour>
      <point x="211" y="661" type="curve"/>
      <point x="211" y="641" type="line"/>
      <point x="49" y="501" type="line"/>
      <point x="9" y="525" type="line"/>
      <point x="105" y="710" type="line"/>
      <point x="142" y="711"/>
      <point x="191" y="681"/>
    </contour>
  </outline>
</glyph>
<glyph name="onesuperior" format="1">
  <advance width="230"/>
  <unicode hex="00B9"/>
  <outline>
    <contour>
      <point x="164" y="328" type="line"/>
      <point x="163" y="347" type="line"/>
      <point x="177" y="341"/>
      <point x="194" y="338"/>
      <point x="210" y="336" type="curve"/>
      <point x="211" y="327"/>
      <point x="209" y="306"/>
      <point x="207" y="298" type="curve"/>
      <point x="30" y="298" type="line"/>
      <point x="29" y="307"/>
      <point x="30" y="327"/>
      <point x="33" y="336" type="curve"/>
      <point x="60" y="339"/>
      <point x="84" y="344"/>
      <point x="84" y="366" type="curve" smooth="yes"/>
      <point x="84" y="589" type="line"/>
      <point x="108" y="560" type="line"/>
      <point x="33" y="548" type="line"/>
      <point x="32" y="557"/>
      <point x="32" y="575"/>
      <point x="35" y="582" type="curve"/>
      <point x="79" y="609"/>
      <point x="116" y="630"/>
      <point x="148" y="646" type="curve"/>
      <point x="164" y="639" type="line"/>
    </contour>
  </outline>
</glyph>
<glyph name="ordmasculine" format="1">
  <advance width="386"/>
  <unicode hex="00BA"/>
  <outline>
    <contour>
      <point x="369" y="491" type="curve" smooth="yes"/>
      <point x="369" y="374"/>
      <point x="291" y="321"/>
      <point x="192" y="321" type="curve" smooth="yes"/>
      <point x="94" y="321"/>
      <point x="17" y="374"/>
      <point x="17" y="491" type="curve" smooth="yes"/>
      <point x="17" y="607"/>
      <point x="94" y="661"/>
      <point x="193" y="661" type="curve" smooth="yes"/>
      <point x="292" y="661"/>
      <point x="369" y="608"/>
    </contour>
    <contour>
      <point x="133" y="491" type="curve" smooth="yes"/>
      <point x="136" y="407"/>
      <point x="157" y="370"/>
      <point x="197" y="370" type="curve" smooth="yes"/>
      <point x="238" y="370"/>
      <point x="255" y="407"/>
      <point x="253" y="491" type="curve" smooth="yes"/>
      <point x="250" y="575"/>
      <point x="229" y="613"/>
      <point x="189" y="613" type="curve" smooth="yes"/>
      <point x="148" y="613"/>
      <point x="130" y="575"/>
    </contour>
  </outline>
</glyph>
<glyph name="onequarter" format="1">
  <advance width="762"/>
  <unicode hex="00BC"/>
  <outline>
    <contour>
      <point x="218" y="259" type="line"/>
      <point x="216" y="283" type="line"/>
      <point x="234" y="275"/>
      <point x="255" y="271"/>
      <point x="275" y="269" type="curve"/>
      <point x="276" y="258"/>
      <point x="274" y="237"/>
      <point x="272" y="226" type="curve"/>
      <point x="50" y="226" type="line"/>
      <point x="49" y="238"/>
      <point x="50" y="258"/>
      <point x="54" y="269" type="curve"/>
      <point x="88" y="273"/>
      <point x="118" y="279"/>
      <point x="118" y="307" type="curve" smooth="yes"/>
      <point x="118" y="590" type="line"/>
      <point x="148" y="560" type="line"/>
      <point x="54" y="545" type="line"/>
      <point x="53" y="557"/>
      <point x="53" y="573"/>
      <point x="57" y="582" type="curve"/>
      <point x="111" y="615"/>
      <point x="158" y="642"/>
      <point x="198" y="661" type="curve"/>
      <point x="218" y="653" type="line"/>
    </contour>
    <contour>
      <point x="553" y="689" type="line"/>
      <point x="183" y="-37" type="line"/>
      <point x="244" y="-37" type="line"/>
      <point x="614" y="689" type="line"/>
    </contour>
    <contour>
      <point x="595" y="304" type="line"/>
      <point x="462" y="128" type="line"/>
      <point x="446" y="154" type="line"/>
      <point x="573" y="154" type="line"/>
      <point x="573" y="310" type="line"/>
    </contour>
    <contour>
      <point x="660" y="154" type="line"/>
      <point x="718" y="154" type="line"/>
      <point x="723" y="130"/>
      <point x="723" y="116"/>
      <point x="721" y="101" type="curve"/>
      <point x="660" y="101" type="line"/>
      <point x="660" y="27" type="line"/>
      <point x="658" y="52" type="line"/>
      <point x="669" y="45"/>
      <point x="687" y="43"/>
      <point x="700" y="43" type="curve"/>
      <point x="700" y="33"/>
      <point x="699" y="10"/>
      <point x="697" y="0" type="curve"/>
      <point x="529" y="0" type="line"/>
      <point x="528" y="11"/>
      <point x="529" y="33"/>
      <point x="532" y="43" type="curve"/>
      <point x="557" y="47"/>
      <point x="573" y="47"/>
      <point x="573" y="75" type="curve" smooth="yes"/>
      <point x="573" y="101" type="line"/>
      <point x="427" y="101" type="line"/>
      <point x="418" y="115"/>
      <point x="411" y="128"/>
      <point x="408" y="144" type="curve"/>
      <point x="609" y="422" type="line"/>
      <point x="660" y="422" type="line"/>
    </contour>
  </outline>
</glyph>
<glyph name="onehalf" format="1">
  <advance width="814"/>
  <unicode hex="00BD"/>
  <outline>
    <contour>
      <point x="218" y="259" type="line"/>
      <point x="216" y="283" type="line"/>
      <point x="234" y="275"/>
      <point x="255" y="271"/>
      <point x="275" y="269" type="curve"/>
      <point x="276" y="258"/>
      <point x="274" y="237"/>
      <point x="272" y="226" type="curve"/>
      <point x="50" y="226" type="line"/>
      <point x="49" y="238"/>
      <point x="50" y="258"/>
      <point x="54" y="269" type="curve"/>
      <point x="88" y="273"/>
      <point x="118" y="279"/>
      <point x="118" y="307" type="curve" smooth="yes"/>
      <point x="118" y="590" type="line"/>
      <point x="148" y="560" type="line"/>
      <point x="54" y="545" type="line"/>
      <point x="53" y="557"/>
      <point x="53" y="573"/>
      <point x="57" y="582" type="curve"/>
      <point x="111" y="615"/>
      <point x="158" y="642"/>
      <point x="198" y="661" type="curve"/>
      <point x="218" y="653" type="line"/>
    </contour>
    <contour>
      <point x="553" y="689" type="line"/>
      <point x="183" y="-37" type="line"/>
      <point x="244" y="-37" type="line"/>
      <point x="614" y="689" type="line"/>
    </contour>
    <contour>
      <point x="511" y="395" type="curve"/>
      <point x="507" y="364"/>
      <point x="507" y="334"/>
      <point x="508" y="303" type="curve"/>
      <point x="515" y="302"/>
      <point x="532" y="302"/>
      <point x="540" y="302" type="curve"/>
      <point x="548" y="340"/>
      <point x="570" y="359"/>
      <point x="598" y="359" type="curve" smooth="yes"/>
      <point x="627" y="359"/>
      <point x="649" y="335"/>
      <point x="649" y="301" type="curve" smooth="yes"/>
      <point x="649" y="233"/>
      <point x="607" y="190"/>
      <point x="490" y="67" type="curve"/>
      <point x="490" y="55"/>
      <point x="493" y="27"/>
      <point x="498" y="0" type="curve"/>
      <point x="746" y="0" type="line"/>
      <point x="761" y="44"/>
      <point x="764" y="92"/>
      <point x="764" y="131" type="curve"/>
      <point x="757" y="135"/>
      <point x="749" y="136"/>
      <point x="742" y="136" type="curve"/>
      <point x="733" y="90"/>
      <point x="718" y="79"/>
      <point x="687" y="79" type="curve" smooth="yes"/>
      <point x="533" y="79" type="line"/>
      <point x="553" y="55" type="line"/>
      <point x="706" y="193"/>
      <point x="756" y="235"/>
      <point x="756" y="311" type="curve" smooth="yes"/>
      <point x="756" y="377"/>
      <point x="710" y="431"/>
      <point x="625" y="431" type="curve"/>
      <point x="580" y="431"/>
      <point x="544" y="419"/>
    </contour>
  </outline>
</glyph>
<glyph name="multiply" format="1">
  <advance width="535"/>
  <unicode hex="00D7"/>
  <outline>
    <contour>
      <point x="444" y="582" type="line"/>
      <point x="511" y="518" type="line"/>
      <point x="109" y="99" type="line"/>
      <point x="44" y="160" type="line"/>
    </contour>
    <contour>
      <point x="446" y="99" type="line"/>
      <point x="44" y="517" type="line"/>
      <point x="111" y="581" type="line"/>
      <point x="511" y="160" type="line"/>
    </contour>
  </outline>
</glyph>
<glyph name="Thorn" format="1">
  <advance width="641"/>
  <unicode hex="00DE"/>
  <outline>
    <contour>
      <point x="271" y="43" type="line"/>
      <point x="268" y="69" type="line"/>
      <point x="285" y="59"/>
      <point x="322" y="57"/>
      <point x="341" y="57" type="curve"/>
      <point x="342" y="40"/>
      <point x="340" y="17"/>
      <point x="337" y="0" type="curve"/>
      <point x="42" y="0" type="line"/>
      <point x="41" y="18"/>
      <point x="42" y="40"/>
      <point x="48" y="57" type="curve"/>
      <point x="83" y="63"/>
      <point x="111" y="73"/>
      <point x="111" y="117" type="curve" smooth="yes"/>
      <point x="111" y="592" type="line"/>
      <point x="113" y="582" type="line"/>
      <point x="96" y="591"/>
      <point x="60" y="594"/>
      <point x="40" y="594" type="curve"/>
      <point x="39" y="610"/>
      <point x="41" y="634"/>
      <point x="45" y="650" type="curve"/>
      <point x="339" y="650" type="line"/>
      <point x="340" y="633"/>
      <point x="339" y="610"/>
      <point x="334" y="594" type="curve"/>
      <point x="299" y="588"/>
      <point x="271" y="578"/>
      <point x="271" y="534" type="curve" smooth="yes"/>
    </contour>
    <contour>
      <point x="375" y="505" type="line" smooth="yes"/>
      <point x="530" y="505"/>
      <point x="634" y="445"/>
      <point x="634" y="332" type="curve" smooth="yes"/>
      <point x="634" y="219"/>
      <point x="530" y="161"/>
      <point x="375" y="161" type="curve" smooth="yes"/>
      <point x="235" y="161" type="line"/>
      <point x="235" y="222" type="line"/>
      <point x="344" y="222" type="line" smooth="yes"/>
      <point x="412" y="222"/>
      <point x="463" y="258"/>
      <point x="463" y="332" type="curve" smooth="yes"/>
      <point x="463" y="405"/>
      <point x="422" y="441"/>
      <point x="344" y="441" type="curve" smooth="yes"/>
      <point x="235" y="441" type="line"/>
      <point x="235" y="505" type="line"/>
    </contour>
  </outline>
</glyph>
<glyph name="germandbls" format="1">
  <advance width="687"/>
  <unicode hex="00DF"/>
  <outline>
    <contour>
      <point x="612" y="474" type="curve" smooth="yes"/>
      <point x="612" y="399"/>
      <point x="563" y="354"/>
      <point x="475" y="335" type="curve"/>
      <point x="464" y="353" type="line"/>
      <point x="573" y="337"/>
      <point x="637" y="274"/>
      <point x="637" y="180" type="curve" smooth="yes"/>
      <point x="637" y="86"/>
      <point x="571" y="0"/>
      <point x="398" y="0" type="curve" smooth="yes"/>
      <point x="372" y="0"/>
      <point x="344" y="3"/>
      <point x="323" y="11" type="curve"/>
      <point x="319" y="32"/>
      <point x="319" y="50"/>
      <point x="323" y="71" type="curve"/>
      <point x="336" y="65"/>
      <point x="349" y="63"/>
      <point x="361" y="63" type="curve" smooth="yes"/>
      <point x="426" y="63"/>
      <point x="467" y="99"/>
      <point x="467" y="180" type="curve" smooth="yes"/>
      <point x="467" y="261"/>
      <point x="426" y="298"/>
      <point x="361" y="298" type="curve" smooth="yes"/>
      <point x="336" y="298" type="line"/>
      <point x="330" y="320"/>
      <point x="328" y="344"/>
      <point x="334" y="361" type="curve"/>
      <point x="375" y="361" type="line"/>
      <point x="416" y="384"/>
      <point x="441" y="424"/>
      <point x="441" y="474" type="curve" smooth="yes"/>
      <point x="441" y="547"/>
      <point x="416" y="588"/>
      <point x="356" y="588" type="curve" smooth="yes"/>
      <point x="296" y="588"/>
      <point x="271" y="547"/>
      <point x="271" y="474" type="curve" smooth="yes"/>
      <point x="271" y="0" type="line"/>
      <point x="42" y="0" type="line"/>
      <point x="41" y="18"/>
      <point x="42" y="40"/>
      <point x="48" y="57" type="curve"/>
      <point x="83" y="63"/>
      <point x="111" y="73"/>
      <point x="111" y="117" type="curve" smooth="yes"/>
      <point x="111" y="427" type="line" smooth="yes"/>
      <point x="111" y="582"/>
      <point x="209" y="650"/>
      <point x="374" y="650" type="curve" smooth="yes"/>
      <point x="524" y="650"/>
      <point x="612" y="571"/>
    </contour>
    <contour>
      <point x="302" y="8" type="move" name="ogonek"/>
    </contour>
    <contour>
      <point x="191" y="650" type="move" name="top"/>
    </contour>
  </outline>
</glyph>
<glyph name="ae" format="1">
  <advance width="756"/>
  <unicode hex="00E6"/>
  <outline>
    <contour>
      <point x="302" y="221" type="line"/>
      <point x="253" y="206" type="line" smooth="yes"/>
      <point x="212" y="193"/>
      <point x="189" y="166"/>
      <point x="189" y="130" type="curve" smooth="yes"/>
      <point x="189" y="100"/>
      <point x="207" y="81"/>
      <point x="230" y="81" type="curve" smooth="yes"/>
      <point x="266" y="81"/>
      <point x="288" y="105"/>
      <point x="306" y="140" type="curve"/>
      <point x="344" y="101" type="line"/>
      <point x="311" y="34"/>
      <point x="256" y="-13"/>
      <point x="170" y="-13" type="curve" smooth="yes"/>
      <point x="78" y="-13"/>
      <point x="24" y="43"/>
      <point x="24" y="117" type="curve" smooth="yes"/>
      <point x="24" y="191"/>
      <point x="73" y="231"/>
      <point x="164" y="249" type="curve" smooth="yes"/>
      <point x="299" y="276" type="line"/>
    </contour>
    <contour>
      <point x="391" y="432" type="curve"/>
      <point x="434" y="459"/>
      <point x="485" y="474"/>
      <point x="539" y="474" type="curve" smooth="yes"/>
      <point x="627" y="474"/>
      <point x="727" y="431"/>
      <point x="727" y="278" type="curve"/>
      <point x="722" y="264"/>
      <point x="715" y="249"/>
      <point x="707" y="237" type="curve"/>
      <point x="412" y="237" type="line"/>
      <point x="412" y="288" type="line"/>
      <point x="527" y="297" type="line"/>
      <point x="572" y="299" type="line"/>
      <point x="571" y="374"/>
      <point x="554" y="400"/>
      <point x="527" y="400" type="curve" smooth="yes"/>
      <point x="488" y="400"/>
      <point x="446" y="361"/>
      <point x="446" y="235" type="curve" smooth="yes"/>
      <point x="446" y="112"/>
      <point x="499" y="80"/>
      <point x="562" y="80" type="curve" smooth="yes"/>
      <point x="605" y="80"/>
      <point x="654" y="92"/>
      <point x="701" y="110" type="curve"/>
      <point x="724" y="74" type="line"/>
      <point x="675" y="24"/>
      <point x="605" y="-13"/>
      <point x="518" y="-13" type="curve" smooth="yes"/>
      <point x="418" y="-13"/>
      <point x="281" y="59"/>
      <point x="281" y="219" type="curve" smooth="yes"/>
      <point x="281" y="302" type="line" smooth="yes"/>
      <point x="281" y="349"/>
      <point x="254" y="367"/>
      <point x="205" y="367" type="curve" smooth="yes"/>
      <point x="163" y="367"/>
      <point x="129" y="360"/>
      <point x="90" y="347" type="curve"/>
      <point x="58" y="394" type="line"/>
      <point x="118" y="448"/>
      <point x="184" y="474"/>
      <point x="269" y="474" type="curve" smooth="yes"/>
      <point x="324" y="474"/>
      <point x="364" y="459"/>
    </contour>
  </outline>
</glyph>
<glyph name="eth" format="1">
  <advance width="542"/>
  <unicode hex="00F0"/>
  <outline>
    <contour>
      <point x="512" y="280" type="curve" smooth="yes"/>
      <point x="512" y="85"/>
      <point x="391" y="-11"/>
      <point x="260" y="-11" type="curve" smooth="yes"/>
      <point x="129" y="-11"/>
      <point x="24" y="55"/>
      <point x="24" y="221" type="curve" smooth="yes"/>
      <point x="24" y="378"/>
      <point x="165" y="474"/>
      <point x="305" y="474" type="curve" smooth="yes"/>
      <point x="345" y="474"/>
      <point x="372" y="471"/>
      <point x="403" y="465" type="curve"/>
      <point x="392" y="370" type="line"/>
      <point x="361" y="390"/>
      <point x="333" y="400"/>
      <point x="297" y="400" type="curve" smooth="yes"/>
      <point x="223" y="400"/>
      <point x="185" y="341"/>
      <point x="189" y="221" type="curve" smooth="yes"/>
      <point x="194" y="101"/>
      <point x="222" y="58"/>
      <point x="267" y="58" type="curve" smooth="yes"/>
      <point x="312" y="58"/>
      <point x="346" y="127"/>
      <point x="346" y="267" type="curve" smooth="yes"/>
      <point x="346" y="458"/>
      <point x="326" y="561"/>
      <point x="207" y="691" type="curve"/>
      <point x="252" y="732" type="line"/>
      <point x="398" y="630"/>
      <point x="512" y="448"/>
    </contour>
    <contour>
      <point x="483" y="638" type="curve"/>
      <point x="191" y="516" type="line"/>
      <point x="174" y="530"/>
      <point x="164" y="550"/>
      <point x="159" y="574" type="curve"/>
      <point x="450" y="695" type="line"/>
      <point x="466" y="680"/>
      <point x="477" y="661"/>
    </contour>
  </outline>
</glyph>
<glyph name="divide" format="1">
  <advance width="683"/>
  <unicode hex="00F7"/>
  <outline>
    <contour>
      <point x="633" y="386" type="line"/>
      <point x="633" y="286" type="line"/>
      <point x="50" y="286" type="line"/>
      <point x="50" y="386" type="line"/>
    </contour>
    <contour>
      <point x="428" y="138" type="curve" smooth="yes"/>
      <point x="428" y="92"/>
      <point x="389" y="53"/>
      <point x="340" y="53" type="curve" smooth="yes"/>
      <point x="294" y="53"/>
      <point x="255" y="92"/>
      <point x="255" y="138" type="curve" smooth="yes"/>
      <point x="255" y="187"/>
      <point x="294" y="226"/>
      <point x="340" y="226" type="curve" smooth="yes"/>
      <point x="389" y="226"/>
      <point x="428" y="187"/>
    </contour>
    <contour>
      <point x="428" y="531" type="curve" smooth="yes"/>
      <point x="428" y="485"/>
      <point x="389" y="446"/>
      <point x="340" y="446" type="curve" smooth="yes"/>
      <point x="294" y="446"/>
      <point x="255" y="485"/>
      <point x="255" y="531" type="curve" smooth="yes"/>
      <point x="255" y="578"/>
      <point x="294" y="617"/>
      <point x="340" y="617" type="curve" smooth="yes"/>
      <point x="389" y="617"/>
      <point x="428" y="578"/>
    </contour>
  </outline>
</glyph>
<glyph name="Lslash" format="1">
  <advance width="573"/>
  <unicode hex="0141"/>
  <outline>
    <contour>
      <point x="394" y="373" type="curve"/>
      <point x="35" y="249" type="line"/>
      <point x="22" y="266"/>
      <point x="13" y="288"/>
      <point x="10" y="313" type="curve"/>
      <point x="368" y="436" type="line"/>
      <point x="381" y="417"/>
      <point x="389" y="396"/>
    </contour>
    <component base="L"/>
  </outline>
</glyph>
<glyph name="lslash" format="1">
  <advance width="440"/>
  <unicode hex="0142"/>
  <outline>
    <contour>
      <point x="410" y="399" type="curve"/>
      <point x="51" y="279" type="line"/>
      <point x="38" y="296"/>
      <point x="29" y="318"/>
      <point x="26" y="343" type="curve"/>
      <point x="384" y="466" type="line"/>
      <point x="397" y="447"/>
      <point x="405" y="422"/>
    </contour>
    <component base="l" xOffset="40"/>
  </outline>
</glyph>
<glyph name="OE" format="1">
  <advance width="1000"/>
  <unicode hex="0152"/>
  <outline>
    <contour>
      <point x="829" y="283" type="line"/>
      <point x="785" y="283" type="line"/>
      <point x="632" y="294" type="line"/>
      <point x="632" y="355" type="line"/>
      <point x="785" y="371" type="line"/>
      <point x="829" y="371" type="line"/>
    </contour>
    <contour>
      <point x="512" y="0" type="line"/>
      <point x="462" y="-8"/>
      <point x="411" y="-14"/>
      <point x="355" y="-14" type="curve" smooth="yes"/>
      <point x="176" y="-14"/>
      <point x="50" y="119"/>
      <point x="50" y="323" type="curve" smooth="yes"/>
      <point x="50" y="527"/>
      <point x="195" y="664"/>
      <point x="374" y="664" type="curve" smooth="yes"/>
      <point x="429" y="664"/>
      <point x="476" y="658"/>
      <point x="527" y="649" type="curve"/>
      <point x="498" y="524" type="line"/>
      <point x="475" y="563"/>
      <point x="433" y="592"/>
      <point x="381" y="592" type="curve" smooth="yes"/>
      <point x="269" y="592"/>
      <point x="237" y="476"/>
      <point x="242" y="323" type="curve" smooth="yes"/>
      <point x="245" y="175"/>
      <point x="259" y="58"/>
      <point x="359" y="58" type="curve" smooth="yes"/>
      <point x="423" y="58"/>
      <point x="462" y="78"/>
      <point x="499" y="124" type="curve"/>
    </contour>
    <contour>
      <point x="938" y="650" type="line"/>
      <point x="939" y="589"/>
      <point x="938" y="526"/>
      <point x="932" y="464" type="curve"/>
      <point x="920" y="463"/>
      <point x="883" y="462"/>
      <point x="865" y="462" type="curve"/>
      <point x="858" y="533"/>
      <point x="859" y="588"/>
      <point x="787" y="588" type="curve" smooth="yes"/>
      <point x="606" y="588" type="line"/>
      <point x="653" y="635" type="line"/>
      <point x="653" y="16" type="line"/>
      <point x="607" y="63" type="line"/>
      <point x="788" y="63" type="line" smooth="yes"/>
      <point x="860" y="63"/>
      <point x="863" y="121"/>
      <point x="871" y="198" type="curve"/>
      <point x="889" y="199"/>
      <point x="929" y="197"/>
      <point x="941" y="194" type="curve"/>
      <point x="946" y="127"/>
      <point x="947" y="66"/>
      <point x="945" y="0" type="curve"/>
      <point x="493" y="0" type="line"/>
      <point x="493" y="650" type="line"/>
    </contour>
    <contour>
      <point x="400" y="8" type="move" name="ogonek"/>
    </contour>
    <contour>
      <point x="203" y="0" type="move" name="bottom"/>
    </contour>
    <contour>
      <point x="856" y="650" type="move" name="top"/>
    </contour>
  </outline>
</glyph>
<glyph name="oe" format="1">
  <advance width="842"/>
  <unicode hex="0153"/>
  <outline>
    <contour>
      <point x="454" y="401" type="curve"/>
      <point x="500" y="453"/>
      <point x="561" y="474"/>
      <point x="626" y="474" type="curve" smooth="yes"/>
      <point x="713" y="474"/>
      <point x="813" y="431"/>
      <point x="813" y="278" type="curve"/>
      <point x="809" y="264"/>
      <point x="802" y="249"/>
      <point x="793" y="237" type="curve"/>
      <point x="498" y="237" type="line"/>
      <point x="498" y="288" type="line"/>
      <point x="613" y="297" type="line"/>
      <point x="658" y="299" type="line"/>
      <point x="657" y="374"/>
      <point x="640" y="400"/>
      <point x="614" y="400" type="curve" smooth="yes"/>
      <point x="575" y="400"/>
      <point x="533" y="361"/>
      <point x="533" y="235" type="curve" smooth="yes"/>
      <point x="533" y="112"/>
      <point x="586" y="80"/>
      <point x="649" y="80" type="curve" smooth="yes"/>
      <point x="691" y="80"/>
      <point x="737" y="96"/>
      <point x="778" y="118" type="curve"/>
      <point x="804" y="72" type="line"/>
      <point x="759" y="28"/>
      <point x="691" y="-13"/>
      <point x="604" y="-13" type="curve" smooth="yes"/>
      <point x="554" y="-13"/>
      <point x="488" y="5"/>
      <point x="448" y="53" type="curve"/>
      <point x="403" y="3"/>
      <point x="342" y="-11"/>
      <point x="275" y="-11" type="curve" smooth="yes"/>
      <point x="134" y="-11"/>
      <point x="24" y="65"/>
      <point x="24" y="231" type="curve" smooth="yes"/>
      <point x="24" y="398"/>
      <point x="135" y="474"/>
      <point x="276" y="474" type="curve" smooth="yes"/>
      <point x="346" y="474"/>
      <point x="409" y="454"/>
    </contour>
    <contour>
      <point x="189" y="231" type="curve" smooth="yes"/>
      <point x="194" y="111"/>
      <point x="224" y="58"/>
      <point x="282" y="58" type="curve" smooth="yes"/>
      <point x="340" y="58"/>
      <point x="365" y="111"/>
      <point x="361" y="231" type="curve" smooth="yes"/>
      <point x="357" y="351"/>
      <point x="327" y="405"/>
      <point x="270" y="405" type="curve" smooth="yes"/>
      <point x="212" y="405"/>
      <point x="185" y="351"/>
    </contour>
    <contour>
      <point x="423" y="9" type="move" name="ogonek"/>
    </contour>
    <contour>
      <point x="256" y="0" type="move" name="bottom"/>
    </contour>
    <contour>
      <point x="776" y="461" type="move" name="top"/>
    </contour>
  </outline>
</glyph>
<glyph name="florin" format="1">
  <advance width="477"/>
  <unicode hex="0192"/>
  <outline>
    <contour>
      <point x="263" y="218" type="line"/>
      <point x="303" y="218"/>
      <point x="352" y="220"/>
      <point x="418" y="229" type="curve"/>
      <point x="413" y="198"/>
      <point x="406" y="170"/>
      <point x="394" y="148" type="curve"/>
      <point x="251" y="148" type="line"/>
    </contour>
    <contour>
      <point x="464" y="460" type="curve"/>
      <point x="463" y="441"/>
      <point x="459" y="416"/>
      <point x="445" y="393" type="curve"/>
      <point x="425" y="405"/>
      <point x="407" y="410"/>
      <point x="387" y="410" type="curve" smooth="yes"/>
      <point x="353" y="410"/>
      <point x="324" y="389"/>
      <point x="313" y="321" type="curve" smooth="yes"/>
      <point x="255" y="-45" type="line" smooth="yes"/>
      <point x="234" y="-177"/>
      <point x="153" y="-252"/>
      <point x="49" y="-252" type="curve" smooth="yes"/>
      <point x="30" y="-252"/>
      <point x="-4" y="-246"/>
      <point x="-23" y="-238" type="curve"/>
      <point x="-22" y="-219"/>
      <point x="-18" y="-198"/>
      <point x="-6" y="-175" type="curve"/>
      <point x="15" y="-183"/>
      <point x="28" y="-188"/>
      <point x="45" y="-188" type="curve" smooth="yes"/>
      <point x="66" y="-188"/>
      <point x="79" y="-172"/>
      <point x="86" y="-129" type="curve" smooth="yes"/>
      <point x="137" y="186" type="line"/>
      <point x="150" y="137" type="line"/>
      <point x="126" y="145"/>
      <point x="100" y="146"/>
      <point x="74" y="146" type="curve"/>
      <point x="76" y="160"/>
      <point x="80" y="184"/>
      <point x="85" y="196" type="curve"/>
      <point x="102" y="205"/>
      <point x="122" y="212"/>
      <point x="141" y="216" type="curve"/>
      <point x="149" y="267" type="line" smooth="yes"/>
      <point x="170" y="399"/>
      <point x="266" y="474"/>
      <point x="383" y="474" type="curve" smooth="yes"/>
      <point x="404" y="474"/>
      <point x="443" y="468"/>
    </contour>
  </outline>
</glyph>
<glyph name="circumflex" format="1">
  <advance width="366"/>
  <unicode hex="02C6"/>
  <outline>
    <contour>
      <point x="324" y="503" type="line"/>
      <point x="183" y="584" type="line"/>
      <point x="43" y="503" type="line"/>
      <point x="10" y="530" type="line"/>
      <point x="151" y="683" type="line"/>
      <point x="215" y="683" type="line"/>
      <point x="356" y="530" type="line"/>
    </contour>
    <contour>
      <point x="183" y="461" type="move" name="_top"/>
    </contour>
  </outline>
</glyph>
<glyph name="caron" format="1">
  <advance width="366"/>
  <unicode hex="02C7"/>
  <outline>
    <contour>
      <point x="183" y="461" type="move" name="_top"/>
    </contour>
    <contour>
      <point x="236" y="507" type="line"/>
      <point x="131" y="507" type="line"/>
      <point x="10" y="659" type="line"/>
      <point x="43" y="686" type="line"/>
      <point x="183" y="576" type="line"/>
      <point x="324" y="686" type="line"/>
      <point x="356" y="659" type="line"/>
    </contour>
  </outline>
</glyph>
<glyph name="dotaccent" format="1">
  <advance width="191"/>
  <unicode hex="02D9"/>
  <outline>
    <contour>
      <point x="96" y="461" type="move" name="_top"/>
    </contour>
    <contour>
      <point x="95" y="508" type="curve" smooth="yes"/>
      <point x="133" y="508"/>
      <point x="164" y="539"/>
      <point x="164" y="576" type="curve" smooth="yes"/>
      <point x="164" y="613"/>
      <point x="133" y="645"/>
      <point x="95" y="645" type="curve" smooth="yes"/>
      <point x="58" y="645"/>
      <point x="27" y="613"/>
      <point x="27" y="576" type="curve" smooth="yes"/>
      <point x="27" y="539"/>
      <point x="58" y="508"/>
    </contour>
  </outline>
</glyph>
<glyph name="ring" format="1">
  <advance width="204"/>
  <unicode hex="02DA"/>
  <outline>
    <contour>
      <point x="102" y="461" type="move" name="_top"/>
    </contour>
    <contour>
      <point x="217" y="591" type="curve"/>
      <point x="217" y="640"/>
      <point x="163" y="672"/>
      <point x="102" y="672" type="curve"/>
      <point x="41" y="672"/>
      <point x="-13" y="640"/>
      <point x="-13" y="591" type="curve"/>
      <point x="-13" y="541"/>
      <point x="41" y="509"/>
      <point x="102" y="509" type="curve"/>
      <point x="163" y="509"/>
      <point x="217" y="541"/>
    </contour>
    <contour>
      <point x="66" y="591" type="curve"/>
      <point x="66" y="621"/>
      <point x="83" y="633"/>
      <point x="102" y="633" type="curve"/>
      <point x="122" y="633"/>
      <point x="138" y="621"/>
      <point x="138" y="591" type="curve"/>
      <point x="138" y="560"/>
      <point x="121" y="548"/>
      <point x="102" y="548" type="curve"/>
      <point x="83" y="548"/>
      <point x="66" y="560"/>
    </contour>
  </outline>
</glyph>
<glyph name="ogonek" format="1">
  <advance width="256"/>
  <unicode hex="02DB"/>
  <outline>
    <contour>
      <point x="195" y="-123" type="curve" smooth="yes"/>
      <point x="207" y="-123"/>
      <point x="216" y="-120"/>
      <point x="232" y="-117" type="curve"/>
      <point x="246" y="-151" type="line"/>
      <point x="216" y="-186"/>
      <point x="186" y="-215"/>
      <point x="131" y="-215" type="curve" smooth="yes"/>
      <point x="66" y="-215"/>
      <point x="10" y="-178"/>
      <point x="10" y="-122" type="curve" smooth="yes"/>
      <point x="10" y="-64"/>
      <point x="54" y="-8"/>
      <point x="169" y="24" type="curve"/>
      <point x="215" y="0" type="line"/>
      <point x="166" y="-24"/>
      <point x="148" y="-53"/>
      <point x="148" y="-84" type="curve" smooth="yes"/>
      <point x="148" y="-122"/>
      <point x="180" y="-123"/>
    </contour>
    <contour>
      <point x="215" y="0" type="move" name="_ogonek"/>
    </contour>
  </outline>
</glyph>
<glyph name="tilde" format="1">
  <advance width="351"/>
  <unicode hex="02DC"/>
  <outline>
    <contour>
      <point x="252" y="628" type="curve" smooth="yes"/>
      <point x="277" y="628"/>
      <point x="295" y="645"/>
      <point x="301" y="673" type="curve"/>
      <point x="341" y="673" type="line"/>
      <point x="335" y="579"/>
      <point x="298" y="525"/>
      <point x="238" y="525" type="curve" smooth="yes"/>
      <point x="193" y="525"/>
      <point x="154" y="578"/>
      <point x="109" y="578" type="curve" smooth="yes"/>
      <point x="84" y="578"/>
      <point x="66" y="561"/>
      <point x="60" y="533" type="curve"/>
      <point x="20" y="533" type="line"/>
      <point x="26" y="627"/>
      <point x="63" y="681"/>
      <point x="123" y="681" type="curve" smooth="yes"/>
      <point x="168" y="681"/>
      <point x="207" y="628"/>
    </contour>
    <contour>
      <point x="173" y="461" type="move" name="_top"/>
    </contour>
  </outline>
</glyph>
<glyph name="hungarumlaut" format="1">
  <advance width="386"/>
  <unicode hex="02DD"/>
  <outline>
    <contour>
      <point x="143" y="461" type="move" name="_top"/>
    </contour>
    <contour>
      <point x="376" y="698" type="curve"/>
      <point x="376" y="679" type="line"/>
      <point x="217" y="530" type="line"/>
      <point x="160" y="540" type="line"/>
      <point x="269" y="723" type="line"/>
      <point x="312" y="721"/>
      <point x="343" y="714"/>
    </contour>
    <contour>
      <point x="195" y="698" type="curve"/>
      <point x="195" y="679" type="line"/>
      <point x="67" y="530" type="line"/>
      <point x="10" y="540" type="line"/>
      <point x="88" y="723" type="line"/>
      <point x="131" y="721"/>
      <point x="162" y="714"/>
    </contour>
  </outline>
</glyph>
<glyph name="pi" format="1">
  <advance width="660"/>
  <unicode hex="03C0"/>
  <outline>
    <contour>
      <point x="223" y="356" type="line"/>
      <point x="207" y="156" type="line" smooth="yes"/>
      <point x="201" y="85"/>
      <point x="178" y="30"/>
      <point x="104" y="-7" type="curve"/>
      <point x="81" y="3"/>
      <point x="66" y="15"/>
      <point x="57" y="31" type="curve"/>
      <point x="114" y="67"/>
      <point x="128" y="85"/>
      <point x="134" y="156" type="curve" smooth="yes"/>
      <point x="150" y="356" type="line"/>
    </contour>
    <contour>
      <point x="519" y="356" type="line"/>
      <point x="519" y="169" type="line" smooth="yes"/>
      <point x="519" y="130"/>
      <point x="533" y="120"/>
      <point x="561" y="120" type="curve" smooth="yes"/>
      <point x="579" y="120" type="line"/>
      <point x="583" y="84"/>
      <point x="578" y="37"/>
      <point x="563" y="0" type="curve"/>
      <point x="489" y="0" type="line" smooth="yes"/>
      <point x="412" y="0"/>
      <point x="364" y="36"/>
      <point x="364" y="134" type="curve" smooth="yes"/>
      <point x="364" y="356" type="line"/>
    </contour>
    <contour>
      <point x="495" y="461" type="line" smooth="yes"/>
      <point x="543" y="461"/>
      <point x="566" y="474"/>
      <point x="580" y="527" type="curve"/>
      <point x="591" y="527"/>
      <point x="603" y="525"/>
      <point x="614" y="521" type="curve"/>
      <point x="614" y="476"/>
      <point x="609" y="390"/>
      <point x="586" y="340" type="curve"/>
      <point x="133" y="340" type="line" smooth="yes"/>
      <point x="85" y="340"/>
      <point x="62" y="327"/>
      <point x="48" y="274" type="curve"/>
      <point x="37" y="274"/>
      <point x="25" y="276"/>
      <point x="14" y="280" type="curve"/>
      <point x="14" y="325"/>
      <point x="19" y="411"/>
      <point x="42" y="461" type="curve"/>
    </contour>
  </outline>
</glyph>
<glyph name="dvVisarga" format="1">
  <advance width="312"/>
  <unicode hex="0903"/>
  <outline>
    <contour>
      <point x="83" y="381" type="line"/>
      <point x="177" y="290" type="line"/>
      <point x="268" y="381" type="line"/>
      <point x="174" y="474" type="line"/>
    </contour>
    <contour>
      <point x="83" y="114" type="line"/>
      <point x="177" y="23" type="line"/>
      <point x="268" y="114" type="line"/>
      <point x="174" y="207" type="line"/>
    </contour>
  </outline>
</glyph>
<glyph name="dvA" format="1">
  <advance width="765"/>
  <unicode hex="0905"/>
  <outline>
    <contour>
      <point x="296" y="23" type="curve" smooth="yes"/>
      <point x="404" y="23"/>
      <point x="470" y="103"/>
      <point x="470" y="197" type="curve" smooth="yes"/>
      <point x="470" y="212"/>
      <point x="468" y="227"/>
      <point x="464" y="240" type="curve"/>
      <point x="484" y="229"/>
      <point x="505" y="223"/>
      <point x="526" y="223" type="curve" smooth="yes"/>
      <point x="541" y="223"/>
      <point x="557" y="226"/>
      <point x="572" y="234" type="curve"/>
      <point x="565" y="32" type="line"/>
      <point x="695" y="-40" type="line"/>
      <point x="695" y="531" type="line"/>
      <point x="852" y="531" type="line"/>
      <point x="780" y="635" type="line"/>
      <point x="410" y="635" type="line"/>
      <point x="482" y="531" type="line"/>
      <point x="565" y="531" type="line"/>
      <point x="565" y="393" type="line"/>
      <point x="552" y="371"/>
      <point x="499" y="343"/>
      <point x="452" y="343" type="curve" smooth="yes"/>
      <point x="437" y="343"/>
      <point x="425" y="346"/>
      <point x="415" y="351" type="curve"/>
      <point x="431" y="375"/>
      <point x="441" y="402"/>
      <point x="441" y="433" type="curve" smooth="yes"/>
      <point x="441" y="521"/>
      <point x="343" y="642"/>
      <point x="257" y="642" type="curve" smooth="yes"/>
      <point x="196" y="642"/>
      <point x="142" y="598"/>
      <point x="104" y="549" type="curve"/>
      <point x="201" y="454" type="line"/>
      <point x="235" y="494"/>
      <point x="273" y="519"/>
      <point x="304" y="519" type="curve" smooth="yes"/>
      <point x="326" y="519"/>
      <point x="339" y="502"/>
      <point x="339" y="484" type="curve" smooth="yes"/>
      <point x="339" y="439"/>
      <point x="284" y="403"/>
      <point x="179" y="368" type="curve"/>
      <point x="253" y="244" type="line"/>
      <point x="288" y="257"/>
      <point x="321" y="272"/>
      <point x="349" y="290" type="curve"/>
      <point x="357" y="278"/>
      <point x="362" y="263"/>
      <point x="362" y="247" type="curve" smooth="yes"/>
      <point x="362" y="194"/>
      <point x="323" y="146"/>
      <point x="254" y="146" type="curve" smooth="yes"/>
      <point x="174" y="146"/>
      <point x="123" y="251"/>
      <point x="75" y="356" type="curve"/>
      <point x="11" y="319" type="line"/>
      <point x="54" y="208"/>
      <point x="144" y="23"/>
    </contour>
  </outline>
</glyph>
<glyph name="dvII" format="1">
  <advance width="544"/>
  <unicode hex="0908"/>
  <outline>
    <contour>
      <point x="555" y="885" type="line"/>
      <point x="522" y="911"/>
      <point x="483" y="931"/>
      <point x="426" y="931" type="curve" smooth="yes"/>
      <point x="350" y="931"/>
      <point x="283" y="881"/>
      <point x="283" y="798" type="curve" smooth="yes"/>
      <point x="283" y="737"/>
      <point x="316" y="676"/>
      <point x="352" y="635" type="curve"/>
      <point x="-83" y="635" type="line"/>
      <point x="-11" y="531" type="line"/>
      <point x="319" y="531" type="line"/>
      <point x="319" y="463" type="line"/>
      <point x="176" y="463" type="line" smooth="yes"/>
      <point x="108" y="463"/>
      <point x="48" y="427"/>
      <point x="48" y="352" type="curve" smooth="yes"/>
      <point x="48" y="265"/>
      <point x="160" y="140"/>
      <point x="233" y="140" type="curve" smooth="yes"/>
      <point x="299" y="140"/>
      <point x="353" y="179"/>
      <point x="386" y="179" type="curve" smooth="yes"/>
      <point x="396" y="179"/>
      <point x="401" y="166"/>
      <point x="401" y="156" type="curve" smooth="yes"/>
      <point x="401" y="102"/>
      <point x="308" y="62"/>
      <point x="228" y="59" type="curve"/>
      <point x="192" y="106"/>
      <point x="154" y="142"/>
      <point x="124" y="142" type="curve" smooth="yes"/>
      <point x="88" y="142"/>
      <point x="52" y="112"/>
      <point x="52" y="77" type="curve" smooth="yes"/>
      <point x="52" y="22"/>
      <point x="148" y="-43"/>
      <point x="221" y="-58" type="curve"/>
      <point x="344" y="-230" type="line"/>
      <point x="427" y="-176" type="line"/>
      <point x="316" y="-53" type="line"/>
      <point x="415" y="-32"/>
      <point x="492" y="36"/>
      <point x="492" y="108" type="curve" smooth="yes"/>
      <point x="492" y="190"/>
      <point x="405" y="288"/>
      <point x="327" y="288" type="curve" smooth="yes"/>
      <point x="274" y="288"/>
      <point x="230" y="254"/>
      <point x="176" y="254" type="curve" smooth="yes"/>
      <point x="155" y="254"/>
      <point x="147" y="268"/>
      <point x="147" y="284" type="curve" smooth="yes"/>
      <point x="147" y="315"/>
      <point x="168" y="343"/>
      <point x="209" y="343" type="curve" smooth="yes"/>
      <point x="445" y="343" type="line"/>
      <point x="445" y="531" type="line"/>
      <point x="608" y="531" type="line"/>
      <point x="537" y="635" type="line"/>
      <point x="437" y="635" type="line"/>
      <point x="408" y="664"/>
      <point x="384" y="699"/>
      <point x="384" y="744" type="curve" smooth="yes"/>
      <point x="384" y="804"/>
      <point x="432" y="839"/>
      <point x="485" y="839" type="curve" smooth="yes"/>
      <point x="499" y="839"/>
      <point x="513" y="837"/>
      <point x="528" y="832" type="curve"/>
    </contour>
  </outline>
</glyph>
<glyph name="dvU" format="1">
  <advance width="519"/>
  <unicode hex="0909"/>
  <outline>
    <contour>
      <point x="14" y="305" type="line"/>
      <point x="57" y="196"/>
      <point x="165" y="-1"/>
      <point x="309" y="-1" type="curve" smooth="yes"/>
      <point x="423" y="-1"/>
      <point x="489" y="80"/>
      <point x="489" y="175" type="curve" smooth="yes"/>
      <point x="489" y="237"/>
      <point x="458" y="291"/>
      <point x="419" y="328" type="curve"/>
      <point x="440" y="355"/>
      <point x="450" y="386"/>
      <point x="450" y="420" type="curve" smooth="yes"/>
      <point x="450" y="464"/>
      <point x="432" y="502"/>
      <point x="408" y="531" type="curve"/>
      <point x="616" y="531" type="line"/>
      <point x="545" y="635" type="line"/>
      <point x="-75" y="635" type="line"/>
      <point x="-3" y="531" type="line"/>
      <point x="303" y="531" type="line"/>
      <point x="327" y="521"/>
      <point x="343" y="492"/>
      <point x="343" y="470" type="curve" smooth="yes"/>
      <point x="343" y="430"/>
      <point x="312" y="388"/>
      <point x="168" y="368" type="curve"/>
      <point x="240" y="245" type="line"/>
      <point x="288" y="252"/>
      <point x="328" y="264"/>
      <point x="359" y="280" type="curve"/>
      <point x="372" y="262"/>
      <point x="379" y="242"/>
      <point x="379" y="224" type="curve" smooth="yes"/>
      <point x="379" y="168"/>
      <point x="337" y="126"/>
      <point x="272" y="126" type="curve" smooth="yes"/>
      <point x="176" y="126"/>
      <point x="114" y="264"/>
      <point x="80" y="347" type="curve"/>
    </contour>
  </outline>
</glyph>
<glyph name="dvAI" format="1">
  <advance width="571"/>
  <unicode hex="0910"/>
  <outline>
    <contour>
      <point x="186" y="732" type="line"/>
      <point x="212" y="751"/>
      <point x="237" y="762"/>
      <point x="258" y="762" type="curve" smooth="yes"/>
      <point x="310" y="762"/>
      <point x="354" y="701"/>
      <point x="390" y="635" type="curve"/>
      <point x="-68" y="635" type="line"/>
      <point x="-6" y="531" type="line"/>
      <point x="83" y="531" type="line"/>
      <point x="83" y="254" type="line" smooth="yes"/>
      <point x="83" y="230"/>
      <point x="87" y="220"/>
      <point x="108" y="203" type="curve" smooth="yes"/>
      <point x="342" y="17" type="line"/>
      <point x="372" y="-8"/>
      <point x="385" y="-22"/>
      <point x="385" y="-39" type="curve" smooth="yes"/>
      <point x="385" y="-52"/>
      <point x="371" y="-71"/>
      <point x="348" y="-92" type="curve"/>
      <point x="453" y="-175" type="line"/>
      <point x="480" y="-150"/>
      <point x="504" y="-114"/>
      <point x="504" y="-71" type="curve" smooth="yes"/>
      <point x="504" y="-36"/>
      <point x="484" y="5"/>
      <point x="443" y="36" type="curve"/>
      <point x="249" y="188" type="line" smooth="yes"/>
      <point x="215" y="214"/>
      <point x="213" y="230"/>
      <point x="213" y="273" type="curve" smooth="yes"/>
      <point x="213" y="531" type="line"/>
      <point x="372" y="531" type="line"/>
      <point x="372" y="351" type="line" smooth="yes"/>
      <point x="372" y="307"/>
      <point x="348" y="287"/>
      <point x="294" y="256" type="curve"/>
      <point x="390" y="160" type="line"/>
      <point x="462" y="204"/>
      <point x="502" y="257"/>
      <point x="502" y="345" type="curve" smooth="yes"/>
      <point x="502" y="531" type="line"/>
      <point x="639" y="531" type="line"/>
      <point x="577" y="635" type="line"/>
      <point x="476" y="635" type="line"/>
      <point x="422" y="751"/>
      <point x="347" y="885"/>
      <point x="221" y="885" type="curve" smooth="yes"/>
      <point x="185" y="885"/>
      <point x="145" y="871"/>
      <point x="103" y="846" type="curve"/>
    </contour>
  </outline>
</glyph>
<glyph name="dvO" format="1">
  <advance width="1029"/>
  <unicode hex="0913"/>
  <outline>
    <contour>
      <point x="627" y="732" type="line"/>
      <point x="653" y="751"/>
      <point x="678" y="762"/>
      <point x="699" y="762" type="curve" smooth="yes"/>
      <point x="751" y="762"/>
      <point x="795" y="701"/>
      <point x="831" y="635" type="curve"/>
      <point x="380" y="635" type="line"/>
      <point x="452" y="531" type="line"/>
      <point x="535" y="531" type="line"/>
      <point x="535" y="393" type="line"/>
      <point x="522" y="371"/>
      <point x="469" y="343"/>
      <point x="422" y="343" type="curve" smooth="yes"/>
      <point x="407" y="343"/>
      <point x="395" y="346"/>
      <point x="385" y="351" type="curve"/>
      <point x="401" y="375"/>
      <point x="411" y="402"/>
      <point x="411" y="433" type="curve" smooth="yes"/>
      <point x="411" y="521"/>
      <point x="313" y="642"/>
      <point x="227" y="642" type="curve" smooth="yes"/>
      <point x="166" y="642"/>
      <point x="112" y="598"/>
      <point x="74" y="549" type="curve"/>
      <point x="171" y="454" type="line"/>
      <point x="205" y="494"/>
      <point x="243" y="519"/>
      <point x="274" y="519" type="curve" smooth="yes"/>
      <point x="296" y="519"/>
      <point x="309" y="502"/>
      <point x="309" y="484" type="curve" smooth="yes"/>
      <point x="309" y="439"/>
      <point x="254" y="403"/>
      <point x="149" y="368" type="curve"/>
      <point x="223" y="244" type="line"/>
      <point x="258" y="257"/>
      <point x="291" y="272"/>
      <point x="319" y="290" type="curve"/>
      <point x="327" y="278"/>
      <point x="332" y="263"/>
      <point x="332" y="247" type="curve" smooth="yes"/>
      <point x="332" y="194"/>
      <point x="293" y="146"/>
      <point x="224" y="146" type="curve" smooth="yes"/>
      <point x="144" y="146"/>
      <point x="93" y="251"/>
      <point x="45" y="356" type="curve"/>
      <point x="-19" y="319" type="line"/>
      <point x="24" y="208"/>
      <point x="114" y="23"/>
      <point x="266" y="23" type="curve" smooth="yes"/>
      <point x="374" y="23"/>
      <point x="440" y="103"/>
      <point x="440" y="197" type="curve" smooth="yes"/>
      <point x="440" y="212"/>
      <point x="438" y="227"/>
      <point x="434" y="240" type="curve"/>
      <point x="454" y="229"/>
      <point x="475" y="223"/>
      <point x="496" y="223" type="curve" smooth="yes"/>
      <point x="511" y="223"/>
      <point x="527" y="226"/>
      <point x="542" y="234" type="curve"/>
      <point x="535" y="32" type="line"/>
      <point x="665" y="-40" type="line"/>
      <point x="665" y="531" type="line"/>
      <point x="824" y="531" type="line"/>
      <point x="824" y="37" type="line"/>
      <point x="954" y="-40" type="line"/>
      <point x="954" y="531" type="line"/>
      <point x="1097" y="531" type="line"/>
      <point x="1044" y="635" type="line"/>
      <point x="917" y="635" type="line"/>
      <point x="863" y="751"/>
      <point x="788" y="885"/>
      <point x="662" y="885" type="curve" smooth="yes"/>
      <point x="626" y="885"/>
      <point x="586" y="871"/>
      <point x="544" y="846" type="curve"/>
    </contour>
  </outline>
</glyph>
<glyph name="dvAU" format="1">
  <advance width="1049"/>
  <unicode hex="0914"/>
  <outline>
    <contour>
      <point x="711" y="826" type="line"/>
      <point x="723" y="831"/>
      <point x="735" y="833"/>
      <point x="745" y="833" type="curve" smooth="yes"/>
      <point x="831" y="833"/>
      <point x="892" y="662"/>
      <point x="901" y="635" type="curve"/>
      <point x="845" y="721"/>
      <point x="758" y="798"/>
      <point x="676" y="798" type="curve" smooth="yes"/>
      <point x="646" y="798"/>
      <point x="613" y="791"/>
      <point x="584" y="769" type="curve"/>
      <point x="666" y="666" type="line"/>
      <point x="689" y="679"/>
      <point x="715" y="685"/>
      <point x="733" y="685" type="curve" smooth="yes"/>
      <point x="773" y="685"/>
      <point x="808" y="661"/>
      <point x="835" y="635" type="curve"/>
      <point x="380" y="635" type="line"/>
      <point x="452" y="531" type="line"/>
      <point x="535" y="531" type="line"/>
      <point x="535" y="393" type="line"/>
      <point x="522" y="371"/>
      <point x="469" y="343"/>
      <point x="422" y="343" type="curve" smooth="yes"/>
      <point x="407" y="343"/>
      <point x="395" y="346"/>
      <point x="385" y="351" type="curve"/>
      <point x="401" y="375"/>
      <point x="411" y="402"/>
      <point x="411" y="433" type="curve" smooth="yes"/>
      <point x="411" y="521"/>
      <point x="313" y="642"/>
      <point x="227" y="642" type="curve" smooth="yes"/>
      <point x="166" y="642"/>
      <point x="112" y="598"/>
      <point x="74" y="549" type="curve"/>
      <point x="171" y="454" type="line"/>
      <point x="205" y="494"/>
      <point x="243" y="519"/>
      <point x="274" y="519" type="curve" smooth="yes"/>
      <point x="296" y="519"/>
      <point x="309" y="502"/>
      <point x="309" y="484" type="curve" smooth="yes"/>
      <point x="309" y="439"/>
      <point x="254" y="403"/>
      <point x="149" y="368" type="curve"/>
      <point x="223" y="244" type="line"/>
      <point x="258" y="257"/>
      <point x="291" y="272"/>
      <point x="319" y="290" type="curve"/>
      <point x="327" y="278"/>
      <point x="332" y="263"/>
      <point x="332" y="247" type="curve" smooth="yes"/>
      <point x="332" y="194"/>
      <point x="293" y="146"/>
      <point x="224" y="146" type="curve" smooth="yes"/>
      <point x="144" y="146"/>
      <point x="93" y="251"/>
      <point x="45" y="356" type="curve"/>
      <point x="-19" y="319" type="line"/>
      <point x="24" y="208"/>
      <point x="114" y="23"/>
      <point x="266" y="23" type="curve" smooth="yes"/>
      <point x="374" y="23"/>
      <point x="440" y="103"/>
      <point x="440" y="197" type="curve" smooth="yes"/>
      <point x="440" y="212"/>
      <point x="438" y="227"/>
      <point x="434" y="240" type="curve"/>
      <point x="454" y="229"/>
      <point x="475" y="223"/>
      <point x="496" y="223" type="curve" smooth="yes"/>
      <point x="511" y="223"/>
      <point x="527" y="226"/>
      <point x="542" y="234" type="curve"/>
      <point x="535" y="32" type="line"/>
      <point x="665" y="-40" type="line"/>
      <point x="665" y="531" type="line"/>
      <point x="844" y="531" type="line"/>
      <point x="844" y="37" type="line"/>
      <point x="974" y="-40" type="line"/>
      <point x="974" y="531" type="line"/>
      <point x="1117" y="531" type="line"/>
      <point x="1064" y="635" type="line"/>
      <point x="952" y="635" type="line"/>
      <point x="926" y="772"/>
      <point x="864" y="944"/>
      <point x="737" y="944" type="curve" smooth="yes"/>
      <point x="714" y="944"/>
      <point x="686" y="941"/>
      <point x="661" y="929" type="curve"/>
    </contour>
  </outline>
</glyph>
<glyph name="dvGA" format="1">
  <advance width="516"/>
  <unicode hex="0917"/>
  <outline>
    <contour>
      <point x="446" y="531" type="line"/>
      <point x="614" y="531" type="line"/>
      <point x="536" y="635" type="line"/>
      <point x="-96" y="635" type="line"/>
      <point x="-20" y="531" type="line"/>
      <point x="89" y="531" type="line"/>
      <point x="89" y="364" type="line"/>
      <point x="42" y="364"/>
      <point x="21" y="351"/>
      <point x="21" y="322" type="curve" smooth="yes"/>
      <point x="21" y="265"/>
      <point x="119" y="170"/>
      <point x="174" y="170" type="curve" smooth="yes"/>
      <point x="201" y="170"/>
      <point x="214" y="185"/>
      <point x="214" y="248" type="curve" smooth="yes"/>
      <point x="214" y="531" type="line"/>
      <point x="316" y="531" type="line"/>
      <point x="316" y="39" type="line"/>
      <point x="446" y="-40" type="line"/>
    </contour>
  </outline>
</glyph>
<glyph name="dvCA" format="1">
  <advance width="673"/>
  <unicode hex="091A"/>
  <outline>
    <contour>
      <point x="473" y="37" type="line"/>
      <point x="603" y="-40" type="line"/>
      <point x="603" y="531" type="line"/>
      <point x="756" y="531" type="line"/>
      <point x="693" y="635" type="line"/>
      <point x="-84" y="635" type="line"/>
      <point x="-20" y="531" type="line"/>
      <point x="474" y="531" type="line"/>
      <point x="474" y="323" type="line"/>
      <point x="428" y="242"/>
      <point x="363" y="189"/>
      <point x="297" y="189" type="curve" smooth="yes"/>
      <point x="262" y="189"/>
      <point x="231" y="204"/>
      <point x="231" y="247" type="curve" smooth="yes"/>
      <point x="231" y="291"/>
      <point x="273" y="333"/>
      <point x="341" y="343" type="curve"/>
      <point x="434" y="343" type="line"/>
      <point x="362" y="448" type="line"/>
      <point x="-14" y="448" type="line"/>
      <point x="58" y="342" type="line"/>
      <point x="144" y="347" type="line"/>
      <point x="129" y="332"/>
      <point x="120" y="311"/>
      <point x="120" y="290" type="curve" smooth="yes"/>
      <point x="120" y="186"/>
      <point x="247" y="77"/>
      <point x="337" y="77" type="curve" smooth="yes"/>
      <point x="397" y="77"/>
      <point x="445" y="105"/>
      <point x="478" y="136" type="curve"/>
    </contour>
  </outline>
</glyph>
<glyph name="dvCHA" format="1">
  <advance width="711"/>
  <unicode hex="091B"/>
  <outline>
    <contour>
      <point x="444" y="-65" type="move" name="blwm.virama"/>
    </contour>
    <contour>
      <point x="444" y="-160" type="move" name="blwm.u"/>
    </contour>
    <contour>
      <point x="545" y="635" type="move" name="abvm"/>
    </contour>
    <contour>
      <point x="300" y="295" type="line"/>
      <point x="274" y="302"/>
      <point x="242" y="305"/>
      <point x="219" y="305" type="curve" smooth="yes"/>
      <point x="202" y="305"/>
      <point x="188" y="303"/>
      <point x="174" y="301" type="curve"/>
      <point x="161" y="311"/>
      <point x="155" y="322"/>
      <point x="155" y="335" type="curve" smooth="yes"/>
      <point x="155" y="363"/>
      <point x="186" y="377"/>
      <point x="234" y="377" type="curve" smooth="yes"/>
      <point x="257" y="377"/>
      <point x="285" y="373"/>
      <point x="315" y="367" type="curve"/>
      <point x="275" y="481" type="line"/>
      <point x="242" y="488"/>
      <point x="211" y="492"/>
      <point x="187" y="492" type="curve" smooth="yes"/>
      <point x="89" y="492"/>
      <point x="39" y="447"/>
      <point x="39" y="376" type="curve" smooth="yes"/>
      <point x="39" y="338"/>
      <point x="68" y="299"/>
      <point x="101" y="268" type="curve"/>
      <point x="81" y="248"/>
      <point x="70" y="221"/>
      <point x="70" y="189" type="curve" smooth="yes"/>
      <point x="70" y="70"/>
      <point x="208" y="-29"/>
      <point x="337" y="-29" type="curve" smooth="yes"/>
      <point x="422" y="-29"/>
      <point x="498" y="6"/>
      <point x="554" y="63" type="curve"/>
      <point x="660" y="-20" type="line"/>
      <point x="719" y="49" type="line"/>
      <point x="604" y="129" type="line"/>
      <point x="627" y="172"/>
      <point x="641" y="220"/>
      <point x="641" y="271" type="curve" smooth="yes"/>
      <point x="641" y="343"/>
      <point x="600" y="417"/>
      <point x="545" y="457" type="curve"/>
      <point x="545" y="531" type="line"/>
      <point x="803" y="531" type="line"/>
      <point x="731" y="635" type="line"/>
      <point x="-92" y="635" type="line"/>
      <point x="-20" y="531" type="line"/>
      <point x="419" y="531" type="line"/>
      <point x="419" y="475" type="line"/>
      <point x="377" y="456"/>
      <point x="343" y="411"/>
      <point x="343" y="351" type="curve" smooth="yes"/>
      <point x="343" y="270"/>
      <point x="405" y="190"/>
      <point x="452" y="146" type="curve"/>
      <point x="408" y="104"/>
      <point x="348" y="78"/>
      <point x="280" y="78" type="curve" smooth="yes"/>
      <point x="232" y="78"/>
      <point x="183" y="91"/>
      <point x="183" y="135" type="curve" smooth="yes"/>
      <point x="183" y="178"/>
      <point x="236" y="190"/>
      <point x="266" y="190" type="curve" smooth="yes"/>
      <point x="297" y="190"/>
      <point x="326" y="184"/>
      <point x="347" y="179" type="curve"/>
    </contour>
    <contour>
      <point x="457" y="293" type="curve" smooth="yes"/>
      <point x="457" y="339"/>
      <point x="479" y="380"/>
      <point x="513" y="380" type="curve" smooth="yes"/>
      <point x="537" y="380"/>
      <point x="544" y="354"/>
      <point x="544" y="337" type="curve" smooth="yes"/>
      <point x="544" y="276"/>
      <point x="513" y="215"/>
      <point x="504" y="206" type="curve"/>
      <point x="476" y="230"/>
      <point x="457" y="262"/>
    </contour>
  </outline>
</glyph>
<glyph name="dvJHA" format="1">
  <advance width="751"/>
  <unicode hex="091D"/>
  <outline>
    <contour>
      <point x="681" y="-40" type="line"/>
      <point x="681" y="531" type="line"/>
      <point x="843" y="531" type="line"/>
      <point x="771" y="635" type="line"/>
      <point x="-92" y="635" type="line"/>
      <point x="-20" y="531" type="line"/>
      <point x="302" y="531" type="line"/>
      <point x="302" y="472" type="line"/>
      <point x="178" y="472" type="line"/>
      <point x="97" y="472"/>
      <point x="50" y="441"/>
      <point x="50" y="369" type="curve" smooth="yes"/>
      <point x="50" y="283"/>
      <point x="162" y="167"/>
      <point x="235" y="167" type="curve" smooth="yes"/>
      <point x="284" y="167"/>
      <point x="321" y="206"/>
      <point x="363" y="206" type="curve" smooth="yes"/>
      <point x="380" y="206"/>
      <point x="385" y="195"/>
      <point x="385" y="187" type="curve" smooth="yes"/>
      <point x="385" y="134"/>
      <point x="307" y="94"/>
      <point x="230" y="90" type="curve"/>
      <point x="194" y="137"/>
      <point x="153" y="181"/>
      <point x="123" y="181" type="curve" smooth="yes"/>
      <point x="87" y="181"/>
      <point x="51" y="151"/>
      <point x="51" y="115" type="curve" smooth="yes"/>
      <point x="51" y="60"/>
      <point x="144" y="-8"/>
      <point x="218" y="-23" type="curve"/>
      <point x="346" y="-199" type="line"/>
      <point x="429" y="-145" type="line"/>
      <point x="313" y="-19" type="line"/>
      <point x="403" y="6"/>
      <point x="475" y="70"/>
      <point x="475" y="140" type="curve" smooth="yes"/>
      <point x="475" y="160"/>
      <point x="467" y="192"/>
      <point x="451" y="217" type="curve"/>
      <point x="463" y="214"/>
      <point x="500" y="207"/>
      <point x="514" y="207" type="curve" smooth="yes"/>
      <point x="530" y="207"/>
      <point x="544" y="209"/>
      <point x="558" y="215" type="curve"/>
      <point x="551" y="37" type="line"/>
    </contour>
    <contour>
      <point x="552" y="351" type="line"/>
      <point x="529" y="319"/>
      <point x="500" y="302"/>
      <point x="471" y="302" type="curve" smooth="yes"/>
      <point x="379" y="302"/>
      <point x="359" y="316"/>
      <point x="310" y="316" type="curve" smooth="yes"/>
      <point x="262" y="316"/>
      <point x="226" y="279"/>
      <point x="180" y="279" type="curve" smooth="yes"/>
      <point x="158" y="279"/>
      <point x="149" y="296"/>
      <point x="149" y="312" type="curve" smooth="yes"/>
      <point x="149" y="342"/>
      <point x="175" y="360"/>
      <point x="211" y="360" type="curve"/>
      <point x="428" y="360" type="line"/>
      <point x="428" y="531" type="line"/>
      <point x="552" y="531" type="line"/>
    </contour>
  </outline>
</glyph>
<glyph name="dvDDA" format="1">
  <advance width="523"/>
  <unicode hex="0921"/>
  <outline>
    <contour>
      <point x="389" y="-71" type="move" name="blwm.virama"/>
    </contour>
    <contour>
      <point x="389" y="-171" type="move" name="blwm.u"/>
    </contour>
    <contour>
      <point x="439" y="635" type="move" name="abvm"/>
    </contour>
    <contour>
      <point x="27" y="140" type="line"/>
      <point x="82" y="34"/>
      <point x="186" y="-43"/>
      <point x="297" y="-43" type="curve" smooth="yes"/>
      <point x="410" y="-43"/>
      <point x="493" y="37"/>
      <point x="493" y="114" type="curve" smooth="yes"/>
      <point x="493" y="182"/>
      <point x="424" y="289"/>
      <point x="346" y="289" type="curve" smooth="yes"/>
      <point x="297" y="289"/>
      <point x="255" y="252"/>
      <point x="207" y="252" type="curve" smooth="yes"/>
      <point x="182" y="252"/>
      <point x="168" y="276"/>
      <point x="168" y="299" type="curve" smooth="yes"/>
      <point x="168" y="328"/>
      <point x="187" y="345"/>
      <point x="229" y="345" type="curve" smooth="yes"/>
      <point x="439" y="345" type="line"/>
      <point x="439" y="531" type="line"/>
      <point x="615" y="531" type="line"/>
      <point x="543" y="635" type="line"/>
      <point x="-88" y="635" type="line"/>
      <point x="-16" y="531" type="line"/>
      <point x="316" y="531" type="line"/>
      <point x="316" y="455" type="line"/>
      <point x="199" y="455" type="line" smooth="yes"/>
      <point x="113" y="455"/>
      <point x="68" y="423"/>
      <point x="68" y="350" type="curve" smooth="yes"/>
      <point x="68" y="257"/>
      <point x="171" y="141"/>
      <point x="253" y="141" type="curve" smooth="yes"/>
      <point x="302" y="141"/>
      <point x="348" y="178"/>
      <point x="381" y="178" type="curve" smooth="yes"/>
      <point x="394" y="178"/>
      <point x="400" y="170"/>
      <point x="400" y="159" type="curve" smooth="yes"/>
      <point x="400" y="111"/>
      <point x="340" y="63"/>
      <point x="264" y="63" type="curve" smooth="yes"/>
      <point x="187" y="63"/>
      <point x="128" y="129"/>
      <point x="93" y="184" type="curve"/>
    </contour>
  </outline>
</glyph>
<glyph name="dvDDHA" format="1">
  <advance width="537"/>
  <unicode hex="0922"/>
  <outline>
    <contour>
      <point x="557" y="635" type="line"/>
      <point x="-60" y="635" type="line"/>
      <point x="12" y="531" type="line"/>
      <point x="316" y="531" type="line"/>
      <point x="316" y="446" type="line"/>
      <point x="222" y="446" type="line" smooth="yes"/>
      <point x="112" y="446"/>
      <point x="49" y="374"/>
      <point x="49" y="284" type="curve" smooth="yes"/>
      <point x="49" y="100"/>
      <point x="221" y="-17"/>
      <point x="340" y="-17" type="curve" smooth="yes"/>
      <point x="443" y="-17"/>
      <point x="515" y="55"/>
      <point x="515" y="137" type="curve" smooth="yes"/>
      <point x="515" y="220"/>
      <point x="426" y="297"/>
      <point x="358" y="297" type="curve" smooth="yes"/>
      <point x="296" y="297"/>
      <point x="247" y="244"/>
      <point x="247" y="183" type="curve" smooth="yes"/>
      <point x="247" y="145"/>
      <point x="264" y="114"/>
      <point x="285" y="88" type="curve"/>
      <point x="220" y="94"/>
      <point x="160" y="146"/>
      <point x="160" y="213" type="curve" smooth="yes"/>
      <point x="160" y="287"/>
      <point x="211" y="330"/>
      <point x="281" y="330" type="curve" smooth="yes"/>
      <point x="446" y="330" type="line"/>
      <point x="446" y="531" type="line"/>
      <point x="629" y="531" type="line"/>
    </contour>
    <contour>
      <point x="344" y="128" type="curve" smooth="yes"/>
      <point x="344" y="160"/>
      <point x="372" y="195"/>
      <point x="408" y="195" type="curve" smooth="yes"/>
      <point x="421" y="195"/>
      <point x="427" y="189"/>
      <point x="427" y="180" type="curve" smooth="yes"/>
      <point x="427" y="147"/>
      <point x="392" y="111"/>
      <point x="354" y="98" type="curve"/>
      <point x="347" y="107"/>
      <point x="344" y="118"/>
    </contour>
    <contour>
      <point x="411" y="-49" type="move" name="blwm.virama"/>
    </contour>
    <contour>
      <point x="411" y="-151" type="move" name="blwm.u"/>
    </contour>
    <contour>
      <point x="446" y="635" type="move" name="abvm"/>
    </contour>
  </outline>
</glyph>
<glyph name="dvNNA" format="1">
  <advance width="755"/>
  <unicode hex="0923"/>
  <outline>
    <contour>
      <point x="775" y="635" type="line"/>
      <point x="-92" y="635" type="line"/>
      <point x="-20" y="531" type="line"/>
      <point x="57" y="531" type="line"/>
      <point x="57" y="351" type="line" smooth="yes"/>
      <point x="57" y="291"/>
      <point x="103" y="228"/>
      <point x="160" y="183" type="curve" smooth="yes"/>
      <point x="205" y="148"/>
      <point x="258" y="124"/>
      <point x="300" y="124" type="curve" smooth="yes"/>
      <point x="391" y="124"/>
      <point x="444" y="181"/>
      <point x="444" y="279" type="curve" smooth="yes"/>
      <point x="444" y="531" type="line"/>
      <point x="555" y="531" type="line"/>
      <point x="555" y="37" type="line"/>
      <point x="685" y="-40" type="line"/>
      <point x="685" y="531" type="line"/>
      <point x="847" y="531" type="line"/>
    </contour>
    <contour>
      <point x="250" y="230" type="curve" smooth="yes"/>
      <point x="213" y="230"/>
      <point x="186" y="261"/>
      <point x="186" y="309" type="curve" smooth="yes"/>
      <point x="186" y="531" type="line"/>
      <point x="314" y="531" type="line"/>
      <point x="314" y="310" type="line" smooth="yes"/>
      <point x="314" y="251"/>
      <point x="290" y="230"/>
    </contour>
  </outline>
</glyph>
<glyph name="dvTA" format="1">
  <advance width="581"/>
  <unicode hex="0924"/>
  <outline>
    <contour>
      <point x="601" y="635" type="line"/>
      <point x="-92" y="635" type="line"/>
      <point x="-20" y="531" type="line"/>
      <point x="386" y="531" type="line"/>
      <point x="386" y="430" type="line"/>
      <point x="221" y="430" type="line" smooth="yes"/>
      <point x="111" y="430"/>
      <point x="56" y="377"/>
      <point x="56" y="281" type="curve" smooth="yes"/>
      <point x="56" y="185"/>
      <point x="130" y="52"/>
      <point x="207" y="-40" type="curve"/>
      <point x="275" y="5" type="line"/>
      <point x="223" y="67"/>
      <point x="173" y="138"/>
      <point x="173" y="207" type="curve" smooth="yes"/>
      <point x="173" y="263"/>
      <point x="202" y="309"/>
      <point x="264" y="309" type="curve" smooth="yes"/>
      <point x="386" y="309" type="line"/>
      <point x="386" y="34" type="line"/>
      <point x="511" y="-40" type="line"/>
      <point x="511" y="531" type="line"/>
      <point x="673" y="531" type="line"/>
    </contour>
  </outline>
</glyph>
<glyph name="dvPA" format="1">
  <advance width="539"/>
  <unicode hex="092A"/>
  <outline>
    <contour>
      <point x="469" y="531" type="line"/>
      <point x="631" y="531" type="line"/>
      <point x="559" y="635" type="line"/>
      <point x="-92" y="635" type="line"/>
      <point x="-20" y="531" type="line"/>
      <point x="57" y="531" type="line"/>
      <point x="57" y="384" type="line"/>
      <point x="57" y="284"/>
      <point x="206" y="164"/>
      <point x="283" y="164" type="curve" smooth="yes"/>
      <point x="301" y="164"/>
      <point x="329" y="172"/>
      <point x="348" y="180" type="curve"/>
      <point x="341" y="36" type="line"/>
      <point x="469" y="-40" type="line"/>
    </contour>
    <contour>
      <point x="242" y="275" type="curve" smooth="yes"/>
      <point x="206" y="275"/>
      <point x="186" y="292"/>
      <point x="186" y="334" type="curve"/>
      <point x="186" y="531" type="line"/>
      <point x="340" y="531" type="line"/>
      <point x="340" y="337" type="line"/>
      <point x="319" y="307"/>
      <point x="282" y="275"/>
    </contour>
  </outline>
</glyph>
<glyph name="dvPHA" format="1">
  <advance width="784"/>
  <unicode hex="092B"/>
  <outline>
    <contour>
      <point x="453" y="635" type="move" name="abvm"/>
    </contour>
    <contour>
      <point x="454" y="-40" type="move" name="blwm.u"/>
    </contour>
    <contour>
      <point x="454" y="-40" type="move" name="blwm.virama"/>
    </contour>
    <contour>
      <point x="454" y="-40" type="line"/>
      <point x="454" y="246" type="line"/>
      <point x="479" y="292"/>
      <point x="521" y="324"/>
      <point x="567" y="324" type="curve" smooth="yes"/>
      <point x="613" y="324"/>
      <point x="644" y="291"/>
      <point x="644" y="242" type="curve" smooth="yes"/>
      <point x="644" y="191"/>
      <point x="607" y="164"/>
      <point x="562" y="164" type="curve" smooth="yes"/>
      <point x="546" y="164"/>
      <point x="524" y="165"/>
      <point x="491" y="178" type="curve"/>
      <point x="535" y="49" type="line"/>
      <point x="563" y="43"/>
      <point x="587" y="40"/>
      <point x="610" y="40" type="curve" smooth="yes"/>
      <point x="705" y="40"/>
      <point x="756" y="93"/>
      <point x="756" y="198" type="curve" smooth="yes"/>
      <point x="756" y="299"/>
      <point x="620" y="442"/>
      <point x="531" y="442" type="curve" smooth="yes"/>
      <point x="498" y="442"/>
      <point x="472" y="435"/>
      <point x="452" y="424" type="curve"/>
      <point x="453" y="531" type="line"/>
      <point x="876" y="531" type="line"/>
      <point x="804" y="635" type="line"/>
      <point x="-91" y="635" type="line"/>
      <point x="-20" y="531" type="line"/>
      <point x="49" y="531" type="line"/>
      <point x="49" y="393" type="line"/>
      <point x="49" y="298"/>
      <point x="198" y="164"/>
      <point x="275" y="164" type="curve" smooth="yes"/>
      <point x="294" y="164"/>
      <point x="314" y="170"/>
      <point x="331" y="178" type="curve"/>
      <point x="324" y="37" type="line"/>
    </contour>
    <contour>
      <point x="230" y="278" type="curve" smooth="yes"/>
      <point x="196" y="278"/>
      <point x="178" y="302"/>
      <point x="178" y="341" type="curve"/>
      <point x="178" y="531" type="line"/>
      <point x="324" y="531" type="line"/>
      <point x="324" y="337" type="line"/>
      <point x="304" y="307"/>
      <point x="269" y="278"/>
    </contour>
  </outline>
</glyph>
<glyph name="dvBA" format="1">
  <advance width="597"/>
  <unicode hex="092C"/>
  <outline>
    <contour>
      <point x="527" y="531" type="line"/>
      <point x="689" y="531" type="line"/>
      <point x="617" y="635" type="line"/>
      <point x="-92" y="635" type="line"/>
      <point x="-20" y="531" type="line"/>
      <point x="395" y="531" type="line"/>
      <point x="398" y="301" type="line"/>
      <point x="379" y="271"/>
      <point x="357" y="246"/>
      <point x="334" y="227" type="curve"/>
      <point x="207" y="364" type="line"/>
      <point x="220" y="369"/>
      <point x="233" y="372"/>
      <point x="246" y="372" type="curve" smooth="yes"/>
      <point x="282" y="372"/>
      <point x="304" y="355"/>
      <point x="327" y="332" type="curve"/>
      <point x="371" y="389" type="line"/>
      <point x="338" y="429"/>
      <point x="282" y="473"/>
      <point x="208" y="473" type="curve" smooth="yes"/>
      <point x="133" y="473"/>
      <point x="40" y="413"/>
      <point x="40" y="305" type="curve" smooth="yes"/>
      <point x="40" y="202"/>
      <point x="154" y="87"/>
      <point x="266" y="87" type="curve" smooth="yes"/>
      <point x="324" y="87"/>
      <point x="380" y="120"/>
      <point x="401" y="140" type="curve"/>
      <point x="394" y="39" type="line"/>
      <point x="527" y="-40" type="line"/>
    </contour>
    <contour>
      <point x="228" y="182" type="curve" smooth="yes"/>
      <point x="180" y="182"/>
      <point x="139" y="219"/>
      <point x="139" y="267" type="curve" smooth="yes"/>
      <point x="139" y="289"/>
      <point x="146" y="309"/>
      <point x="156" y="324" type="curve"/>
      <point x="278" y="192" type="line"/>
      <point x="261" y="185"/>
      <point x="244" y="182"/>
    </contour>
  </outline>
</glyph>
<glyph name="dvBHA" format="1">
  <advance width="582"/>
  <unicode hex="092D"/>
  <outline>
    <contour>
      <point x="602" y="635" type="line"/>
      <point x="225" y="635" type="line"/>
      <point x="296" y="531" type="line"/>
      <point x="382" y="531" type="line"/>
      <point x="382" y="351" type="line"/>
      <point x="226" y="351" type="line"/>
      <point x="226" y="444" type="line" smooth="yes"/>
      <point x="226" y="486"/>
      <point x="217" y="515"/>
      <point x="186" y="543" type="curve" smooth="yes"/>
      <point x="125" y="596" type="line" smooth="yes"/>
      <point x="89" y="628"/>
      <point x="61" y="635"/>
      <point x="24" y="635" type="curve" smooth="yes"/>
      <point x="-90" y="635" type="line"/>
      <point x="-20" y="531" type="line"/>
      <point x="60" y="531" type="line" smooth="yes"/>
      <point x="84" y="531"/>
      <point x="101" y="514"/>
      <point x="101" y="491" type="curve" smooth="yes"/>
      <point x="101" y="350" type="line"/>
      <point x="49" y="350"/>
      <point x="30" y="336"/>
      <point x="30" y="309" type="curve" smooth="yes"/>
      <point x="30" y="253"/>
      <point x="147" y="142"/>
      <point x="193" y="142" type="curve" smooth="yes"/>
      <point x="220" y="142"/>
      <point x="228" y="157"/>
      <point x="228" y="179" type="curve" smooth="yes"/>
      <point x="228" y="231" type="line"/>
      <point x="382" y="231" type="line"/>
      <point x="382" y="37" type="line"/>
      <point x="512" y="-40" type="line"/>
      <point x="512" y="531" type="line"/>
      <point x="673" y="531" type="line"/>
    </contour>
  </outline>
</glyph>
<glyph name="dvRA" format="1">
  <advance width="399"/>
  <unicode hex="0930"/>
  <outline>
    <contour>
      <point x="296" y="635" type="move" name="abvm"/>
    </contour>
    <contour>
      <point x="351" y="-81" type="move" name="blwm.virama"/>
    </contour>
    <contour>
      <point x="419" y="635" type="line"/>
      <point x="-92" y="635" type="line"/>
      <point x="-20" y="531" type="line"/>
      <point x="166" y="531" type="line"/>
      <point x="166" y="346" type="line" smooth="yes"/>
      <point x="166" y="338"/>
      <point x="161" y="333"/>
      <point x="155" y="333" type="curve" smooth="yes"/>
      <point x="141" y="333"/>
      <point x="122" y="349"/>
      <point x="99" y="372" type="curve"/>
      <point x="33" y="314" type="line"/>
      <point x="105" y="205"/>
      <point x="199" y="82"/>
      <point x="304" y="-44" type="curve"/>
      <point x="388" y="0" type="line"/>
      <point x="310" y="80"/>
      <point x="239" y="164"/>
      <point x="205" y="210" type="curve"/>
      <point x="263" y="231"/>
      <point x="296" y="265"/>
      <point x="296" y="313" type="curve" smooth="yes"/>
      <point x="296" y="531" type="line"/>
      <point x="490" y="531" type="line"/>
    </contour>
  </outline>
</glyph>
<glyph name="dvLA" format="1">
  <advance width="759"/>
  <unicode hex="0932"/>
  <outline>
    <contour>
      <point x="451" y="123" type="line"/>
      <point x="436" y="156"/>
      <point x="427" y="194"/>
      <point x="427" y="230" type="curve" smooth="yes"/>
      <point x="427" y="291"/>
      <point x="451" y="345"/>
      <point x="518" y="345" type="curve" smooth="yes"/>
      <point x="533" y="345"/>
      <point x="547" y="343"/>
      <point x="559" y="338" type="curve"/>
      <point x="559" y="37" type="line"/>
      <point x="689" y="-40" type="line"/>
      <point x="689" y="531" type="line"/>
      <point x="851" y="531" type="line"/>
      <point x="779" y="635" type="line"/>
      <point x="-92" y="635" type="line"/>
      <point x="-20" y="531" type="line"/>
      <point x="559" y="531" type="line"/>
      <point x="559" y="421" type="line"/>
      <point x="528" y="442"/>
      <point x="494" y="456"/>
      <point x="463" y="456" type="curve" smooth="yes"/>
      <point x="412" y="456"/>
      <point x="371" y="434"/>
      <point x="344" y="400" type="curve"/>
      <point x="310" y="433"/>
      <point x="264" y="458"/>
      <point x="210" y="458" type="curve" smooth="yes"/>
      <point x="110" y="458"/>
      <point x="43" y="383"/>
      <point x="43" y="285" type="curve" smooth="yes"/>
      <point x="43" y="155"/>
      <point x="175" y="35"/>
      <point x="262" y="-40" type="curve"/>
      <point x="326" y="6" type="line"/>
      <point x="256" y="63"/>
      <point x="167" y="140"/>
      <point x="167" y="237" type="curve" smooth="yes"/>
      <point x="167" y="302"/>
      <point x="208" y="342"/>
      <point x="258" y="342" type="curve" smooth="yes"/>
      <point x="280" y="342"/>
      <point x="297" y="337"/>
      <point x="310" y="330" type="curve"/>
      <point x="305" y="313"/>
      <point x="303" y="294"/>
      <point x="303" y="276" type="curve" smooth="yes"/>
      <point x="303" y="240"/>
      <point x="312" y="202"/>
      <point x="334" y="164" type="curve"/>
    </contour>
  </outline>
</glyph>
<glyph name="dvLLA" format="1">
  <advance width="759"/>
  <unicode hex="0933"/>
  <outline>
    <contour>
      <point x="599" y="635" type="move" name="abvm"/>
    </contour>
    <contour>
      <point x="635" y="-104" type="move" name="blwm.u"/>
    </contour>
    <contour>
      <point x="650" y="-13" type="move" name="blwm.virama"/>
    </contour>
    <contour>
      <point x="269" y="37" type="curve" smooth="yes"/>
      <point x="326" y="37"/>
      <point x="365" y="63"/>
      <point x="395" y="110" type="curve"/>
      <point x="447" y="62"/>
      <point x="498" y="37"/>
      <point x="548" y="37" type="curve" smooth="yes"/>
      <point x="644" y="37"/>
      <point x="729" y="123"/>
      <point x="729" y="225" type="curve" smooth="yes"/>
      <point x="729" y="295"/>
      <point x="662" y="386"/>
      <point x="599" y="431" type="curve"/>
      <point x="599" y="531" type="line"/>
      <point x="851" y="531" type="line"/>
      <point x="779" y="635" type="line"/>
      <point x="-92" y="635" type="line"/>
      <point x="-20" y="531" type="line"/>
      <point x="473" y="531" type="line"/>
      <point x="473" y="469" type="line"/>
      <point x="434" y="464"/>
      <point x="402" y="442"/>
      <point x="373" y="397" type="curve"/>
      <point x="322" y="443"/>
      <point x="273" y="471"/>
      <point x="222" y="471" type="curve" smooth="yes"/>
      <point x="125" y="471"/>
      <point x="40" y="386"/>
      <point x="40" y="283" type="curve" smooth="yes"/>
      <point x="40" y="176"/>
      <point x="182" y="37"/>
    </contour>
    <contour>
      <point x="272" y="353" type="curve" smooth="yes"/>
      <point x="294" y="353"/>
      <point x="316" y="342"/>
      <point x="336" y="326" type="curve"/>
      <point x="328" y="306"/>
      <point x="323" y="289"/>
      <point x="317" y="270" type="curve" smooth="yes"/>
      <point x="295" y="209"/>
      <point x="273" y="155"/>
      <point x="225" y="155" type="curve" smooth="yes"/>
      <point x="189" y="155"/>
      <point x="158" y="181"/>
      <point x="158" y="232" type="curve" smooth="yes"/>
      <point x="158" y="309"/>
      <point x="207" y="353"/>
    </contour>
    <contour>
      <point x="495" y="150" type="curve" smooth="yes"/>
      <point x="476" y="150"/>
      <point x="454" y="159"/>
      <point x="429" y="178" type="curve"/>
      <point x="435" y="195"/>
      <point x="442" y="211"/>
      <point x="448" y="227" type="curve" smooth="yes"/>
      <point x="476" y="297"/>
      <point x="494" y="352"/>
      <point x="546" y="352" type="curve" smooth="yes"/>
      <point x="583" y="352"/>
      <point x="611" y="323"/>
      <point x="611" y="274" type="curve" smooth="yes"/>
      <point x="611" y="199"/>
      <point x="559" y="150"/>
    </contour>
  </outline>
</glyph>
<glyph name="dvSHA" format="1">
  <advance width="743"/>
  <unicode hex="0936"/>
  <outline>
    <contour>
      <point x="256" y="188" type="curve"/>
      <point x="380" y="196"/>
      <point x="464" y="276"/>
      <point x="464" y="388" type="curve" smooth="yes"/>
      <point x="464" y="498"/>
      <point x="358" y="645"/>
      <point x="243" y="645" type="curve" smooth="yes"/>
      <point x="167" y="645"/>
      <point x="112" y="582"/>
      <point x="112" y="510" type="curve" smooth="yes"/>
      <point x="112" y="427"/>
      <point x="202" y="367"/>
      <point x="256" y="351" type="curve"/>
      <point x="295" y="404" type="line"/>
      <point x="263" y="418"/>
      <point x="238" y="441"/>
      <point x="238" y="468" type="curve" smooth="yes"/>
      <point x="238" y="502"/>
      <point x="258" y="526"/>
      <point x="294" y="526" type="curve" smooth="yes"/>
      <point x="330" y="526"/>
      <point x="359" y="493"/>
      <point x="359" y="446" type="curve" smooth="yes"/>
      <point x="359" y="364"/>
      <point x="304" y="310"/>
      <point x="216" y="310" type="curve" smooth="yes"/>
      <point x="180" y="310"/>
      <point x="150" y="338"/>
      <point x="123" y="366" type="curve"/>
      <point x="57" y="307" type="line"/>
      <point x="119" y="220"/>
      <point x="250" y="71"/>
      <point x="346" y="-40" type="curve"/>
      <point x="427" y="10" type="line"/>
      <point x="368" y="69"/>
      <point x="297" y="142"/>
    </contour>
    <contour>
      <point x="763" y="635" type="line"/>
      <point x="412" y="635" type="line"/>
      <point x="470" y="531" type="line"/>
      <point x="543" y="531" type="line"/>
      <point x="543" y="37" type="line"/>
      <point x="673" y="-40" type="line"/>
      <point x="673" y="531" type="line"/>
      <point x="821" y="531" type="line"/>
    </contour>
  </outline>
</glyph>
<glyph name="dvSSA" format="1">
  <advance width="560"/>
  <unicode hex="0937"/>
  <outline>
    <contour>
      <point x="490" y="531" type="line"/>
      <point x="652" y="531" type="line"/>
      <point x="580" y="635" type="line"/>
      <point x="-87" y="635" type="line"/>
      <point x="-15" y="531" type="line"/>
      <point x="57" y="531" type="line"/>
      <point x="57" y="369" type="line"/>
      <point x="67" y="268"/>
      <point x="187" y="151"/>
      <point x="281" y="151" type="curve" smooth="yes"/>
      <point x="316" y="151"/>
      <point x="349" y="163"/>
      <point x="368" y="174" type="curve"/>
      <point x="360" y="37" type="line"/>
      <point x="490" y="-40" type="line"/>
    </contour>
    <contour>
      <point x="251" y="250" type="curve" smooth="yes"/>
      <point x="217" y="250"/>
      <point x="183" y="270"/>
      <point x="183" y="314" type="curve" smooth="yes"/>
      <point x="183" y="445" type="line"/>
      <point x="338" y="283" type="line"/>
      <point x="314" y="265"/>
      <point x="279" y="250"/>
    </contour>
    <contour>
      <point x="360" y="531" type="line"/>
      <point x="360" y="350" type="line"/>
      <point x="197" y="531" type="line"/>
    </contour>
  </outline>
</glyph>
